<?xml version="1.0" standalone="no"?>
<!DOCTYPE svg PUBLIC "-//W3C//DTD SVG 1.1//EN" "http://www.w3.org/Graphics/SVG/1.1/DTD/svg11.dtd" >
<svg xmlns="http://www.w3.org/2000/svg" xmlns:xlink="http://www.w3.org/1999/xlink" version="1.1">
<metadata>
Created by FontForge 20170731 at Wed May 10 20:41:28 2017
 By ,,,
Mats-Peter Forss | http://wornoutmedia.com
</metadata>
<defs>
<font id="SugarstyleMillenial-Regular" horiz-adv-x="0" >
  <font-face 
    font-family="Sugarstyle Millenial"
    font-weight="400"
    font-stretch="normal"
    units-per-em="1000"
    panose-1="0 0 5 0 0 0 0 0 0 0"
    ascent="800"
    descent="-200"
    x-height="278"
    cap-height="526"
    bbox="-391.154 -400 883 900"
    underline-thickness="50"
    underline-position="-150"
    unicode-range="U+0020-2265"
  />
<missing-glyph horiz-adv-x="650" 
d="M533 -400h-412v1300h412v-1300zM217 13v-147h216v147h-216zM390 -91h-130v61h130v-61zM303 238v-72h44v29h43v-61h-130v104h-43v-147h216v147h-130zM390 397v-86h-173v-44h216v130h-43zM217 475v-43h86v-48h-86v-43h130v91h86v43h-216zM303 554h-43v47h43v-47zM217 645
v-135h216v44h-86v91h-130zM218 813v-43h85v-48h-86v-43h216v43h-86v48h86v43h-215zM217 -163v-43h91l-91 -61v-43h216v43h-133l91 61h42v43h-216z" />
    <glyph glyph-name="t_t.liga" unicode="tt" horiz-adv-x="280" 
d="M96.5 -59.5q-6.5 8.5 -7.5 19.5q-2 29 5 51q8 28 13 42q25 67 74 163l48 93l17 32q4 6 4 11l-17 1q-8 0 -24 -2q-6 0 -8 -5.5t-3 -7.5l-22 -54q-12 -32 -38 -94q-27 -69 -57 -138q-17 -44 -45 -79q-10 -15 -25 -15q-4 0 -10 2q-11 3 -16.5 11.5t-4.5 20.5q1 23 9 46
l12 31q76 176 120 261q1 2 3 6.5t2 8.5q-3 1 -9 1q-8 0 -12 -1q-18 -2 -27 -1q-13 2 -14 13l-1 4q0 9 11 14q8 4 19.5 5.5t14.5 2.5l31 4q12 0 19 12q11 21 37 61l15 20q9 10 19 10q7 0 11 -3q10 -4 10 -17q0 -8 -2 -12l-16 -41l-10 -22q38 2 50 2q7 1 14 11l27 40
q10 12 12 14q10 8 18 8q5 0 10 -3q14 -7 12 -25q0 -8 -3 -16.5t-4 -11.5q-4 -6 -3 -11q4 -2 7 -2l9 1q22 0 32 -3q8 -1 12.5 -6.5t4.5 -12.5q0 -16 -18 -19q-8 -2 -11 -2q-30 -2 -46 -2q-12 0 -16 -11q-2 -8 -6 -17.5t-6 -13.5l-108 -260q-4 -8 -9.5 -20t-11.5 -28
q-5 -12 -13 -24t-16 -23q-10 -12 -14 -19q-7 -12 -23 -12q-7 0 -10 1q-9 2 -15.5 10.5z" />
    <glyph glyph-name=".notdef" horiz-adv-x="650" 
d="M533 -400h-412v1300h412v-1300zM217 13v-147h216v147h-216zM390 -91h-130v61h130v-61zM303 238v-72h44v29h43v-61h-130v104h-43v-147h216v147h-130zM390 397v-86h-173v-44h216v130h-43zM217 475v-43h86v-48h-86v-43h130v91h86v43h-216zM303 554h-43v47h43v-47zM217 645
v-135h216v44h-86v91h-130zM218 813v-43h85v-48h-86v-43h216v43h-86v48h86v43h-215zM217 -163v-43h91l-91 -61v-43h216v43h-133l91 61h42v43h-216z" />
    <glyph glyph-name=".null" 
 />
    <glyph glyph-name="nonmarkingreturn" horiz-adv-x="333" 
 />
    <glyph glyph-name="space" unicode=" " horiz-adv-x="250" 
 />
    <glyph glyph-name="exclam" unicode="!" horiz-adv-x="371" 
d="M93.5 139q-5.5 9 -4.5 22q1 9 9 33q8 17 14 32t12 27l18 42q16 38 56 142q30 80 46 119q4 8 11.5 25.5t15.5 29.5q8 16 21 23q10 5 19 5q13 0 22 -9t9 -24q0 -10 -6 -19q-11 -16 -19 -36l-27 -67q-11 -26 -36 -86t-46 -106q-10 -19 -21.5 -45t-17.5 -38l-27 -58l-3 -8
q-7 -16 -23 -16q-5 0 -8 1q-9 2 -14.5 11zM30 16q5 37 42 33q9 -2 14.5 -9t4.5 -16l-3 -17q-3 -14 -12 -21.5t-22 -5.5q-24 3 -24 36z" />
    <glyph glyph-name="quotedbl" unicode="&#x22;" horiz-adv-x="200" 
d="M167 501q-6 9 -4 23q0 4 3 10q19 51 40 85l7 11q9 11 19 11q3 0 9 -2q14 -8 11 -28q-7 -25 -27 -60q-4 -9 -11.5 -23t-9.5 -25q-1 -6 -7 -9.5t-13 -3.5q-11 2 -17 11zM235 507q0 5 1 9.5t2 7.5q13 46 45 93l3 6q13 13 26 7q15 -5 13 -24l-1 -5q-4 -20 -17 -51l-23 -46
q-4 -9 -10 -14q-5 -5 -14 -5q-6 0 -10 2q-11 4 -15 20z" />
    <glyph glyph-name="numbersign" unicode="#" horiz-adv-x="326" 
d="M80 130l1 11q-2 2 -6.5 3t-6.5 2q-15 5 -18 18v3q0 13 13 21q10 6 17 7q21 3 24 24l3 9q-3 4 -6.5 3t-5.5 -1q-15 0 -22 2q-15 5 -16 18v2q0 13 14 19q17 7 44 11q18 3 24 18q2 6 7.5 15.5t8.5 16.5l6 9q10 15 25 10q13 -7 12 -24q-1 -3 -2 -7t-1 -10l-2.5 -7.5
t-0.5 -7.5q5 -2 11 -2q3 0 5 2.5t4 6.5l12 25q3 8 10 13q7 7 16 7q3 0 9 -2q13 -6 13 -22q0 -8 -3 -18t-4 -14q-1 -2 -1 -6q0 -5 4 -10q8 -10 8 -17t-5 -12.5t-15 -7.5q-8 -2 -12.5 -7.5t-4.5 -12.5q-1 -5 5 -7q21 -14 17 -32q-2 -11 -10.5 -17t-21.5 -5q-11 0 -14 -9
q-2 -9 -5 -13q-8 -17 -25 -14q-16 1 -21 19q0 2 -0.5 7t-6.5 4h-4h-4q-15 0 -17 -9q-4 -8 -10 -24q-9 -20 -27 -15q-17 5 -15 27zM181 214q4 5 4 24q-13 0 -16 -3.5t-8 -24.5q16 -1 20 4z" />
    <glyph glyph-name="dollar" unicode="$" horiz-adv-x="467" 
d="M202 -67q-17 0 -37 5q-15 4 -22 2h-5q-15 0 -21 13q-4 10 -13 14q-22 16 -36 34q-18 24 -18 49q0 18 10 37q34 63 104 70q10 0 13 9l30 65q2 6 2 9q0 4 -3 10q-13 24 -28 55q-24 50 -27 97q-2 41 23.5 74.5t65.5 41.5q12 2 18 2q22 0 49 -12q21 -12 27 -17q5 -3 7.5 -2.5
t5.5 4.5q9 15 24 32l12 11q5 4 11 4t9 -4q4 -4 4 -10q0 -4 -3 -10q-8 -12 -15 -27t-10 -20q-4 -5 -4 -12q0 -6 6 -14q29 -37 36 -96q0 -3 0.5 -7.5t-0.5 -10.5q-1 -7 -6 -10.5t-10 -3.5q-12 0 -15 13l-2 14q-3 36 -25 71q-2 2 -3 2q-4 -1 -6 -9q-38 -86 -58 -128
q-3 -6 -3 -11t4 -13q29 -52 45 -106q9 -30 9 -59q0 -31 -11 -59q-32 -79 -106 -94q-15 -3 -28 -3zM132 44q7 19 9 26q3 9 9 25t9 29q-22 -5 -44 -23q-20 -15 -25 -35q-2 -4 -2 -13q0 -10 6 -19q11 -16 27 -25q4 16 11 35zM192 -13q4 0 12 2q41 10 55 53q8 22 8 43
q0 31 -18 74q-2 0 -3 1l-63 -172zM257 331l62 117q3 6 -2 9q-22 15 -38 17q-3 1 -9 1q-17 0 -32.5 -11t-20.5 -27q-3 -8 -1 -18q10 -41 37 -91z" />
    <glyph glyph-name="percent" unicode="%" horiz-adv-x="398" 
d="M50 -54q2 12 4 18q18 80 45 140l33 74q36 84 56 126q31 68 82 149q3 5 10.5 15.5t14.5 17.5q10 12 23 12q10 -1 16 -7t5 -16q0 -4 -2 -10t-3 -8q-49 -100 -127 -295q-13 -31 -24 -58t-20 -49q-5 -14 -13.5 -32t-13.5 -28l-18 -40q-7 -15 -20 -30q-10 -12 -23 -12
q-4 0 -10 2q-17 8 -15 31zM297 75.5q2 7.5 1 14.5q-8 -16 -7 -30q4 8 6 15.5zM279 -6q-12 0 -22 6.5t-15 19.5q-5 11 -5 29q0 7 2 23q1 7 4.5 15.5t4.5 12.5q1 3 3.5 10t2.5 12q0 7 -5 13q-2 4 0 8q1 14 15 28t28 17q14 2 26.5 -5t19.5 -23q10 -20 10 -56q0 -39 -15 -68
q-11 -24 -33 -36q-10 -6 -21 -6zM117 420q-13 -30 -12 -57q14 25 12 57zM52 342q-2 7 -2 20q0 11 1 16q6 42 24 76q5 10 11 16q9 6 9 20v2q0 14 18 22q7 4 15 4q11 0 19 -7q12 -8 17 -25q5 -18 5 -51q-2 -46 -12 -78q-10 -27 -22 -38q-19 -17 -37 -17q-3 0 -13 2
q-25 8 -33 38z" />
    <glyph glyph-name="ampersand" unicode="&#x26;" horiz-adv-x="504" 
d="M120 -94q-29 0 -47 27q-10 13 -16 39q-7 27 -7 57q0 50 22 97q26 54 67 105q15 16 13 40q-1 9 -1 26q0 95 56 175q58 81 159 89q32 2 57 -8q31 -13 31 -42q0 -4 -2 -16q-6 -18 -17 -36q-11 -19 -37 -55q-63 -84 -164 -207q-10 -13 -10 -24q0 -8 4 -16q9 -19 18.5 -37.5
t20.5 -32.5q7 1 15 9l24 16q47 31 63 40q15 9 29 14q8 3 13 3q11 0 15 -9q1 -2 1 -6q0 -11 -14 -18q-40 -22 -101 -68q-4 -3 -11 -8t-7 -8t5 -8.5t9 -10.5q39 -48 73 -72q2 -2 2 -3q10 -7 10 -17q0 -2 -2 -8q-4 -8 -14 -8q-6 0 -14 3q-21 9 -44 29q-20 17 -56 55q-7 7 -9 7
q-3 0 -9 -6q-20 -19 -56 -61q-23 -25 -32 -32q-19 -14 -37 -14zM128 -40q3 0 10 7q2 1 6 5l15 16q40 42 62 60q4 4 4 6.5t-3 6.5q-20 28 -36 64q-5 0 -7 -4q-28 -42 -44 -77q-15 -33 -13 -70v-4q0 -9 5 -10h1zM306 417.5q76 82.5 80 91.5q-11 3 -22 3q-21 0 -39 -7
q-62 -23 -92 -81q-23 -44 -29 -94q-2 -8 -2 -11t2 -9q26 25 102 107.5z" />
    <glyph glyph-name="quotesingle" unicode="'" horiz-adv-x="100" 
d="M134 390v4q6 52 31 104q8 15 23 15q8 -1 14 -5.5t7 -12.5q1 -4 1 -12q-6 -34 -11.5 -56.5t-14.5 -43.5l-3 -5q-11 -22 -29 -17t-18 29z" />
    <glyph glyph-name="parenleft" unicode="(" horiz-adv-x="357" 
d="M47 -143q-13 0 -19 14q-6 12 -7 27.5t-1 18.5q-1 14 2.5 30t4.5 22q19 117 47 217q2 7 7 28q7 44 23.5 86t41.5 93q50 105 111 201q30 46 47 67q13 15 23 19q6 2 9 2q9 0 16 -7q5 -5 5 -14q0 -6 -2 -10l-7 -11q-44 -71 -78 -144q-20 -45 -25 -55q-14 -30 -31 -70
q-48 -123 -83 -222q-18 -53 -39 -139l-16 -61q-10 -38 -10 -71q-2 -16 -14 -20q-2 -1 -5 -1z" />
    <glyph glyph-name="parenright" unicode=")" horiz-adv-x="370" 
d="M20 -139q0 6 3 12q10 23 32 69l19 38q29 63 57 116q15 32 28 70l14 35l14 36q66 175 83 221q37 103 41 188q0 9 1 14q3 21 18 21q17 0 18 -21q2 -15 2 -43q1 -9 0.5 -15t-0.5 -10q2 -54 -8 -108t-29 -118q-50 -164 -140 -330q-40 -74 -103 -159q-4 -5 -8 -11t-8 -11
q-7 -10 -17 -10q-2 0 -8 2q-9 4 -9 14z" />
    <glyph glyph-name="asterisk" unicode="*" horiz-adv-x="204" 
d="M94 418q-8 0 -14 9q-3 4 -5.5 6t-7.5 3q-8 0 -12.5 4.5t-4.5 10.5q0 5 3 11l1 1q12 10 12 19q0 7 -10 16q-3 3 -3 8q0 7 4 12q6 9 18 7l14 -5q5 11 10 19q10 13 22 8q13 -5 10 -20v-4q0 -6 6 -10q10 -6 10 -14q0 -9 -10 -16l-10 -7q3 -6 9 -12.5t9 -9.5q9 -10 9 -18
q0 -4 -3 -9q-6 -7 -13 -7t-16 6q-3 1 -4.5 2t-2.5 2q-3 -1 -4.5 -3t-2.5 -3q-8 -6 -14 -6z" />
    <glyph glyph-name="plus" unicode="+" horiz-adv-x="331" 
d="M112 91q-7 6 -8 16q-1 3 -1 10q0 8 3 17l15 53h-3q-8 0 -15 -2t-9 -3l-17 -4h-2q-7 0 -13.5 4t-9.5 11q-2 6 -2 9q0 8 7 17q5 6 11.5 9.5t8.5 4.5q22 10 55 15q13 3 19 16q15 37 36 72q8 14 14 20q8 6 15 6q5 0 9 -3q11 -6 10 -22q-1 -9 -5.5 -21.5t-6.5 -19.5l-12 -34
q9 -4 19 -6.5t19 -1.5h4q7 0 11 -1q14 -3 17 -17v-3q0 -12 -10 -19q-7 -4 -16 -6q-20 -4 -58 -10q-12 -2 -16 -13l-25 -63q-2 -5 -4 -15q-1 -10 -7.5 -16t-16.5 -6q-9 0 -16 6z" />
    <glyph glyph-name="comma" unicode="," horiz-adv-x="117" 
d="M-48 -125q-6 7 -7 17q1 2 1 6l3 7q33 78 70 124q2 5 10 11q9 6 19 6q9 0 12 -2q8 -4 12 -10.5t3 -13.5q-3 -12 -8 -21l-15 -28q-32 -65 -38 -78q-5 -11 -11 -17q-16 -16 -35 -11q-10 3 -16 10z" />
    <glyph glyph-name="hyphen" unicode="-" horiz-adv-x="291" 
d="M96 221h-7q-8 0 -20 2q-8 2 -13 7.5t-6 12.5v2q0 12 16 20q15 8 39 11q48 8 92 8q23 0 47 -3q17 -2 28 -8q10 -5 15 -14t3 -19q-6 -20 -31 -20q-19 -1 -33.5 -0.5t-24.5 0.5h-29q-51 2 -76 1z" />
    <glyph glyph-name="period" unicode="." horiz-adv-x="117" 
d="M54 -28q-10 0 -19 6q-15 9 -15 27q0 5 1 8q5 25 26 37q8 4 17 4q14 0 24 -10.5t9 -25.5q-2 -26 -25 -41q-10 -5 -18 -5z" />
    <glyph glyph-name="slash" unicode="/" horiz-adv-x="365" 
d="M53 -118q-3 9 -3 20q1 22 8 45l62 217l42 150l48 165q13 45 42 112q9 18 14 24q12 12 23 12q3 0 9 -2q17 -6 17 -29q0 -15 -8 -41l-99 -355q-34 -125 -67 -232q-19 -60 -37 -89q-7 -13 -20 -16q-22 -3 -31 19z" />
    <glyph glyph-name="zero" unicode="0" horiz-adv-x="375" 
d="M29 -38q-15 32 -19 85v37q0 91 24 169q19 66 44 106q3 3 4 5.5t2 4.5q27 54 60 97q15 20 27.5 32.5t29.5 20.5q22 11 38 11q25 3 43 -12l15 -10q23 -17 36 -46q32 -72 32 -146q0 -23 -3 -46q-6 -46 -12 -67q-18 -72 -34 -107q-41 -91 -109 -150q-39 -33 -86 -37
q-63 -6 -92 53zM197 -10q52 47 84 107q19 36 33 89q9 38 15 80q1 6 3 22t2 29l-1 15q-2 22 -9 48.5t-15 50.5q-1 7 -5 15.5t-6 11.5q-2 5 -8 4q-8 -2 -10 -2q-8 0 -20 6q-5 3 -9 3q-3 0 -9 -4q-16 -10 -25 -21q-25 -35 -42 -65q-14 -28 -20 -37q-25 -41 -45 -101
q-22 -72 -24 -154q0 -28 3 -56t7 -42q4 -16 11 -21t23 -6q36 -1 67 28z" />
    <glyph glyph-name="one" unicode="1" horiz-adv-x="329" 
d="M27 -116q-8 0 -14.5 5t-8.5 13q-4 11 -4 26q0 11 3 23q11 40 32 99q12 30 14 38q19 54 49 122q20 44 78 153l31 57q20 35 23 41q4 6 4 11l-25 -15q-20 -14 -22 -16q-49 -33 -96 -69q-1 -1 -2.5 -2t-3.5 -1q-4 -2 -7 -2q-6 0 -11 5q-3 3 -3 7q0 5 4 10q7 9 17.5 17.5
t14.5 11.5l49 35q41 32 111 78l21 16q10 8 20 8q6 0 12 -3q16 -7 16 -29q0 -12 -5 -27q-12 -34 -30 -66l-2 -5q-13 -28 -54 -108l-14 -26q-50 -97 -80 -169l-23 -62l-10 -29q-13 -36 -28 -80q-11 -28 -15 -34q-9 -17 -29 -29q-5 -4 -12 -4z" />
    <glyph glyph-name="two" unicode="2" horiz-adv-x="435" 
d="M39 -96q-22 0 -33 16q-6 9 -6 20q0 15 10 26l9 9q24 18 44 41q31 36 59 71q50 62 85 110q45 60 69 96q34 48 66 99q24 38 33 59q9 18 12 39q0 2 0.5 6.5t-0.5 7.5q-1 11 -6 16t-16 6q-23 0 -45 -8q-58 -20 -102 -58q-19 -16 -49 -56q-13 -18 -17 -36q-1 -7 -4.5 -10
t-9.5 -3q-11 0 -14 13q-1 3 -1 8q0 14 10 31q46 89 157 135q38 15 68 18q28 3 47.5 -10.5t26.5 -40.5q3 -15 3 -28q0 -16 -5 -36q-10 -44 -29 -77q-3 -4 -5 -11q-22 -46 -66 -114q-29 -46 -74 -106q-20 -28 -62 -82q-6 -6 -7 -11l1.5 -1.5t1.5 -0.5q29 -1 56 -12t58 -31
l26 -18l10 -10q5 -5 5 -13q0 -6 -2 -10q-6 -12 -22 -10q-5 1 -10.5 4t-7.5 4q-34 21 -61 32q-24 10 -50 10q-31 0 -61 -15q-5 -2 -17 -14q-8 -10 -20.5 -22t-19.5 -18q-8 -8 -25 -14q-4 -1 -10 -1z" />
    <glyph glyph-name="three" unicode="3" horiz-adv-x="420" 
d="M117 -102q-20 0 -41 6q-36 11 -56 37.5t-20 59.5q0 40 28 69q23 24 50 23q14 -1 27 -11t17 -24l1 -6q0 -10 -8 -13q-2 -2 -8 -2q-7 0 -13 6l-4 6q-6 9 -13 9q-6 0 -13 -7q-17 -17 -17 -36q0 -5 2 -15q9 -30 40 -36q5 -1 16 -1q13 0 19 2q43 9 77 22.5t63 34.5
q44 30 74 91q21 46 21 80q0 10 -1 15q-3 12 -12.5 18.5t-21.5 3.5q-8 -1 -14 -3t-10 -3q-45 -15 -89 -47l-31 -24q-12 -8 -20 -9q-3 -1 -10 -1q-22 0 -31 17q-5 8 -5 18q0 14 9 26q9 9 24 19l49 36q68 54 112 98q23 24 48 56q7 9 17 29q4 9 4 19q0 15 -9 27.5t-24 17.5
q-18 5 -34 5q-10 0 -15 -1q-28 -4 -66 -20q-54 -25 -92 -64q-14 -14 -20 -26q-4 -6 -8 -8q-5 -3 -8 -3q-10 0 -12 11v5q0 4 2 12q6 13 18 26q33 35 70 56q58 32 107 40q20 2 31 2q9 0 25 -2q47 -9 68 -51q10 -16 10 -35q0 -6 -2 -18q-8 -35 -36 -76l-6 -8q-23 -36 -54 -70
q-1 -1 -3.5 -4.5t-3.5 -7.5l7 -1q28 1 50 -18.5t26 -47.5q3 -18 3 -36q0 -47 -21 -94q0 -2 -5 -11q-33 -71 -99 -115q-52 -33 -128 -45q-15 -3 -31 -3z" />
    <glyph glyph-name="four" unicode="4" horiz-adv-x="387" 
d="M171 -73q-4 8 -4 20q0 30 10 63q4 14 7 20q14 47 30 89q8 22 13 33q2 6 2 9q0 5 -3 9v1q-7 16 -15 21.5t-26 6.5q-10 1 -21 -2t-21 -6q-26 -9 -44 -18.5t-33 -23.5l-11 -12q-6 -8 -10 -11q-6 -5 -17 -5q-10 0 -15 4q-15 9 -13 28q1 6 7 20q28 64 44 96q27 59 54 110
l14 28l16 35q4 8 12.5 28t14.5 37q1 2 3 8.5t1 12.5v2q0 7 5.5 13t12.5 7h4q15 0 18 -17q1 -5 1 -14q0 -7 -2 -21q-8 -48 -27 -93q-3 -5 -5.5 -12t-3.5 -11l-37 -89l-24 -55q-2 -4 -6 -10.5t-5 -12.5h3q6 0 14 4q37 13 62 13q21 0 38 -5t30 -19l17 47l15 42q9 30 16 48
q17 44 29 77l21 57q4 8 6 14t3 10q6 16 20 14q12 -1 15 -18l1 -10q0 -9 -4 -31q-2 -19 -9 -41t-10 -31l-8 -29q-12 -44 -16 -58q-20 -74 -42 -140q-24 -74 -38 -111l-26 -76q-6 -16 -10 -24l-4.5 -9t-4.5 -12q-5 -13 -19 -13q-16 0 -25 13z" />
    <glyph glyph-name="five" unicode="5" horiz-adv-x="434" 
d="M31 -74q-15 10 -23 24.5t-8 31.5q0 19 11 38q14 22 40 37q12 5 21 5q7 0 10 -1q10 -2 16 -10.5t5 -18.5q0 -7 -4 -11.5t-10 -4.5t-10 3q-4 4 -8 4t-7 -5q-8 -8 -11 -16q-2 -6 -2 -8q0 -7 10 -12q8 -5 23 -3q40 1 76 18q44 21 78 59q31 34 46 71q6 14 10 21q18 42 22 59
q5 16 4 28q0 23 -21 33q-9 4 -23 4q-9 0 -14 -1q-15 -2 -41 -12q-60 -25 -102 -63q-26 -22 -37 -41q-5 -9 -14.5 -12.5t-19.5 -1.5q-23 7 -23 31q-1 20 9 44q19 51 33 78q23 45 71 133q7 10 3 19q-1 2 -1 5q0 9 9 16q20 14 26 20q5 5 15 5h3q7 0 16 3q95 24 155 31
q10 1 24 1h20q4 0 10 -2q16 -4 16 -20q-2 -15 -18 -18q-24 -4 -74 -10q-78 -10 -117 -21q-2 0 -5 -1t-5 -1q-7 -1 -9 -10q-8 -30 -19.5 -59t-23 -54t-15.5 -33l-18 -44l2 -2l29 15q49 25 92 33q12 2 20 2q12 0 24 -3q46 -11 62 -54q8 -23 8 -50q0 -19 -3 -37
q-10 -70 -55 -132q-55 -75 -133 -103q-44 -16 -77 -16q-7 0 -23 2q-23 3 -45 17z" />
    <glyph glyph-name="six" unicode="6" horiz-adv-x="351" 
d="M94 -115q-20 0 -42 14q-41 26 -49 79q-3 19 -3 39q0 42 12 84q20 69 51 131l3 6q18 42 60 122q37 71 82 132q35 45 75 76q8 6 24 16q11 6 23 5q16 -3 20 -17q1 -3 1 -8q0 -10 -8 -17q-37 -32 -74 -90q-49 -75 -88 -155l-36 -75l-6 -15q6 3 20 9t26 8q4 1 12 1
q21 0 37 -15q23 -21 26 -53q3 -50 -12 -98q-20 -60 -67 -124q-25 -32 -50 -45q-22 -10 -37 -10zM145 -49q37 44 56 82q27 56 27 104v17q-1 22 -22 38q-8 5 -15 4q-20 -4 -33.5 -10t-22.5 -20q-7 -9 -15 -8q-7 0 -9 -7l-9 -22q-20 -40 -35 -97q-4 -15 -7 -31.5t-2 -30.5
q1 -21 16 -37q12 -12 24 -12q7 0 17 5q17 8 30 25z" />
    <glyph glyph-name="seven" unicode="7" horiz-adv-x="327" 
d="M0 -63q0 18 5 29q14 44 25 64l1 3q16 41 62 135q0 1 1.5 4t1.5 7l-19 -4q-12 -2 -18 -1q-11 4 -13 12v3q0 9 6 13q3 3 7.5 4.5t6.5 2.5q23 8 45 12q10 1 16 12q27 51 50 89q40 71 71 115q1 2 2 3.5t1 3.5q-1 2 -3.5 1.5t-3.5 -0.5q-18 -2 -29 -4q-84 -10 -126 -10
q-30 0 -63 11q-20 6 -17 21t25 13l31 -6q16 -2 25 -2q15 0 25.5 1t18.5 2q68 6 134 18q6 1 23 5q3 1 9 1q12 0 19.5 -8t7.5 -22q0 -11 -3 -22q-10 -29 -27 -58l-7 -11q-8 -16 -48 -88l-24 -44q-1 -1 1 -4q1 -1 5 -1l10 1q9 -1 14.5 -5t5.5 -11q0 -8 -5 -13t-13 -6
q-12 0 -34 -4q-7 -1 -11 -8q-1 -3 -11 -20l-14 -28q-37 -76 -58 -126q-22 -50 -31 -76q-5 -16 -20 -29q-12 -9 -24 -9q-7 0 -14 3q-17 8 -19 31z" />
    <glyph glyph-name="eight" unicode="8" horiz-adv-x="409" 
d="M42 -92q-18 12 -30 32.5t-12 41.5q0 14 4 23q22 68 64 106q28 24 52 42l23 18q33 25 46 36q7 7 3 15l-33 67q-26 50 -26 99q0 15 3 30q6 34 26 59q24 31 36 41q42 37 116 39q39 0 70 -26q10 -8 14 -14q13 -21 10 -44q-5 -34 -19 -63l-4 -10q-22 -56 -75 -114l-14 -15
q-4 -4 -11 -11.5t-13 -12.5q-3 -2 -3 -6q0 -5 3 -8q9 -17 23 -53q7 -18 14 -49q4 -15 4 -32q0 -22 -7 -52q-14 -54 -38 -88q-24 -37 -58 -55.5t-73 -20.5q-57 0 -95 25zM189 -21q31 35 43 94q3 12 3 24q0 17 -5 35q-7 21 -16 42q-5 13 -8 13q-1 0 -11 -8l-31 -24
q-56 -42 -81 -67q-37 -35 -51 -89l-2 -8q-2 -23 17 -39q20 -17 53 -17q54 3 89 44zM261.5 274.5q2.5 3.5 3.5 4.5q19 17 45 50q50 60 65 138q1 4 1 12q0 21 -23 35q-26 13 -49 10q-6 0 -9 -1.5t-4 -7.5q-3 -9 -11 -9q-5 0 -8 3q-5 3 -9 3q-6 0 -10 -3q-13 -6 -21 -16
q-31 -39 -31 -81q0 -15 2 -23q6 -29 18 -54.5t34 -64.5q4 1 6.5 4.5z" />
    <glyph glyph-name="nine" unicode="9" horiz-adv-x="381" 
d="M85 -120q-23 0 -43 13q-16 11 -25 21q-13 13 -16 33q-1 7 -1 19q0 47 29 94q6 9 17 14q3 2 9 2t9 -4q2 -4 2 -7q0 -6 -7 -10q-10 -7 -17 -24q-12 -36 -12 -56q0 -6 2 -18q3 -14 15 -25t26 -12q6 0 14 4q47 24 67 62q27 51 39 87q27 83 49 149q6 20 10 29q18 54 25 82
q0 2 2 6t1 8q-2 0 -4 -3q-10 -17 -28 -38q-12 -14 -17 -21q-18 -25 -47 -58q-28 -30 -53 -46q-16 -10 -32 -10q-17 0 -29.5 11.5t-18.5 33.5q-4 15 -4 34q0 18 5 40q17 66 46 113q2 4 4 6q23 42 64 90q28 35 59 45q12 4 19 4q12 0 22 -6q5 -2 18 -10q14 -10 19 -30
q1 -5 1 -15q0 -12 -4 -36q0 -2 -1.5 -5.5t-0.5 -6.5q6 8 18 21.5t17 25.5q9 18 27 15q17 -3 20 -23l1 -9q0 -9 -4 -29q-16 -97 -47 -198l-15 -47q-5 -15 -10.5 -32t-12.5 -36l-14 -42q-4 -15 -14 -43q-13 -36 -26 -58q-43 -83 -135 -102q-12 -2 -18 -2zM127 234q13 7 35 27
q13 11 26.5 27.5t19.5 22.5q47 50 71 95q1 1 2.5 4t0.5 6q-9 2 -13 4.5t-4 8.5l2 12l3 9q4 18 4 29q0 7 -1 11q-1 10 -8 16.5t-16 6.5t-16 -6q-6 -5 -11 -11q-10 -14 -14 -22q-46 -82 -66 -137q-18 -50 -22 -77q-2 -14 -2 -20q0 -5 1 -8q3 -1 8 2z" />
    <glyph glyph-name="colon" unicode=":" horiz-adv-x="201" 
d="M54 -28q-10 0 -19 6q-15 9 -15 27q0 5 1 8q5 25 26 37q8 4 17 4q14 0 24 -10.5t9 -25.5q-2 -26 -25 -41q-10 -5 -18 -5zM103 179q-10 0 -18.5 7.5t-9.5 18.5q-2 20 13.5 37.5t34.5 17.5q13 0 21.5 -10t6.5 -23q-6 -32 -36 -45q-6 -3 -12 -3z" />
    <glyph glyph-name="semicolon" unicode=";" horiz-adv-x="258" 
d="M55.5 -133q-5.5 8 -5.5 20v2q2 35 12.5 69t27.5 73q5 9 12 13q9 6 17 6q9 0 16.5 -5.5t9.5 -15.5t1 -14l-5 -22q-9 -41 -17 -67.5t-22 -51.5q-12 -22 -32 -17q-9 2 -14.5 10zM123 207q0 29 21 44q12 9 25 9q9 0 19 -6q11 -7 16 -18t3 -24q-3 -19 -15 -31q-15 -16 -33 -16
q-9 0 -13 2q-23 9 -23 40z" />
    <glyph glyph-name="less" unicode="&#x3c;" horiz-adv-x="286" 
d="M163 136l-22 23q-19 21 -46 25l-19 4q-12 4 -19 13t-7 20t6 21q3 6 14 17q47 41 108 74q12 6 18 6h4q13 0 19 -10q4 -5 4 -13t-4 -13l-12 -14l-52 -51l-11 -11q31 -23 66 -64l15 -16q0 -2 2 -2q9 -9 9 -17q0 -4 -3 -9q-7 -10 -18 -10q-2 0 -10 2q-25 8 -42 25z" />
    <glyph glyph-name="equal" unicode="=" horiz-adv-x="357" 
d="M51 151q-1 2 -1 7q0 9 7 16q7 6 15 9q29 12 87 23t89 10h27q8 0 12 -1q9 -2 14.5 -8.5t5.5 -14.5t-5 -14.5t-14 -8.5q-6 -2 -20 -4q-118 -14 -178 -27q-14 -2 -20 -1q-14 2 -19 14zM70 254q-1 2 -1 6q0 11 10 18q9 6 20 9q49 14 133 23q21 0 34 -10q10 -9 10 -19
q0 -14 -16 -20q-14 -6 -32 -8t-22 -2q-49 -3 -86 -10q-25 -3 -31 -2q-15 2 -19 15z" />
    <glyph glyph-name="greater" unicode="&#x3e;" horiz-adv-x="267" 
d="M50 114q0 8 5 18q9 20 24 36q28 32 55 53l10 10l-25 18q-31 24 -50 47l-7 9q-4 5 -4 13q0 7 5 14q6 9 17 9q3 0 9 -2q6 -1 14 -7q22 -22 65 -50l27 -18q3 -3 6 -4.5t5 -3.5q11 -10 11 -23q0 -12 -8 -20l-9 -8q-39 -36 -75 -75q-20 -20 -31 -29q-11 -10 -23 -10
q-6 0 -13 5q-8 8 -8 18z" />
    <glyph glyph-name="question" unicode="?" horiz-adv-x="548" 
d="M111 118q-9 6 -12 16q-3 8 -1 19q7 50 25 88q34 69 90 134q42 50 104 110q49 47 81 87q18 21 31 48q6 14 6 23q0 23 -32 29q-8 2 -20 2q-46 -1 -100 -24q-104 -46 -181 -139q-34 -42 -43 -91q-3 -14 -15 -16h-2q-11 0 -14 13q-1 4 -1 12q0 13 4 24q15 55 60 104
q77 85 175 130q46 21 88 29q26 4 39 4q21 0 40 -6q28 -9 43.5 -29t15.5 -48q0 -15 -2 -23q-10 -44 -40 -87q-32 -45 -64 -81l-86 -100q-70 -80 -103 -153q-10 -22 -26 -41q-4 -5 -8 -15q-9 -24 -33 -24q-10 -1 -19 5zM54.5 -5q-5.5 8 -5.5 18q0 4 2 12q4 15 15.5 24.5
t25.5 9.5q12 0 19.5 -8t7.5 -20q0 -6 -1 -9q-2 -11 -5 -15q-4 -11 -14 -17.5t-21 -6.5q-5 0 -8 1q-10 3 -15.5 11z" />
    <glyph glyph-name="at" unicode="@" horiz-adv-x="508" 
d="M207 -94q-63 0 -105 52q-45 59 -51 137q-1 10 -1 28q0 138 95 236q36 36 86 58q27 11 50 11q24 0 49 -11q13 -5 22 -10q74 -33 77 -119q4 -113 -86 -189q-10 -9 -26 -16q-9 -3 -16 -3q-15 0 -25.5 9.5t-14.5 25.5q-1 6 -0.5 15t-0.5 16q-6 -3 -12 -8.5t-9 -8.5
q-5 -4 -15.5 -13t-20.5 -13q-12 -5 -20 -5q-13 0 -22.5 9t-12.5 24q-1 5 -1 14t2 23q11 56 40 101q18 27 41 40q16 8 30 8q18 0 31.5 -12.5t17.5 -34.5q1 -7 1 -21q0 -2 0.5 -7t4.5 -7q13 -10 13 -27q0 -6 -2 -16q-3 -14 -12 -47q31 22 48.5 58t17.5 74q0 24 -8 46
q-6 18 -22 28q-27 17 -51 25q-9 3 -18 3q-13 0 -26 -5q-37 -13 -69 -43q-93 -93 -85 -225q3 -57 33 -108q26 -44 76 -44q11 0 17 1q35 6 68 26q39 25 67.5 50t48.5 57q6 9 14 17q7 5 14 5q6 0 11 -4q8 -6 8 -15q0 -3 -2 -9l-4 -8q-52 -80 -123 -127q-49 -33 -101 -40
q-7 -1 -21 -1zM259 216q4 4 4 11l-2 25q0 4 -3 7h-2q-3 0 -7 -4q-13 -14 -21.5 -32t-16.5 -42q2 -2 4 -2z" />
    <glyph glyph-name="A" unicode="A" horiz-adv-x="431" 
d="M277 -68q-5 18 -3 46q2 29 14 87l4 20q19 89 68 217q1 2 3 6.5t2 8.5q-2 1 -5 1t-9 -2q-34 -6 -102 -20q-13 -3 -21 -14q-90 -114 -167 -266q-3 -6 -15 -28t-18 -42q-5 -14 -17 -11q-5 1 -8.5 6t-2.5 12q1 6 5 18q10 29 34 75q66 129 137 224l5 7h-4q-7 0 -13 -2
q-54 -15 -84 -26l-10 -3h-2q-10 0 -15 9l-1 5q0 6 7 13q5 4 17 8q70 26 131 41q11 3 20 13q43 52 78 91.5t73 73.5q32 29 59 48q17 12 34 16q3 1 10 1q16 0 26 -10t11 -28q1 -14 -6 -36q-11 -35 -39 -105q-1 -2 -2.5 -6t-0.5 -8h5l19 1q34 4 52 4q17 0 25 -6q7 -4 9 -9.5
t0 -10.5q-5 -11 -19 -8q-4 1 -13 1q-8 0 -13 -1l-74 -9q-9 -1 -13 -10q-37 -95 -61 -172.5t-36 -155.5q-2 -13 -8 -37q-2 -16 -2 -24q2 -15 -9 -24.5t-26 -5.5q-21 4 -29 27zM292 342q44 10 79 14q12 1 18 14q35 85 63 135l1.5 2.5t-1.5 5.5q-45 -32 -84 -71.5t-91 -99.5
l1 -3z" />
    <glyph glyph-name="B" unicode="B" horiz-adv-x="448" 
d="M108.5 -86.5q-15.5 17.5 -15.5 42.5l1 11q6 40 35 71q18 20 45 20h10q15 0 30 -3q14 -4 21 -8q9 -5 12 -14q1 -2 1 -5q0 -8 -6 -11q-3 -3 -7 -3t-8 3q-13 9 -31 9q-9 0 -15 -1t-10 -2q-6 -1 -12 -7q-19 -22 -22 -47v-5q0 -14 17 -10l11 3q82 32 131 81q33 33 53 78
q8 20 11 38q1 15 -6 26.5t-21 16.5q-16 6 -32 6t-36 -5q-3 -1 -10 -8l-30 -21q-17 -7 -22 -8q-15 -2 -26.5 7.5t-11.5 24.5q0 3 2 11q4 10 12 20q-1 -1 26 23q86 74 142 124.5t109 105.5q1 1 31 34q10 12 12 19q2 6 2 7q0 10 -14 10h-5q-8 0 -22 -4q-17 -5 -39 -17
q-40 -23 -92 -66q-120 -102 -214 -259l-28 -49q-25 -42 -35 -97q-1 -4 -2 -9.5t-4 -12.5q-4 -13 -15 -14h-3q-10 0 -17 10q-8 12 -9 27q-2 16 -2 24q0 14 1 24.5t2 18.5q8 91 50 221q13 45 33 92q8 18 21 38q6 10 15 16q8 5 16 5q16 0 24 -18q4 -10 5 -15l1 -5q0 -6 -4 -10
q-6 -6 -9 -16t-5 -14q-10 -30 -28 -90l-20 -68q-4 -8 -2 -14q4 2 6 6.5t3 6.5q98 154 238 262q37 28 63 42q27 15 57 21q18 3 32 2q20 -2 33 -14t15 -32q3 -24 -7 -48q-11 -27 -38 -62q-33 -45 -85 -92l-93 -85q-1 -1 -4.5 -4t-4.5 -7q2 -2 4.5 -2h3.5q40 -6 64 -33t26 -67
q1 -45 -19 -87q-19 -38 -55 -74q-57 -55 -125 -78q-27 -9 -48 -9q-10 0 -15 1q-27 4 -42.5 21.5z" />
    <glyph glyph-name="C" unicode="C" horiz-adv-x="348" 
d="M46.5 -66.5q-24.5 16.5 -35.5 48.5q-11 29 -11 63t13 82q20 74 57 140q84 147 216 266q27 26 60 39q13 5 23 5q20 0 33 -14.5t15 -34.5q2 -21 -4 -65q-12 -75 -51 -156q-5 -9 -9 -16t-7 -12q-9 -12 -18 -6q-5 3 -5 9t2 9q19 35 34 74q28 76 27 151q0 2 -1 10.5t-8 12.5
q-2 1 -5 1q-5 0 -10 -3.5t-8 -4.5q-23 -17 -38 -34q-121 -134 -183 -259q-42 -85 -57 -167q-3 -21 -3 -42q0 -15 1 -23q2 -12 4 -16q9 -24 34 -25q31 0 52 11q23 11 30 17q36 25 59 43t43 40l6 5q4 2 6 2q5 0 8 -3q7 -6 4 -14q0 -2 -6 -10q-12 -16 -27 -30q-42 -39 -97 -78
q-39 -28 -85 -31q-34 -1 -58.5 15.5z" />
    <glyph glyph-name="D" unicode="D" horiz-adv-x="502" 
d="M197 -90q-14 10 -20 29q-5 12 -5 30q0 13 3 27q9 35 31 63q29 38 67 66q18 12 30 15q8 2 11 2q7 0 13 -3q9 -4 9 -15q-2 -11 -13 -11q-14 -1 -30 -15q-43 -36 -60 -71q-11 -23 -13 -41l-1 -6v-5q0 -10 4 -12q1 -1 3 -1q3 0 6.5 2.5t4.5 3.5q34 20 66 54q33 34 52 64
q71 110 111 225q16 48 21 99q1 7 1 21q0 13 -2 20q-2 10 -7.5 14t-15.5 4t-28 -6q-25 -10 -51 -26q-52 -34 -89 -71q-137 -136 -217 -304q-21 -45 -28 -79q-2 -13 -14 -13q-2 0 -4.5 -1.5t-4.5 -2.5q-8 -4 -11 -4q-5 0 -9.5 4.5t-5.5 11.5l-1 10l1 11q3 36 17 103
q32 159 122 358q9 18 26 41l9 9q12 10 23 10q2 0 10 -2q16 -8 18 -30v-2q0 -10 -10 -17q-4 -2 -8 -11q-8 -26 -27 -66q-55 -114 -89 -224q-2 -4 -4 -12v-3q5 3 9 13q75 127 171 224q70 69 145 104q27 12 47 16q5 1 15 1q42 0 60 -41q17 -38 17 -85q0 -11 -2 -31
q-5 -41 -24 -92q-39 -104 -103 -208q-29 -46 -66 -83q-40 -38 -83 -59q-24 -11 -43 -11q-20 -1 -34 9z" />
    <glyph glyph-name="E" unicode="E" horiz-adv-x="354" 
d="M43 -137q-25 0 -36 27q-5 16 -7 37q-1 37 12 97q22 99 81 215q40 82 91 158q1 1 2.5 3t1.5 4q0 1 -1 2t-2 1q-15 5 -15 16q0 6 6 13l10 10q21 16 23 17q120 84 266 136l19 6q8 2 14 1q12 -2 15 -12q1 -2 1 -7q0 -8 -6 -13q-1 -1 -11 -6q-121 -50 -188 -84q-5 -3 -13 -11
l-15 -23q-6 -7 -16 -23q-76 -121 -125 -228q-5 -10 -5 -14q4 0 10 4q47 29 124 66q16 7 20 8h5q13 0 17 -12q1 -2 1 -5q0 -9 -12 -17q-91 -46 -184 -102q-8 -4 -12 -12q-20 -54 -33.5 -96t-21.5 -84q-2 -12 -1 -20l3 -1q5 0 9 4q22 12 48 29l31 20q42 29 79 51q36 22 58 31
q10 4 15 4h2q7 0 12 -7q1 -2 1 -5q0 -7 -6 -12l-5 -4q-39 -20 -80 -49t-51 -36l-23 -16l-17 -12q-33 -25 -47 -33q-15 -9 -26 -13q-9 -3 -18 -3z" />
    <glyph glyph-name="F" unicode="F" horiz-adv-x="266" 
d="M8.5 -66q-6.5 7 -7.5 18q-1 5 -1 15q0 18 6 33q11 32 14 41q9 23 11 29q36 96 53 144q0 1 1.5 3t-0.5 4h-2q-2 0 -11 -3l-16 -4h-2q-12 0 -16 11q-1 2 -1 5q0 9 8 15l9 5q5 2 31 15t28 16l3 6q50 112 89 184q2 4 2 6q-2 2 -6 0q-74 -25 -123 -48l-24 -13q-6 -3 -11 -3
q-7 0 -12 5q-3 5 -3 10q0 8 6 14q5 6 19 14q22 14 70 34q49 19 107 40q11 3 17 13q6 11 13 19q10 14 21 11q12 -3 15 -17l1 -2h2q4 0 6.5 1t4.5 2q67 21 169 44q13 3 23 4t16 2q4 1 11 1q13 -1 16 -14l1 -5q0 -9 -8 -15q-7 -4 -17 -6q-26 -7 -78 -19q-103 -25 -151 -41
q-11 -4 -13 -11q-3 -9 -20 -47q-8 -18 -24 -57.5t-27 -69.5q-1 -2 -4 -10q3 -2 6.5 -0.5t4.5 1.5q40 15 122 33q10 2 14 1q12 -2 16 -14v-3q0 -10 -8 -15q-3 -3 -8 -4.5t-7 -2.5l-45 -15q-16 -5 -48.5 -15.5t-57.5 -17.5q-14 -5 -19 -19q-16 -37 -42 -113l-21 -59
q-15 -38 -31 -83q-4 -11 -10.5 -24.5t-10.5 -20.5q-5 -10 -14.5 -14.5t-19.5 -2.5t-16.5 9z" />
    <glyph glyph-name="G" unicode="G" horiz-adv-x="388" 
d="M51 -104.5q-25 16.5 -38 47.5q-11 29 -13 63q-2 62 17 147q41 172 167 327q51 61 128 98q28 12 44 15l12 2q33 2 51 -14t19 -49q3 -50 -22 -93q-40 -68 -109 -99q-24 -10 -38 -11l-8 -1q-9 0 -16 4q-5 3 -6.5 8t-0.5 9q3 9 14 8h5q8 0 22 4q85 34 116 116q7 18 7 38
q0 11 -1 17q-2 12 -7.5 16t-17.5 2q-13 -2 -35 -14q-46 -26 -82 -70q-55 -65 -108 -166q-52 -96 -71 -212q-5 -33 -5 -61q0 -19 1 -29q3 -18 3 -19q4 -23 15 -33.5t31 -10.5q8 0 13 1q25 3 53 19q35 21 61 48q34 36 40 81q1 5 1 15q0 16 -5 26q-5 9 -11 13.5t-16 3.5h-13
q-20 2 -22 20v2q0 7 5.5 12t13.5 7q42 6 62 6q25 0 38 3q3 1 8 1q9 0 15 -5.5t8 -13.5q3 -10 -3 -18t-17 -12q-15 -4 -35 -4q0 2 7 -24q2 -14 2 -20q0 -20 -9 -51q-17 -55 -72 -103.5t-111 -59.5q-15 -3 -29 -3q-33 0 -58 16.5z" />
    <glyph glyph-name="H" unicode="H" horiz-adv-x="471" 
d="M266 -100q-1 4 -1 13t2 27q16 107 63 214l47 112q2 4 2 6l1 4q0 8 -11 5q-39 -14 -50 -17q-10 -4 -45.5 -16t-64.5 -25q-12 -4 -16 -16q-48 -115 -72 -215q-2 -7 -3.5 -15t-3.5 -15q0 -2 -1 -8.5t-4 -10.5q-9 -15 -19 -15q-9 0 -21 12q-8 7 -12 27q-3 15 -3 29q0 15 4 41
q6 35 19 72t15 44q1 2 2.5 5.5t1.5 5.5l-2 1q-46 -23 -67 -44q-8 -7 -12.5 -8.5t-9.5 2.5q-5 5 -5 11t4 13q5 8 20 19q28 21 78 47q14 7 20 23q56 130 111 226q23 40 46 72q12 12 15 14q8 5 15 5q4 0 10 -3q12 -7 10 -23q-1 -6 -3 -13.5t-3 -11.5q-10 -29 -26 -59l-15 -31
q-34 -71 -59 -128l-6 -14q2 -3 4 -2t3 1q42 17 128 45l48 16q8 3 14 10l22 28q7 9 28 35.5t36 49.5q34 51 79 94q7 8 23 22q2 2 12 7q3 1 7 1q7 0 14 -5q8 -8 5 -22q-1 -4 -8 -15l-100 -160q-5 -7 -5 -11h3q4 0 10.5 1.5t9.5 2.5q7 1 13.5 2.5t13.5 2.5q8 2 22 2
q16 -2 17 -12q0 -12 -14 -15q-18 -5 -49 -10q-26 -6 -39 -8q-12 -1 -17 -11q-101 -163 -140 -299q-6 -22 -15 -41q-13 -30 -20 -54q-3 -12 -1 -19q3 -14 -6 -22.5t-23 -4.5q-20 6 -26 29z" />
    <glyph glyph-name="I" unicode="I" horiz-adv-x="257" 
d="M2 -110q-2 4 -2 7q0 4 4 10q5 7 15 10l34 15q8 3 8 12q-1 57 31 134q23 58 41 94l38 76l18 35q35 69 45 89q9 20 33 56q12 20 25 32q4 3 7 10q-6 0 -13 -2.5t-10 -3.5q-4 -2 -12 -2q-9 0 -14 8q-2 6 -2 8q0 5 3.5 10.5t10.5 8.5q38 18 60 21q22 2 58 8h11q7 0 10 -1
q14 -5 16 -17q0 -13 -13 -20q-5 -2 -17 -4q-8 0 -13 -1q-10 0 -14 -2q-3 -1 -3 -5.5t-1 -7.5l-6 -14l-22 -47q-60 -130 -109 -227q-29 -57 -54 -122l-8 -20q-19 -51 -38 -87l21 3q14 2 20 2q19 -2 22 -17v-4q0 -6 -4.5 -11.5t-12.5 -7.5q-9 -3 -28 -5q-28 -1 -73 -16
l-38 -12q-4 -1 -11 -1q-10 0 -13 8z" />
    <glyph glyph-name="J" unicode="J" horiz-adv-x="324" 
d="M14 -96q-16 18 -14 44q3 33 23 62q17 23 39 38q60 43 123 61q10 4 13 13q24 52 42 100l33 87q18 51 44 119q2 6 2.5 10.5t0.5 7.5q2 8 6 18.5t6 15.5q4 10 4 15h-3q-5 0 -13 -4q-18 -7 -33 -8h-4q-10 0 -13 8q-1 2 -1 5q0 7 9 13q41 23 79 31q10 2 24 3.5t22 2.5l24 3h5
q7 0 13 -3q9 -4 9 -13q0 -8 -8 -14q-6 -4 -14 -6l-24 -2q-2 0 -7.5 -1t-10.5 -3q6 -16 6 -34q0 -13 -6 -43q-10 -40 -35 -108q-46 -132 -73 -196q-31 -73 -61 -120q-27 -42 -53 -68q-31 -31 -69 -47q-23 -8 -44 -7q-25 2 -41 20zM74 -54q59 56 96 120q3 6 3 10
q-35 -15 -60.5 -29.5t-46.5 -33.5q-21 -20 -29 -48q-4 -12 -3 -18q3 -15 16 -15q2 0 8 2q8 4 16 12z" />
    <glyph glyph-name="K" unicode="K" horiz-adv-x="431" 
d="M26 -104q-10 0 -17.5 6t-8.5 16v4q0 10 3 19q9 39 33 97q24 56 64 140l108 220q31 66 77 125l12 15q5 5 12 8q6 3 12 3q5 0 10 -3q10 -7 7 -21q-3 -19 -11 -40l-21 -45l-95 -201l-3 -10q4 1 13 8q84 65 171 126q25 17 50 38q38 30 58 43q15 11 45 31q15 9 27 13q4 1 10 1
q12 0 16 -7q3 -4 3 -9q0 -8 -8 -18q-2 -4 -18 -19l-94 -79q-150 -127 -232 -191q-7 -5 -9 -9q4 -3 15 -5q55 -12 83 -63q14 -25 20 -46q18 -58 26 -109q2 -12 0 -18q-3 -10 -10 -14q-8 -4 -11 -4q-7 0 -11.5 4.5t-5.5 12.5q0 13 -5 30q-17 53 -34 92q-12 24 -20 35
q-16 19 -39 25q-26 6 -52 6q-10 0 -18 -9q-76 -99 -110 -159l-15 -23q-5 -6 -11 -11t-16 -5z" />
    <glyph glyph-name="L" unicode="L" horiz-adv-x="385" 
d="M42 -134q-16 0 -28 11t-14 32q-1 26 5 55q6 36 21 71q48 116 115 215q100 147 186 248l27 33q18 25 37 46l7.5 7.5t9.5 6.5q6 2 9 2q9 0 15 -9q3 -7 3 -14t-1 -10q-4 -13 -13 -30q-17 -30 -55 -86q-42 -63 -87 -126q-12 -18 -29 -42t-38 -55q-72 -103 -115 -211
q-17 -40 -25 -72q0 -2 -1.5 -5.5t-0.5 -7.5q7 1 15 6q80 34 151 52q47 11 88 10q3 0 9 -1t10 -2q6 -1 11 -5q10 -6 6 -17q-5 -8 -15 -7q-18 2 -28 2q-40 0 -89 -17q-72 -23 -135 -61q-25 -14 -36 -17q-10 -2 -15 -2z" />
    <glyph glyph-name="M" unicode="M" horiz-adv-x="605" 
d="M422 -84.5q-7 7.5 -8 20.5q0 31 5 54q26 101 74 204q60 131 118 234l12 24q0 2 -1 3q-5 -1 -13 -7q-25 -18 -60 -55q-105 -111 -207 -274q-48 -80 -66 -123q-4 -11 -12 -22q-5 -8 -13.5 -11t-17.5 -1q-18 4 -21 25l-1 9q0 4 2 12q7 45 26 88q79 195 158 328l14 25v3h-2
q-2 0 -8 -4q-34 -23 -69 -62q-56 -60 -123 -155q-31 -44 -102 -158l-17 -28q-8 -14 -26 -42q-6 -9 -14 -17t-20 -8q-9 0 -16.5 5.5t-10.5 15.5q-3 8 -3 25q2 20 12 58q42 159 100 266q20 36 31 53q10 14 17 21q5 5 11 8q6 2 9 2q8 0 12 -4q9 -6 6 -18t-7 -19
q-47 -113 -72 -188l-24 -72q-3 -8 -2 -13l10 14q95 140 165 226q50 60 90 97q32 28 63 46q12 6 18 7q26 5 34 -21q2 -5 2 -15q0 -8 -1 -12q-4 -22 -16 -52q-15 -40 -41 -91l-16 -35q-4 -8 -10 -24q6 4 11 12q59 80 109 135q38 43 75 73q19 17 37 25q12 6 24 6q15 0 26 -11
t12 -30v-6q0 -10 -4 -30q-4 -17 -21 -54q-64 -138 -97 -207q-39 -84 -77 -189q-10 -28 -18 -41q-3 -4 -3 -12q2 -10 -5 -17t-19 -6q-12 2 -19 9.5z" />
    <glyph glyph-name="N" unicode="N" horiz-adv-x="416" 
d="M259 -63q-9 18 -11 50q-1 7 -1 21q0 36 12 84q29 116 100 255q35 66 80 141l8 14q-6 -1 -8.5 -4t-3.5 -4q-46 -48 -92 -106q-104 -129 -250 -342q-11 -19 -26 -38q-8 -10 -13 -14q-11 -8 -22 -8t-19.5 7.5t-11.5 19.5q-1 4 -1 11q0 11 3 20q42 162 101 268q36 64 57 93
q10 14 16 20q10 8 19 8q5 0 13 -4q11 -6 11 -20q0 -4 -2 -10l-11 -25q-47 -97 -82 -184l-6 -17q5 3 7.5 6.5t3.5 4.5l162 211q61 79 136 152q24 22 47 40q14 10 26 14q8 2 13 2q14 0 23.5 -10t8.5 -26q0 -13 -7 -29q-12 -34 -34 -75l-57 -107q-66 -121 -97 -215
q-12 -39 -29 -106l-6 -25q-5 -18 -5 -42q0 -13 9 -18q18 -10 13 -27t-27 -17q-34 2 -47 31z" />
    <glyph glyph-name="O" unicode="O" horiz-adv-x="378" 
d="M108 -71q-29 0 -53 14.5t-38 41.5q-15 31 -17 76v14q1 54 18 119q25 98 71 178q15 28 31 47q13 16 24 22q12 5 19 20q23 41 49 71q27 29 56 44q25 13 49 13q26 0 47.5 -14t34.5 -40q19 -38 19 -81q1 -65 -14 -133q-16 -80 -44 -146q-40 -104 -115 -177q-38 -40 -87 -59
q-16 -7 -34 -9q-5 -1 -16 -1zM160 -6q47 21 80 59q53 59 89 137q33 68 50 170q1 6 5 31.5t4 48.5q0 12 -1 18q-4 38 -16 63q-8 18 -22 27t-32 9q-14 0 -29 -6q-22 -9 -43 -30q-27 -26 -56 -73q-3 -7 -1 -12q4 -5 4 -12q0 -6 -4 -14l-36 -71q-31 -64 -49 -120
q-27 -83 -28 -153q0 -37 6 -55q5 -16 14.5 -23t26.5 -5q18 3 38 11z" />
    <glyph glyph-name="P" unicode="P" horiz-adv-x="490" 
d="M27 -73q-8 0 -14.5 5.5t-9.5 14.5q-3 10 -3 22l1 18q3 38 18 86q18 54 44 113q71 155 133 253q23 35 33 48q14 18 22 25q10 8 16 10q3 1 8 1q8 0 13 -6.5t4 -16.5q-1 -6 -8 -20l-87 -182l-39 -83q-6 -10 -6 -17q0 -2 4 -18q3 1 5.5 5t3.5 6q66 115 167 212q56 55 121 80
q10 5 32 11q11 2 31 2q29 -3 46 -21t18 -46q1 -35 -13 -70q-43 -109 -123 -175q-82 -66 -174 -93q-24 -6 -36 -7q-8 -1 -22 -1q-16 0 -30 4t-31 15q-5 -5 -9 -17q-48 -87 -83 -134q-6 -9 -12 -15q-9 -9 -20 -9zM92 58q5 8 24 44l12 22q2 4 2 6q0 4 -6 12q-24 -54 -36 -84
l2 -1zM223 138q31 7 71 30q67 39 120 89q60 56 104 162q3 6 5 20q0 11 -9 15q-5 2 -14 2h-4q-9 0 -29 -6q-59 -20 -112 -69q-111 -102 -176 -224l-5 -8q-2 -6 4 -9q6 -4 21 -4q8 0 24 2z" />
    <glyph glyph-name="Q" unicode="Q" horiz-adv-x="387" 
d="M132 -97q-35 0 -56 30q-7 9 -10 9t-11 -5q-20 -14 -29 -17l-8 -4q-2 -1 -5 -1q-5 0 -10 5t-2 15q2 4 8 10q21 22 39 31q7 4 6 11q-1 8 -1 23q0 30 9 71q25 118 78 215q26 47 47 79q26 42 72 80q23 18 46 25q6 2 17 2q23 0 42 -18q16 -18 25 -47q5 -20 7 -47q1 -16 1 -48
q0 -62 -11 -113q-13 -56 -43 -112q-29 -53 -62 -93q-1 -1 -3.5 -4t-3.5 -7q5 -2 11 -5l12 -6q12 -6 18 -11q8 -7 8 -16q0 -7 -3 -11q-7 -10 -18 -10q-5 0 -11 3q-22 11 -43 18q-2 1 -6 1t-11 -5q-14 -14 -35 -27q-23 -15 -45 -19q-12 -2 -19 -2zM142 -40q8 0 20 5
q-5 1 -13 1t-15 -5q3 -1 8 -1zM181 8q10 0 30 -2h4q9 0 16 7q56 65 87 121q18 32 30 79q7 34 11 102l1 24q0 33 -8 68q-3 16 -11 28q-10 13 -25 9q-5 -1 -13 -5q-25 -13 -56 -44q-5 -4 -2 -8q3 -6 3 -12q0 -8 -6 -22q-44 -85 -76 -178q-30 -82 -40 -161v-6q0 -4 2 -4.5
t8 0.5q30 4 45 4z" />
    <glyph glyph-name="R" unicode="R" horiz-adv-x="413" 
d="M281 -121q-3 10 -3 23q-2 44 -8 65q-14 59 -66 80q-31 14 -53 18q-31 3 -40 29q-2 10 -2 13q0 18 18 36l7 7l85 72q107 89 141 115l66 51l38 29q50 40 73 63q12 10 24 28q6 10 7 15q1 2 1 6q0 5 -8 8q-11 4 -28 2q-22 -4 -45 -14q-55 -23 -123 -80q-150 -131 -260 -305
q-12 -18 -32 -56q-14 -27 -18 -56q-1 -11 -5 -28q-1 -5 -5 -13q-6 -11 -17 -11q-10 0 -16 9q-5 7 -9 27q-3 18 -3 36t4 50q9 60 26 125q23 82 78 179l30 46q11 18 26 27q10 7 21 7q13 0 20 -9q8 -8 8 -21q0 -12 -8 -22l-3 -6l-19 -33q-17 -29 -33.5 -60t-27.5 -58
q-19 -46 -30 -90q4 3 7 7t4 6q117 168 241 274q66 57 126 84q36 17 67 21q4 1 13 1q17 0 32 -7q14 -7 22.5 -19t8.5 -28q0 -6 -1 -9q-3 -20 -18 -45q-17 -24 -46 -55q-38 -41 -122 -113q-36 -29 -150 -127q-51 -45 -49 -43q-5 -3 -6 -6q2 -3 5.5 -4.5t4.5 -2.5
q26 -12 38 -20q69 -48 69 -131q1 -20 -2 -45l-1 -22q-2 -16 -6 -23q-8 -17 -25 -15q-16 1 -23 18z" />
    <glyph glyph-name="S" unicode="S" horiz-adv-x="320" 
d="M36 -78q-17 9 -26.5 24.5t-9.5 33.5q0 12 2 18q2 7 11 27q48 91 118 150q48 41 64 53q8 7 8 17l-1 23q-2 32 -2 45q0 14 2 40q6 62 19 96q28 73 97 102q16 6 25 7q10 2 15 2q27 0 44.5 -20t17.5 -46q0 -7 -1 -11q-4 -18 -8 -28q-28 -66 -76 -112q-11 -11 -30 -23l-10 -5
h-2q-7 0 -10 5q-4 7 1 12l9 9q56 48 83 110q6 16 8 25q4 9 2 22q-2 11 -8 17t-16 6q-6 0 -9 -1q-31 -9 -51 -36t-23 -63q-6 -68 -5 -121l4 -76q3 -73 -18 -143t-75 -121q-46 -43 -99 -47q-26 -1 -50 9zM72 -24q6 1 25 11q50 30 77 81q26 52 29 128q-2 1 -3.5 0.5l-1.5 -0.5
q-79 -65 -122 -126q-21 -32 -30 -54q-7 -13 -8 -25v-2q0 -18 19 -16z" />
    <glyph glyph-name="T" unicode="T" horiz-adv-x="188" 
d="M7 -78.5q-6 7.5 -7 19.5v7q5 32 14 68q28 111 83 217q52 100 79 149q19 30 22 34q11 11 16 14q4 3 10 3q7 0 12 -4q11 -8 6 -21l-12 -35q-12 -29 -29 -65q-54 -116 -114 -275q-20 -50 -32 -74q-6 -12 -7 -19q-1 -13 -7.5 -20t-17.5 -6q-10 0 -16 7.5zM17 388q-7 0 -14 7
q-3 5 -3 10q0 6 3 10q3 7 11 12q18 14 39 21q99 39 189 50q88 10 130 11q20 2 29 2q10 0 26 -2q10 -1 19 -6q7 -4 10.5 -11.5t1.5 -14.5q-5 -17 -22 -18q-7 -1 -16.5 -2t-14.5 -1l-34 -3q-89 -8 -137 -14q-85 -12 -184 -42q-10 -2 -28 -8z" />
    <glyph glyph-name="U" unicode="U" horiz-adv-x="400" 
d="M215 -68q-2 8 -2 12l1 12q9 65 33 125q3 6 11 29q-5 -3 -7.5 -7t-3.5 -5q-41 -61 -69 -95q-31 -37 -63 -61q-21 -16 -39 -21q-11 -3 -19 -3q-17 0 -29.5 9.5t-19.5 26.5q-8 19 -8 44q0 9 2 27q3 41 26 105q58 166 170 315q16 23 31 37q10 8 19 11q14 3 23 -5.5t5 -22.5
q-2 -5 -11 -21q-57 -94 -104 -188q-55 -114 -83 -210q-10 -35 -13 -62v-6q0 -10 5 -10t14 4q13 6 35 22q30 25 65 67q30 37 82 117l18 27q33 52 49 94q15 38 53 108l18 33q8 15 24 14q7 -1 13 -6.5t8 -13.5q1 -4 1 -11q0 -8 -1 -14t-2 -10q-4 -17 -16 -49
q-42 -103 -120 -311q-13 -37 -33 -72q-12 -21 -15 -35q-6 -18 -24 -18t-24 18z" />
    <glyph glyph-name="V" unicode="V" horiz-adv-x="271" 
d="M41 -112q-23 0 -34 24q-7 15 -7 37q-1 32 9 96q9 52 23 113t28 119l7 31l6 27q25 102 40 146l8 24q6 11 7 13q8 13 23 10q16 -3 19 -19q1 -5 1 -15q0 -13 -1 -19q-8 -44 -11 -66q-9 -54 -22.5 -117t-17.5 -82l-15 -68q-12 -55 -21 -111q-1 -2 -1 -7q5 3 7 6.5t2 4.5
l56 97q66 119 171 287q32 51 70 97q10 12 16 16q5 3 11 3t11 -5t5 -11q0 -4 -4 -10q-38 -50 -69.5 -102t-79.5 -138q-10 -19 -19 -34t-15 -27q-17 -29 -38.5 -69.5t-33.5 -62.5l-36 -66q-29 -53 -51 -88q-7 -15 -16 -22q-12 -12 -28 -12z" />
    <glyph glyph-name="W" unicode="W" horiz-adv-x="492" 
d="M281 -71q-17 0 -30.5 10t-20.5 28q-10 26 -10 56l1 17q2 41 21 111l22 78q8 26 22 78q4 9 3 14q-3 -1 -5 -4t-4 -4l-30 -40q-73 -95 -118 -160q-27 -41 -60 -78q-10 -12 -17 -17q-9 -8 -23 -8q-10 0 -19 6t-13 17q-5 13 -5 27q0 9 1 13q3 46 19 98q18 59 39 115t59 148
q24 62 42 95q8 14 13 20q13 13 27 8q14 -6 14 -24q0 -11 -5 -24q-23 -82 -69 -206q-43 -124 -65 -202q0 -1 -1.5 -2.5t0.5 -3.5q3 0 5 2.5t3 3.5q16 19 46 59q30 41 94 121l53 67q16 22 31 34q11 9 21 9q16 0 25 -19q7 -15 5 -32q1 -21 -2.5 -40.5t-10.5 -52.5l-15 -65
q-3 -12 -12.5 -52t-15.5 -75q-5 -25 -7 -58q0 -13 5 -13t11 5q17 11 34 29q40 48 77 120q41 79 78 174.5t49 142.5q3 10 7 16q8 14 20 9t7 -20q-18 -75 -68 -205.5t-111 -227.5q-21 -34 -49 -61q-18 -18 -37 -29q-18 -8 -31 -8z" />
    <glyph glyph-name="X" unicode="X" horiz-adv-x="327" 
d="M240 -75q-23 0 -35 26q-10 23 -16 62q-6 42 -16 126q0 2 -0.5 6t-3.5 7q-3 0 -4.5 -3l-1.5 -3q-32 -43 -100 -125l-22 -27q-6 -8 -10 -10q-6 -3 -11 -3q-6 0 -11 4q-11 9 -8 21q1 5 5 13q2 3 5.5 8t7.5 11l39 55q62 88 94 132q7 12 6 26q-16 115 -26 212q-5 47 -4 82
q0 17 3 26q3 16 19 19h5q13 0 20 -12q6 -9 10 -24q6 -26 8 -43q1 -11 5 -33l9 -56l13 -93l2 -3q4 3 7 7t5 6q68 96 141 179l11 11q5 3 8 3q4 0 8 -3q7 -5 5 -13q-1 -7 -7 -15q-22 -37 -43 -67l-120 -178q-7 -13 -6 -23q8 -84 16 -252q0 -8 3 -12h2q2 0 4 1.5t3 2.5
q7 4 29 24q4 6 11 9q3 3 8 3q4 0 8 -4q9 -6 4 -16q-4 -8 -7 -12q-21 -26 -47 -43q-13 -9 -25 -9z" />
    <glyph glyph-name="Y" unicode="Y" horiz-adv-x="373" 
d="M71 -163q-22 0 -39.5 12.5t-27.5 35.5q-4 9 -4 20q0 6 2 16q21 66 77 108q12 8 20 9h4q8 0 14 -3.5t8 -9.5t2 -8q0 -5 -4 -8q-5 -8 -14 -4q-4 2 -6 2q-4 0 -8 -4q-44 -37 -57 -81q-2 -8 -2 -11q0 -11 14 -20q9 -5 14 1l17 15q97 94 165 227q53 101 98 205q4 8 3 12
q-7 -7 -11 -14l-25 -33l-84 -108q-37 -45 -64 -67q-13 -13 -31 -22q-9 -6 -20 -9q-10 -2 -14 -2q-14 0 -26 8.5t-16 23.5q-3 12 -3 24q0 8 2 24q4 27 16 60q42 122 102 234q3 5 23 38q5 8 12 14q8 7 18 7t17.5 -6.5t9.5 -17.5v-6q0 -7 -2 -17q-5 -19 -17 -43
q-54 -121 -74 -174q-11 -28 -22 -62l-11 -31q0 -2 -2 -6t0 -8q6 1 16 9q22 15 46 43q16 19 105 125l34 42l55 70q15 18 26 40q3 6 11 16q8 8 19 8q15 0 22 -15q4 -9 4 -23t-8 -44q-23 -76 -59 -156q-58 -126 -91 -188q-42 -80 -94 -146q-30 -38 -61 -64q-25 -21 -47 -31
q-19 -7 -32 -7z" />
    <glyph glyph-name="Z" unicode="Z" horiz-adv-x="404" 
d="M0 -86q0 10 5 23q5 10 10 17.5t8 12.5q145 234 362 492l6 8q1 1 1 3h-5q-11 0 -21 -3q-130 -18 -196 -24q-22 -2 -34 -2q-17 0 -35 3q-16 4 -25 11q-9 8 -9 18q0 3 2 9q2 7 8.5 10.5t14.5 2.5q8 -2 23 -2q21 0 46 5q42 6 145 19q39 4 117 14l30 4q14 2 22 1
q13 -1 21 -9.5t8 -20.5q0 -10 -5 -18l-7 -9q-37 -47 -34 -43q-160 -198 -253 -330q-39 -55 -64 -95q-6 -7 -16 -23q-6 -8 -7 -14q45 11 56 13q27 5 49 5q41 0 93 -15q13 -4 27 -13q14 -11 18 -22l2 -8q0 -8 -6 -12q-4 -2 -8 -2q-7 0 -11 5q-8 9 -18 13.5t-27 8.5
q-30 6 -58 6q-85 0 -166 -57l-17 -13q-10 -5 -19 -5q-8 0 -16 4q-17 10 -17 32z" />
    <glyph glyph-name="bracketleft" unicode="[" horiz-adv-x="374" 
d="M52 -171q-11 0 -20.5 8t-10.5 21q-1 3 -1 9q0 4 2 14q36 197 83 325q9 25 18.5 55.5t12.5 42.5l9 30q34 108 54 161q26 66 40 122q9 37 52 47q22 6 48 4q22 -2 31 -20q4 -8 4 -12q0 -8 -6 -14q-10 -11 -23 -7q-7 3 -16 3q-8 0 -24 -2q-12 -2 -12 -12q-3 -40 -13 -78
t-29 -94q-15 -42 -40 -138l-13 -48q-9 -35 -37 -120q-5 -16 -13 -40t-17 -56q-11 -36 -31 -128l30 2q29 0 42 -7q9 -5 13 -12.5t2 -15.5q-5 -17 -27 -15q-53 3 -91 -20q-7 -5 -17 -5z" />
    <glyph glyph-name="backslash" unicode="\" horiz-adv-x="312" 
d="M212 -128.5q-12 6.5 -17 19.5q-8 23 -10 38q-11 58 -36 161q-22 95 -29 128q-6 31 -20 91q-3 16 -17 79.5t-22 119.5q-4 31 -5 44q-1 7 -2.5 20.5t-3.5 23.5v8q2 8 7 14.5t12 7.5h5q14 0 21 -13q16 -30 19 -48l21 -91q5 -24 23.5 -104t31.5 -149q9 -45 28 -121
q15 -64 20 -86q12 -62 21 -92q2 -5 2 -8.5t1 -5.5q0 -16 -7 -26.5t-19 -13.5t-24 3.5z" />
    <glyph glyph-name="bracketright" unicode="]" horiz-adv-x="426" 
d="M75 -157q-13 0 -21 11q-4 7 -4 14q0 8 5 16q11 18 32 20q17 1 25.5 10t13.5 27q8 25 17 68q8 40 14 59l26 95q38 138 61 218t53 162q4 10 8 24t7 22q1 2 0.5 3.5t-0.5 3.5h-34q-3 0 -9.5 1t-11.5 3q-17 8 -14 24q3 15 19 17l45 2q24 0 35 7q5 3 10 3q7 0 12.5 -4.5
t8.5 -12.5q4 -10 2 -25q-8 -49 -22 -89q-23 -67 -56 -195l-21 -77q-58 -210 -83 -316q-5 -19 -21 -53q-12 -28 -44 -30q-31 -2 -46 -7q-2 -1 -7 -1z" />
    <glyph glyph-name="asciicircum" unicode="^" horiz-adv-x="309" 
d="M208 500q-25 27 -38 55l-8 17q-7 -4 -12 -11t-6 -9q-4 -5 -11 -16t-14 -18q-17 -18 -36 -21q-3 -1 -8 -1q-15 0 -22 12q-3 6 -3 11q0 10 8 18q12 13 24 34q16 33 57 76q1 2 11 9q10 6 20 6q22 0 31 -22q11 -32 41 -92l13 -26q4 -7 4 -15q0 -9 -7 -15q-7 -7 -17 -7
q-7 0 -13 3q-4 2 -14 12z" />
    <glyph glyph-name="underscore" unicode="_" horiz-adv-x="375" 
d="M51 -27q-1 2 -1 6q0 14 16 21q29 13 55 17q85 10 160 11q20 0 29 -5q16 -8 15 -24q0 -17 -17 -23q-7 -3 -25 -5q-50 -8 -121 -11q-34 -2 -69 -6q-4 -1 -12 -1h-7q-20 3 -23 20z" />
    <glyph glyph-name="a" unicode="a" horiz-adv-x="322" 
d="M150 -16.5q-5 7.5 -5 18.5q0 31 11 56l28 59l7 14q-2 0 -2 2l-14 -15q-50 -56 -113 -102q-21 -15 -30 -18q-8 -4 -18 -4q-13 0 -22 8.5t-11 23.5q-1 3 -1 9q0 5 1.5 12t1.5 10q5 22 19 50q37 78 102 156q17 21 40 38q13 10 32 15q4 1 10 1q28 0 40 -25q7 -15 7 -33
q0 -9 -1 -14q0 -2 -0.5 -5.5t0.5 -8.5q3 2 15 13.5t20 23.5q16 24 25 35q10 12 20 18q7 4 15 4q7 0 14 -4q13 -9 11 -26q0 -12 -7 -26q-16 -32 -25 -48q-60 -115 -93 -186q-7 -16 -18 -31.5t-14 -19.5q-6 -7 -14.5 -10t-16.5 -1q-9 3 -14 10.5zM72 72q32 22 60 50t64 69
q3 3 2 7q-3 8 -2.5 20.5t0.5 19.5q0 17 -4 27q-17 -12 -68.5 -92.5t-55.5 -102.5z" />
    <glyph glyph-name="b" unicode="b" horiz-adv-x="357" 
d="M72 -20.5q-13 12.5 -19 36.5q0 3 -2 7q-3 0 -4.5 -3t-2.5 -4q-9 -13 -20 -26q-12 -10 -16 -11q-6 -3 -12 -3q-10 0 -17.5 6.5t-8.5 17.5v6q0 6 2 16q5 21 25 61q14 29 17 35q30 56 60 122q8 18 43 97q9 21 23 52.5t34 73.5l12 25q7 13 21.5 43t27.5 53l15 25q8 10 13 13
q6 5 15 5t16.5 -6.5t8.5 -16.5v-5q0 -7 -4 -19q-9 -29 -24 -66t-27.5 -64.5t-20.5 -46.5q-31 -70 -38 -86q-30 -72 -52 -120l-4 -9q5 1 8 4l4 4q38 35 91 70q29 17 54 25q10 3 21 3q18 0 32 -11t20 -31q4 -12 4 -27q0 -7 -2 -21q-7 -32 -24 -61q-41 -72 -101 -127
q-30 -27 -55 -39q-30 -15 -57 -15q-7 0 -19 2q-24 3 -37 15.5zM133 33q37 19 63 44q47 46 85 107q18 30 26 56q2 8 2 10q0 7 -7 7q-2 0 -10 -2q-15 -5 -19 -7q-25 -10 -54 -32q-54 -40 -107 -98q-21 -22 -24 -58q0 -9 6 -27q2 -6 4.5 -7t9.5 0q14 2 25 7z" />
    <glyph glyph-name="c" unicode="c" horiz-adv-x="227" 
d="M56 -6q-24 0 -40 17t-17 45q1 44 25.5 97t61.5 93.5t72 49.5q3 1 10 1q22 0 34 -20q12 -22 9 -43q0 -14 -4 -42q0 -10 -12 -12h-2q-6 0 -12 10q-3 9 -2 16v25q0 14 -5 21q-23 -9 -50 -45t-45.5 -79.5t-18.5 -68.5q0 -13 6 -19q1 -2 4 -2q4 0 7 1t5 2q21 8 33 16
q84 56 128 100l9 9t10 12q3 5 7 6.5t8 -0.5q9 -4 6 -16q-1 -7 -10 -18q-25 -30 -54 -53q-28 -25 -56 -47l-24 -19q-20 -14 -35 -22l-9 -4.5t-11 -4.5q-15 -6 -28 -6z" />
    <glyph glyph-name="d" unicode="d" horiz-adv-x="313" 
d="M131.5 -74q-6.5 7 -8.5 18q-1 3 -1 11q0 7 2 19q4 33 14 77q-5 -7 -10 -13.5t-9 -12.5l-28 -36q-4 -5 -14 -13q-13 -12 -28 -12q-18 0 -32 16q-15 19 -18 46q-2 22 7 57q30 101 93 186q10 15 27 28q16 11 23 13q7 3 15 3q15 0 26 -12q19 -20 19 -47q0 -11 -3 -23
q0 -3 -2 -5q-5 -10 -15 -9q-8 0 -11 13q0 16 -2 23q0 14 -7 16h-2q-3 0 -5.5 -4.5t-4.5 -7.5q-2 -2 -2 -5q-55 -109 -78 -184l-3.5 -14t-1.5 -18q4 1 8 8q68 76 127 170q3 5 13 27q80 188 179 340q10 16 28 39q5 8 11 12q5 3 10 3q8 0 13 -5t6 -13q0 -11 -4 -18l-17 -39
q-82 -176 -122 -264q-37 -82 -62 -147l-67 -165q-9 -27 -16 -46q-5 -14 -10.5 -17t-20.5 -2q-10 0 -16.5 7z" />
    <glyph glyph-name="e" unicode="e" horiz-adv-x="223" 
d="M43 -17q-14 0 -25 6.5t-18 18.5q-10 15 -10 39q-3 30 11 67q42 109 135 183q15 12 34 20q5 2 15 2q17 0 27.5 -13t8.5 -28q1 -18 -14 -44q-40 -64 -108 -97q-8 -4 -11.5 -7.5t-5.5 -9.5q-15 -42 -19 -59q-3 -7 -5 -23v-1q0 -4 8 0q42 18 66 40l36 34q9 9 15 10q2 1 6 1
q6 0 10 -4q1 -1 1 -4q0 -10 -6 -16l-36 -38q-19 -21 -49 -43.5t-48 -30.5q-9 -3 -18 -3zM123 187q33 26 57 62q6 11 8.5 17.5t-0.5 12.5q-14 -7 -43.5 -42.5t-33.5 -52.5q-1 -3 0 -3q6 2 12 6z" />
    <glyph glyph-name="f" unicode="f" horiz-adv-x="200" 
d="M24 -141q-17 0 -30.5 11t-19.5 31q-4 16 -4 37q0 32 12 73q15 56 50 143q54 128 131 252q59 93 120 155q14 14 26 21q11 7 20 7q9 1 15 -4.5t6 -13.5l-2 -8q-1 -2 -8 -14l-27 -42q-22 -32 -46 -70q-88 -138 -147 -268l-4 -11q-2 -3 1 -8q32 -47 32 -90q0 -13 -1 -19
q-9 -66 -43 -122q-12 -18 -27 -33q-6 -6 -20 -16q-17 -11 -34 -11zM39 -83q4 0 7 2t5 3q14 12 25 30q30 48 35 108q1 26 -12 56q-45 -104 -62 -199h2z" />
    <glyph glyph-name="g" unicode="g" horiz-adv-x="303" 
d="M-133 -325q-12 14 -13 36q-2 41 14 74q63 147 201 205q28 11 46 13q8 1 13 9q17 36 49 108q1 1 1 5q-3 -1 -5.5 -4t-5.5 -5q-23 -33 -56 -69q-11 -12 -24 -21q-12 -8 -26 -8t-24.5 8t-15.5 23q-5 11 -5 27q0 13 3 26q16 77 58 147q11 20 37 44q12 10 16 11q16 8 30 8
q17 0 31.5 -10t21.5 -28q4 -8 5.5 -17.5t2.5 -12.5q4 1 5.5 3t2.5 3q6 10 24 46q9 19 29 17q9 -1 16 -7.5t10 -17.5q2 -10 2 -15l-1 -11q-3 -19 -15 -50q-47 -119 -86 -203q-3 -9 -4 -11q-3 -5 1 -8q16 -11 27.5 -26t23.5 -36l20 -36l3 -7q1 -2 1 -6q0 -8 -6 -12
q-3 -3 -9 -3q-4 0 -9 3q-6 4 -14 16q-18 34 -35 56q-7 9 -16 16q-6 5 -9 -2l-6 -9q-38 -76 -72 -131q-40 -67 -84 -108q-35 -31 -63 -43q-21 -7 -38 -7q-12 0 -18 2q-22 4 -34 18zM-74 -281l19 18q48 43 88 103q27 43 67 117q3 5 2 7q-3 3 -6 0q-17 -5 -27 -10
q-99 -50 -155 -157q-9 -16 -13 -32q-1 -4 -3 -14.5t-2 -19.5l1 -10q1 -6 3.5 -8t8.5 -1q7 1 17 7zM107 103q24 21 64 69q12 16 14 22t1 25q-4 22 -8 33q-4 10 -9 10q-4 0 -10 -6q-11 -11 -20 -31q-24 -52 -44 -122q-2 -5 0 -11z" />
    <glyph glyph-name="h" unicode="h" horiz-adv-x="341" 
d="M-9 9q-1 4 -1 11q0 9 3 18q4 20 18 58q109 259 208 441q14 26 28 46l14 23q3 6 10 12q8 5 15 5q8 0 14.5 -6t7.5 -16q0 -2 -3 -20q-11 -42 -41 -107l-39 -84q-48 -99 -78 -168l-37 -86q-2 -2 -4 -10q5 2 7.5 5t3.5 4l22 22q49 52 86 87q25 23 38 32q16 10 32 10t28.5 -11
t16.5 -30q1 -5 1 -15q0 -14 -3 -28t-13 -42q-30 -79 -66 -137q-3 -5 -24 -37q-9 -12 -24 -12q-9 0 -16 5t-10 14q-4 8 -4 19q0 6 2 18q6 21 18 41q33 55 65 144q2 4 4 12q1 1 0.5 2t-0.5 2q-4 -1 -14 -8q-12 -8 -44 -38q-95 -95 -153 -173q-5 -7 -17 -21q-11 -11 -22 -11
q-3 0 -9 2q-18 6 -20 27z" />
    <glyph glyph-name="i" unicode="i" horiz-adv-x="147" 
d="M-8 24l-1 8q2 33 10 51q26 64 42 94t31 49q8 10 14 13q5 4 13 4t14 -6t7 -15v-5q0 -10 -1 -14l-5 -20t-6 -19l-43 -117q-6 -15 -28 -39q-8 -8 -19 -8q-4 0 -10 2q-15 5 -18 22zM112 313l-1 7q0 6 2 13t3 10q4 12 12 17.5t18 3.5q10 -1 16 -9.5t6 -21.5q-2 -19 -11 -32
q-12 -14 -26 -10q-16 4 -19 22z" />
    <glyph glyph-name="j" unicode="j" horiz-adv-x="225" 
d="M-218 -305q-2 14 -2 21q0 26 12 57q40 96 114 158q28 24 73 45q32 12 49 12q10 1 13 10q11 29 35 85q38 88 53 134q6 23 18 42q4 8 12 16q13 11 27 7q16 -6 18 -23q1 -4 1 -12q0 -7 -2 -19q-9 -54 -32 -109l-57 -140q-3 -9 -3 -11q0 -4 7 -11q25 -26 43 -58q5 -8 5 -16
v-3q0 -11 -10 -13l-3 -1q-7 0 -12 11q-10 24 -42 56l-2 1q-3 -2 -4.5 -6t-2.5 -6q-34 -78 -66 -132q-35 -58 -80 -97q-26 -23 -55 -36q-21 -9 -42 -9q-6 0 -20 2q-38 9 -45 45zM-152 -301q15 6 36 29q82 88 138 226q1 1 1 4q-2 1 -5 1t-9 -2q-20 -5 -44 -19
q-100 -57 -148 -179q-2 -7 -4 -19t-2 -19q0 -8 1 -12q2 -11 7 -14t15 -1zM186 353l-1 7q0 6 2 13t3 10q4 12 12 17.5t18 3.5q10 -1 16 -9.5t6 -21.5q-2 -19 -11 -32q-12 -14 -26 -10q-16 4 -19 22z" />
    <glyph glyph-name="k" unicode="k" horiz-adv-x="236" 
d="M-39 -23q0 4 2 8.5t3 6.5q16 49 39 91q56 109 106 231q38 88 99 207q4 9 19 35q3 8 11 14q5 5 11 7t12 0q11 -4 13 -18q0 -8 -3 -17q-18 -63 -54 -148l-18 -44q-42 -100 -62 -150l-2 -5q6 3 9 7.5t4 5.5q26 30 50 46q6 6 14 9t14 3q9 0 15.5 -6.5t5.5 -17.5
q0 -16 -11 -32q-15 -22 -38 -42q-34 -30 -60 -49q-9 -8 -9 -11t4 -10q19 -37 16 -83q0 -7 -2 -10q-1 -8 -7 -13.5t-14 -5.5h-2q-7 0 -12 4t-5 11q-2 15 -9.5 31.5t-10.5 25.5q-2 2 -2 3q-5 10 -11 10q-4 -1 -5.5 -6t-2.5 -6q-16 -26 -23 -39l-15 -26q-5 -9 -17 -25
q-8 -10 -14 -14q-10 -7 -17 -7q-3 0 -11 4q-15 7 -10 25z" />
    <glyph glyph-name="l" unicode="l" horiz-adv-x="160" 
d="M-25 -118q-8 10 -11.5 21.5t-3.5 20.5q0 29 9 61q11 32 24 63q55 131 139 303l26 54q62 129 90 180q4 8 14 24q7 10 15 14q6 3 12 3q7 0 12.5 -4.5t7.5 -12.5q1 -3 1 -9t-1 -9q-3 -26 -18 -66q-8 -24 -28 -70l-9 -20q-86 -180 -128 -270q-60 -132 -88 -208l-12 -33
q-3 -9 -3 -18q0 -6 1 -10q3 -13 -6.5 -21.5t-22.5 -5.5q-9 2 -20 13z" />
    <glyph glyph-name="m" unicode="m" horiz-adv-x="445" 
d="M299 -19.5q-5 7.5 -5 17.5q0 28 4 51q6 30 18 60q16 43 36 87q4 6 3 10q-4 -1 -11 -8q-57 -46 -93 -104q-5 -8 -37 -61q-14 -22 -22 -31q-11 -11 -22 -11q-3 0 -9 2q-17 5 -19 27v4q0 13 5 30q19 70 46 132q4 8 4 14q-3 -2 -10 -11q-46 -63 -95 -136q-21 -32 -38 -51
q-10 -11 -19 -18q-8 -5 -16 -5q-19 0 -27 21q-2 10 -2 15q0 6 2 18q7 40 23 81q36 98 99 182l13 13q8 6 15 6q4 0 10 -3q13 -7 11 -22q0 -6 -4 -18q-6 -19 -18 -44q-32 -68 -47 -103q0 -1 -2.5 -5t-0.5 -8q3 2 8 9l33 45q34 43 66 90q12 20 43 45q9 8 21 8q11 0 19.5 -7.5
t10.5 -20.5v-7q0 -6 -2 -20q-5 -29 -23 -78q-1 -2 -2.5 -6t-0.5 -7q4 2 8 8q42 50 99 91l35 27q11 9 20 9q8 0 13 -4q16 -8 16 -29q0 -14 -10 -36q-10 -26 -32 -76q-29 -72 -43 -117q-8 -27 -25 -49l-4 -6q-9 -11 -21 -11q-5 0 -8 1q-8 2 -13 9.5z" />
    <glyph glyph-name="n" unicode="n" horiz-adv-x="382" 
d="M26 -8q-24 0 -33 25q-3 7 -3 22q0 19 9 46q27 78 78 144l16 17q10 8 15 10q10 4 14 4q8 0 16 -6q8 -7 8 -18q0 -3 -2 -11q-6 -17 -18 -41q-28 -50 -39 -77q-5 -7 -4 -12q4 1 11 8l126 119l52 47q1 1 17 14q23 20 51 29q12 4 18 4q14 0 23.5 -10t10.5 -27v-8q0 -6 -2 -20
q-8 -40 -34 -97l-37 -78q-8 -20 -21.5 -39.5t-17.5 -25.5q-9 -12 -21 -12q-3 0 -9 2q-9 2 -14.5 9t-6.5 16v3q0 7 4 19q13 45 46 109q14 28 20 42l25 53q0 1 1.5 3.5t0.5 7.5q-4 -3 -10.5 -7.5t-10.5 -8.5q-47 -36 -97 -88l-45 -47l-70 -72q-10 -11 -32 -31q-9 -9 -18 -13
q-8 -4 -17 -4z" />
    <glyph glyph-name="o" unicode="o" horiz-adv-x="206" 
d="M56 -16q-23 0 -36 22q-13 23 -13 52q0 23 8 49q27 88 90 157q5 7 5 8q14 26 47 43q8 5 14 6q8 2 13 2q23 0 34 -24q5 -12 5 -29q0 -11 -1 -16q-3 -22 -11 -49q-31 -90 -77 -155q-20 -28 -32 -41q-13 -13 -21 -18q-13 -7 -25 -7zM96 74q51 68 81 158q4 13 6 29q1 3 0.5 8
t-0.5 8q-2 8 -8 4q-13 -6 -24 -14q-4 -4 -3 -8l1 -5q0 -5 -3 -11t-4 -9l-15 -29q-38 -77 -51 -127q-5 -16 -4 -30q14 12 24 26z" />
    <glyph glyph-name="p" unicode="p" horiz-adv-x="319" 
d="M-89 -295q-2 5 -1.5 11.5t0.5 9.5q4 97 39 201q19 58 61 172q26 70 77 156q8 15 17 25q10 12 23 8q12 -5 14 -22v-4q0 -8 -3 -19q-8 -34 -24 -72q-24 -60 -31 -83q-5 -15 -5 -24q0 -5 4 -19q4 2 5.5 6t2.5 5q60 98 110 157l17 19q9 9 18 13q12 5 19 5q19 0 31 -17t14 -40
q1 -25 -5 -52q-34 -121 -151 -156q-18 -5 -33 -5q-7 0 -19 2l-8 1q-3 0 -7 -8l-60 -121q-31 -61 -43 -107q-2 -8 -12 -36q-4 -11 -9 -16q-9 -11 -24 -8q-12 3 -17 18zM57 -5q2 6 -1 7t-4 -1.5t-1 -3.5l-8 -24l2 -2zM121 39q32 15 53 31q18 13 29 28q28 37 42 83q4 11 4 23
q-1 7 -3 8t-7 -3q-12 -9 -24 -23q-58 -66 -102 -141q-1 -1 -3 -3.5t-1 -6.5q6 0 12 4z" />
    <glyph glyph-name="q" unicode="q" horiz-adv-x="314" 
d="M43 -323q-1 6 -1 18q0 27 8 57q2 14 6 25q29 101 56.5 179.5t64.5 150.5q1 1 2 3.5t1 5.5q-3 -1 -4.5 -3t-2.5 -3t-13 -16q-1 -1 -25 -28l-27 -28q-10 -10 -24 -18q-13 -7 -27 -7q-17 0 -29 11t-16 30q-2 14 -2 20q0 14 3 27q21 98 89 177q12 12 24 20q11 8 23 11
q4 1 11 1q17 0 28.5 -10.5t12.5 -29.5v-5q0 -10 -4 -24q-1 -7 -3.5 -16.5t-3.5 -16.5q-3 -15 -14 -15h-2q-9 0 -14 13q-2 7 -2 22l3 27q-6 2 -8 -4q-10 -10 -16 -24q-37 -64 -59 -143q-2 -10 -2 -13v-3q3 -2 5.5 0.5t3.5 2.5q12 8 33 27q58 55 102 113q13 18 41 50
q22 24 32 37l7 7q5 4 12 4q4 0 10 -2q12 -6 12 -19v-3q0 -7 -6 -21l-48 -103l-24 -53q-6 -14 -27 -61.5t-37 -89.5q-14 -35 -36 -107l-18 -56v-3t1 -3q4 1 10 10q49 61 123 133l18 16q5 3 9 3q5 0 8 -4q3 -3 3 -8t-4 -9l-8 -8q-83 -83 -138 -155q-43 -57 -61 -107l-3 -7
q-4 -7 -10 -10.5t-12 -3.5q-14 0 -23 13q-6 9 -8 26z" />
    <glyph glyph-name="r" unicode="r" horiz-adv-x="229" 
d="M-13 24q1 17 6 34q8 25 33 86q20 47 44 94l17 36q4 5 8.5 13t8.5 13q8 8 17 8q3 0 9 -2q13 -6 13 -23q-1 -9 -3 -15.5t-3 -11.5q-4 -11 -5 -20q-2 -8 -4.5 -14.5t-4.5 -12.5q4 2 11 8l18 15l32 24q30 20 60 27q10 2 16 2l12 -1q13 -3 21 -16q2 -6 2 -8q0 -3 -3 -8
q-9 -9 -17 -3q-8 5 -15 5q-6 0 -22 -6q-14 -5 -22 -11q-80 -49 -122 -120q-6 -8 -11 -22q-18 -42 -26 -63q-9 -20 -15 -27q-11 -14 -26 -14q-3 0 -9 2q-20 8 -20 31z" />
    <glyph glyph-name="s" unicode="s" horiz-adv-x="219" 
d="M-14.5 -73.5q-15.5 16.5 -15.5 40.5q0 7 1 11q3 19 14 40q16 30 52 64q21 20 57 45q2 1 5.5 3.5t3.5 4.5l-4 10q-9 20 -15 39q-4 12 -4 28q0 33 19 60.5t50 39.5q16 4 25 3q17 -3 24 -17q1 -3 1 -8q0 -14 -15 -19q-19 -4 -31 -20t-12 -35q0 -4 2 -14q4 -14 11 -28t9 -19
q9 -22 15 -45.5t6 -41.5q0 -37 -19 -72t-50.5 -59t-68.5 -29q-6 -1 -20 -1q-25 3 -40.5 19.5zM103 6q18 29 18 58q0 19 -6 38q-2 1 -3.5 0t-2.5 -1q-50 -36 -82 -77q-17 -22 -19 -41q-1 -3 -1 -8q0 -10 5 -15.5t13 -5.5q6 0 13 3q40 15 65 49z" />
    <glyph glyph-name="t" unicode="t" horiz-adv-x="177" 
d="M-25 -60q2 33 10 61q6 21 20 53q49 118 130 264l6 11q1 1 0 2t-1 3l-26 -4q-3 0 -11 -2q-6 0 -11 3.5t-6 8.5l-1 4q0 10 10 15q7 4 24 6q11 3 35 5q14 3 19 12q13 27 29 45q10 12 13 14q9 6 17 6q7 0 11 -3q14 -7 14 -25q-2 -12 -4 -18q-4 -9 -7 -20q3 -2 6.5 -2h4.5
q28 2 44 4q9 0 13 -2q12 -1 12 -14v-2q0 -8 -11 -13q-4 -2 -14 -2q-31 -4 -62 -6q-11 -2 -15 -9q-34 -68 -52 -102q-8 -16 -33 -65.5t-44 -92.5q-10 -22 -28 -68l-17 -35q-18 -37 -27.5 -51t-21.5 -14q-4 0 -10 3q-18 10 -16 30z" />
    <glyph glyph-name="u" unicode="u" horiz-adv-x="294" 
d="M144 -19v4q0 10 4 28q16 59 48 128l6 15q-5 -2 -10 -10q-30 -35 -63 -80q-17 -23 -32 -36q-13 -13 -24 -19q-12 -6 -22 -6q-15 0 -26 10t-14 27q-2 12 -2 19q0 13 3 25q16 89 72 165q14 19 31 30q11 8 23 8q14 -2 20 -13q3 -4 3 -10t-5 -13q-30 -38 -49.5 -82.5
t-35.5 -101.5q-3 -8 -1 -11q6 2 14 12q40 41 94 106q26 32 40 47l67 83q11 15 25 9q15 -5 13 -24q-1 -7 -7 -26q-29 -86 -58 -160q-22 -55 -38 -106l-9 -24q-4 -9 -12 -15q-10 -9 -22 -9q-8 0 -12 2q-18 8 -21 28z" />
    <glyph glyph-name="v" unicode="v" horiz-adv-x="263" 
d="M51 -33q-9 0 -16.5 5.5t-11.5 15.5q-3 8 -3 24q3 35 11 79q16 87 52 181q3 9 11 25q5 8 10 12q7 5 14 5l8 -2q10 -4 12 -18q0 -5 -2 -15q-9 -38 -26 -127l-13 -67q-1 -2 -1 -7q5 3 12 13q91 111 137 162q19 22 35 36q11 10 24 14l5 1q10 0 13 -8q1 -2 1 -6q0 -6 -6 -11
q-15 -11 -27.5 -24t-23 -26t-15.5 -19q-46 -55 -130 -169q-12 -18 -38 -52q-6 -10 -14 -16q-9 -6 -18 -6z" />
    <glyph glyph-name="w" unicode="w" horiz-adv-x="411" 
d="M236 -40q-14 0 -26 6.5t-19 19.5q-12 19 -14 54q0 35 12 81q1 3 2.5 8.5t0.5 10.5q-4 -2 -11 -12l-32 -38q-32 -40 -64 -76l-22 -23q-10 -8 -16 -11q-10 -5 -19 -5q-21 0 -32 21q-6 12 -6 33q0 24 10 51q7 22 21 51q26 57 67 129l13 19q7 8 14 12q6 3 12 3q9 0 15.5 -6.5
t6.5 -17.5q0 -5 -5 -25q-11 -36 -36 -93l-29 -67q0 -2 -2 -6t-1 -8q3 1 12 10q69 71 115 123q30 34 44 52q8 12 19 12l8 -2q7 -2 11 -9t3 -16q0 -8 -2 -16.5t-3 -11.5q-23 -82 -34 -152q-4 -24 -3 -37q0 -10 4 -10q2 0 8 3q12 7 20 15q91 79 90 189q0 41 -2 62q-2 5 0 10
q3 14 18 14q7 0 10.5 -3.5t4.5 -11.5q0 -2 0.5 -7.5t-0.5 -9.5l1 -29q1 -10 1 -30q0 -15 -1 -23q-13 -123 -112 -210q-14 -14 -32 -20q-10 -3 -20 -3z" />
    <glyph glyph-name="x" unicode="x" horiz-adv-x="268" 
d="M117 15q-12 17 -20 40l-7 18q-28 -46 -36 -59q-2 -2 -3 -4l-2 -4q-8 -11 -21 -6q-5 2 -8.5 7.5t-2.5 11.5q1 8 6 16q26 48 45 78q6 9 6 17q0 3 -2 11q-19 65 -23 114l-1 11q0 6 2 16t5 15q8 14 21 14q11 0 20 -11l8 -16q12 -26 22 -62q0 -1 1 -5t3 -7q4 0 5.5 3t2.5 4
q30 37 53 60q8 8 14 10q2 1 6 1q5 0 8 -3q8 -6 3 -15q-1 -4 -3 -6.5t-3 -4.5l-18 -26q-30 -44 -46 -65q-5 -8 -5 -16q0 -5 1 -8q3 -10 10 -40q13 -48 15 -53l5 -14q2 -6 8 -2q10 9 19 19q12 12 22 6q5 -3 7 -9t0 -13q-2 -6 -6 -12q-12 -18 -31 -35q-11 -10 -26 -10
q-10 0 -19 4q-22 9 -35 30z" />
    <glyph glyph-name="y" unicode="y" horiz-adv-x="363" 
d="M-46 -294.5q-15 15.5 -16 42.5q-1 37 17 69q52 87 122 137q49 35 105 39q10 0 14 9q29 63 61 149q1 1 1 5l-12 -11q-26 -29 -25 -28q-60 -64 -90 -93q-14 -13 -42 -37q-13 -10 -25 -15q-9 -3 -17 -3q-20 0 -33 19q-11 16 -13 42q-2 24 9 62q28 80 81 154q6 7 8 9q3 5 7 6
q10 6 16 6q7 0 12 -4q13 -7 13 -24q0 -8 -4 -20q-9 -26 -23 -53q-34 -74 -47 -112q-6 -18 -7 -29q5 0 8.5 3t4.5 4q30 22 55 47q45 41 127 129l28 29q14 13 22 24l3 5q15 18 30 12q9 -3 13.5 -11.5t3.5 -19.5q0 -10 -7 -38q-9 -27 -38 -108q-22 -60 -42 -106q-3 -6 -3 -8
q0 -3 9 -6q20 -7 32 -15q23 -14 29 -44q2 -5 0 -11q0 -9 -10 -11h-2q-6 0 -11 7l-3 9q-4 22 -27 32l-3 1q-18 8 -21 8q-5 0 -9 -6t-8 -16q-28 -60 -52 -104q-29 -48 -64 -82q-35 -33 -70 -48q-34 -14 -65 -13q-27 2 -42 17.5zM55 -232q23 21 45 54q36 51 73 130q0 1 1.5 3.5
t0.5 4.5l-4 1q-3 0 -9 -2q-37 -9 -65 -30q-66 -48 -109 -122q-12 -19 -14 -47q0 -14 3 -19t11 -5t14 2q28 7 53 30z" />
    <glyph glyph-name="z" unicode="z" horiz-adv-x="261" 
d="M3.5 -6q-8.5 9 -4.5 22q4 10 8 14l24 30q101 112 165 172q1 1 4.5 3.5t4.5 6.5q-2 2 -6 2h-5l-99 -4q-16 0 -24 1q-14 2 -16 15v2q0 11 12 17q10 4 31 6q66 10 143 13q15 0 22 -1q12 -2 19 -9.5t7 -17.5q0 -9 -6 -18q-4 -6 -15 -17q-56 -55 -164 -171l-3.5 -3.5
t-2.5 -5.5q2 -3 8 -3q47 -4 96 -17q4 -1 17 -4q14 -3 14 -15q0 -13 -14 -16q-3 -1 -8 -1q-8 0 -12 1q-33 8 -77 13q-7 1 -21 1q-36 0 -64 -18q-4 -3 -12 -5q-13 -2 -21.5 7z" />
    <glyph glyph-name="braceleft" unicode="{" horiz-adv-x="337" 
d="M84 -160q-18 0 -34 9.5t-23 25.5q-6 13 -6 27q-1 6 -1 19q0 19 3 37q13 80 44 147q18 37 25 63q4 10 4 16q0 3 -2 9h-2q-4 0 -8 -3.5t-7 -4.5q-8 -4 -18 -4q-14 0 -23 11q-7 7 -7 18q0 12 10 23l15 17q74 80 108 199q25 88 54 142q20 34 40 52q17 15 34 19q8 2 12 2
q17 0 28 -14q7 -10 7 -19q0 -11 -6 -22q-9 -16 -24 -12q-2 1 -6 1q-6 0 -11 -8q-9 -11 -18 -33q-25 -52 -40 -112q-16 -59 -39 -112q-25 -54 -56 -91q-6 -8 -6 -11t5 -10q17 -20 17 -48q0 -9 -1 -14q-4 -27 -16 -64q-32 -86 -42 -148l-5 -37l-1 -6q0 -12 13 -13l6 -2
q15 -8 15 -23q-1 -16 -17 -22q-9 -4 -21 -4z" />
    <glyph glyph-name="bar" unicode="|" horiz-adv-x="186" 
d="M50 -83v32q5 84 12.5 314.5t6.5 304.5v10q0 14 3 29q2 9 5 14q8 13 22 13q16 -1 21 -16q4 -8 4 -19q12 -89 12 -200v-34q-3 -190 -10 -342q0 -24 -1 -36q0 -48 -2 -72q-2 -15 -7 -25q-11 -18 -30 -18q-18 0 -29 18q-5 8 -7 27z" />
    <glyph glyph-name="braceright" unicode="}" horiz-adv-x="332" 
d="M62 -178q-19 0 -31 13.5t-11 33.5q0 12 6 24q9 21 23 21q10 0 23 -12q19 33 28 66q17 57 27 95.5t16 78.5q9 57 42 88q5 6 2 14q-12 33 -12 65q0 30 10 65q21 77 54 151q2 4 8 17.5t8 26.5q1 3 1 9q0 21 -21 21l-8 -1q-11 -2 -21 -6q-3 -1 -8 -1q-9 0 -15 7q-3 5 -3 10
q0 8 6 15q6 9 16 12q18 8 36 8q29 0 50 -18.5t23 -51.5q2 -20 -7 -52q-34 -120 -49 -181q-7 -27 -9 -56q-1 -25 7 -53q3 -9 3 -15t-3.5 -10.5t-12.5 -10.5q-9 -7 -11 -18q-7 -30 -8 -54q-6 -96 -60 -214q-15 -30 -51 -65q-15 -15 -33 -19q-7 -3 -15 -3z" />
    <glyph glyph-name="asciitilde" unicode="~" horiz-adv-x="445" 
d="M242 177.5q-13 12.5 -28 31.5q-15 18 -37 25q-4 2 -12 2q-10 0 -16 -5q-27 -23 -52 -46q-8 -8 -10 -9q-9 -7 -17 -7q-5 0 -12 5q-8 6 -8 16q0 3 2 11q0 2 1 2q40 63 88 88q13 7 33 7q50 -5 78 -37l38 -42q12 -12 20 -12q7 0 19 12q7 6 17 20q9 13 18 16q6 2 10 2
q8 0 14 -7q7 -7 7 -14q0 -4 -4 -10q-6 -9 -10 -18t-9 -17q-10 -16 -30 -30q-19 -12 -38 -12q-15 0 -33 8q-16 8 -29 20.5z" />
    <glyph glyph-name="exclamdown" unicode="&#xa1;" horiz-adv-x="371" 
d="M81 -9q-11 0 -21 8q-10 10 -10 26q0 9 4 16q7 10 17 37l35 103q33 101 56 163q31 78 56 145l3 8q11 21 30 17q10 -1 15.5 -9.5t5.5 -21.5t-7 -34l-36 -104q-10 -30 -43 -133q-5 -16 -18 -58t-25 -76q-11 -38 -22 -57q-9 -18 -20 -24q-9 -6 -20 -6zM266 603q-6 6 -5 16
q0 6 2 18q1 14 10 22.5t21 6.5q13 -1 20 -9.5t7 -24.5q-1 -19 -11 -28t-28 -8q-10 1 -16 7z" />
    <glyph glyph-name="cent" unicode="&#xa2;" horiz-adv-x="287" 
d="M93 -19q-4 4 -5 11v6q0 9 1 13l6 32l1 4q0 4 -5 7q-16 8 -24.5 22t-12.5 35q-4 13 -4 31q0 23 10 53q20 55 57 98q12 14 24.5 21t28.5 5h2q3 0 4.5 2.5t2.5 3.5l8 19q9 17 22 11q10 -3 10 -15q0 -5 -1 -8q-4 -14 -7 -21q-2 -6 -2 -9q0 -8 6 -16q16 -22 21 -54q1 -3 1 -10
t-3.5 -11t-8.5 -5l-4 -1q-9 0 -14 11q-1 3 -4 11t-8 16l-13 -45q-22 -74 -32 -103q7 1 11.5 5.5l6.5 6.5q8 6 14 6q5 0 9 -4q3 -4 3 -9q0 -6 -6 -14q-18 -22 -39 -30q-13 -5 -16 -20q-2 -15 -8 -35q-2 -8 -4 -13q-5 -13 -17 -11q-7 0 -11 4zM121 128q15 43 24 72t14 59
q-12 -16 -22.5 -36.5t-13.5 -26.5q-8 -17 -13 -37q-3 -13 -3 -28q0 -16 5 -27z" />
    <glyph glyph-name="sterling" unicode="&#xa3;" horiz-adv-x="566" 
d="M83 -112q-11 0 -21 7q-12 12 -12 26q0 7 1 10q2 8 10 22l31 44l13 18q61 83 100 141l18 30q-3 3 -5.5 2t-3.5 -1q-21 -5 -45 -13.5t-33 -11.5q-12 -6 -25 -9q-6 -2 -8 -2q-9 0 -13 9q-1 2 -1 6q0 9 9 15l9 4q65 33 124 43q17 3 23 19q14 44 19 95q3 49 14 86q19 67 73 94
q27 15 55 15q23 0 44 -10q57 -24 57 -82q0 -12 -1 -18q-14 -85 -76 -141q-14 -12 -23 -16l-9 -2q-8 0 -12 7q-1 2 -1 6q0 8 8 13q70 53 81 146q4 31 -25 50q-19 11 -38 11q-16 0 -27 -5q-46 -16 -61 -65q-9 -28 -11 -75v-31q0 -41 -3 -62q0 -4 -2 -12l-1 -8q0 -4 2.5 -5
t11.5 0q45 2 79 -2q12 0 20 -5q11 -8 7 -20q-5 -11 -17 -9q-13 2 -38 2q-22 0 -64 -2q-11 0 -14 -9q-14 -38 -34 -74t-49 -81l-13 -19h3q5 0 11 4q75 31 155 31q37 0 74 -6q17 -3 33 -11q15 -9 18 -24l1 -5q0 -4 -2.5 -8t-6.5 -6q-6 -2 -8 -2q-6 0 -12 7q-6 9 -20 11
q-19 5 -58 5q-117 0 -209 -63q-24 -16 -70 -50l-15 -10q-8 -4 -17 -4z" />
    <glyph glyph-name="yen" unicode="&#xa5;" horiz-adv-x="523" 
d="M127 -58q-6 10 -4 26q2 54 19 100l18 47q-2 1 -5 1q-5 0 -11 -2l-56 -11q-8 -2 -12 -2l-9 1q-7 1 -12 6.5t-5 11.5q0 7 4.5 12t11.5 6q16 3 46 13l36 10q10 2 12 4.5t2 13.5q1 4 0.5 7.5t-0.5 6.5q-4 -1 -22 -6t-31 -13q-10 -5 -14 -5q-12 0 -18 10q-3 5 -3 8q0 4 4 12
q5 7 18 13q26 13 58 21q8 2 11.5 7t4.5 14q14 112 38 236q3 22 9 40q4 11 10 17q8 8 19 5q10 -4 12 -16v-14l-4 -55q-8 -128 -17 -191q-1 -4 -1 -13q5 0 7 7q41 67 111 158q31 41 60 69q14 14 23 19q10 4 16 4t9 -2q11 -6 11 -16q0 -12 -10 -16q-9 -4 -19 -15
q-11 -11 -18 -22l-27 -39q-65 -92 -85 -123q-1 -2 -3 -5.5t-3 -8.5q18 4 52 10q18 4 26 3q9 -1 14 -6.5t5 -13.5t-5 -13.5t-13 -5.5h-5q-6 0 -20 -4q-50 -14 -76 -19q-11 -3 -15 -12l-10 -20q2 -3 5 -2.5t4 0.5q17 5 74 19q2 0 6.5 1.5t8.5 0.5q14 -3 18 -14l1 -5
q0 -11 -9 -17l-14 -7q-51 -17 -107 -31q-16 -3 -20 -16t-15 -24q-3 -4 -5 -14l-7 -26q-6 -22 -25 -98q-2 -8 -5 -15q-6 -14 -21 -15q-15 0 -23 13z" />
    <glyph glyph-name="brokenbar" unicode="&#xa6;" horiz-adv-x="168" 
d="M66.5 274q-5.5 6 -6.5 15q-1 7 -1 20q4 86 4 127q0 35 -1 53q0 14 2 20q5 14 17 17h3q12 0 19 -10q5 -9 6 -16q9 -36 9 -108q0 -50 -5 -71q-2 -9 -4 -27l-3 -12q-4 -8 -11 -12.5t-15 -3.5q-8 2 -13.5 8zM57.5 -61q-5.5 6 -6.5 15q-1 7 -1 20q4 86 4 127q0 35 -1 53
q0 14 2 20q5 14 17 17h3q12 0 19 -10q5 -9 6 -16q9 -36 9 -108q0 -50 -5 -71l-5 -27q0 -6 -3 -12q-4 -8 -11 -12.5t-15 -3.5q-7 2 -12.5 8z" />
    <glyph glyph-name="copyright" unicode="&#xa9;" horiz-adv-x="504" 
d="M208 -41q-51 0 -92 30t-55 80q-11 36 -11 77q0 24 5 56q26 140 120 235q25 27 50 33q6 2 11.5 6.5t7.5 6.5q29 26 59 26q22 0 49 -16q61 -36 83 -98q21 -57 19 -118q-4 -66 -17 -110q-25 -87 -85 -146q-54 -52 -126 -61q-6 -1 -18 -1zM213 18q53 0 88 35q64 59 81 139
q11 47 11 93q2 50 -16 95q-16 41 -64 64q-8 4 -16 4q-10 0 -21 -9q-21 -17 -29 -32q-10 -17 -25 -16h-4q-11 0 -20 -13q-61 -77 -81 -178q-6 -28 -6 -56q0 -32 8 -59q18 -59 73 -66q7 -1 21 -1zM191 113q-12 12 -17 32q-4 16 -4 36q0 17 6 49q6 27 17 47q13 26 45 74
q4 7 16 19q17 18 36 18q11 0 22 -6.5t18 -19.5q17 -25 17 -57q0 -21 -7 -41q-3 -9 -9.5 -13t-14.5 -3t-13 7.5t-5 16.5l1 21q1 12 -0.5 18.5t-9.5 22.5q-35 -52 -51 -84t-16 -70q0 -8 2 -24q2 -1 5 -1q4 0 8 3.5t6 4.5q4 2 7.5 5.5t7.5 5.5q8 4 11 4q8 0 14 -6q7 -6 7 -15
q0 -2 -2 -10q-5 -14 -29 -30t-40 -16t-28 12z" />
    <glyph glyph-name="guillemotleft" unicode="&#xab;" horiz-adv-x="481" 
d="M228 131q-8 0 -16 6q-12 10 -24 16t-36 15q-5 2 -12.5 4.5t-17.5 7.5q-8 3 -18 4.5t-14 2.5q-13 2 -22 8q-9 5 -13.5 14t-4.5 18q0 14 11 27q2 1 4 3t6 4l30 19q58 38 78 49q3 1 7 3t9 4l8 2q8 0 14 -6q5 -5 5 -14q0 -6 -2 -10q-5 -13 -15 -20q-22 -20 -44 -38
q-5 -5 -7 -10l34 -15q44 -24 58 -60q3 -7 3 -14q0 -9 -7 -15q-7 -5 -14 -5zM410 147q-8 0 -16 6q-12 10 -25.5 16.5t-34.5 14.5l-30 12q-8 3 -18 4.5t-14 2.5q-13 2 -22 8q-18 11 -18 31q0 14 11 27l9 8l23 15q13 8 39.5 25t46.5 28l15 7l8 2q8 0 14 -7q6 -6 6 -14
q0 -6 -2 -9q-4 -10 -15 -21l-44 -37q-1 -1 -4 -3.5t-4 -6.5q24 -10 35 -16q44 -23 58 -59q3 -7 3 -14q0 -9 -7 -15q-7 -5 -14 -5z" />
    <glyph glyph-name="degree" unicode="&#xb0;" horiz-adv-x="228" 
d="M93 411q-20 0 -32 14.5t-11 38.5q3 47 26 73q3 3 6.5 9t6.5 10q17 23 39 23q23 0 38 -23q12 -17 12 -45q-5 -70 -60 -94q-13 -6 -25 -6zM128 473.5q6 12.5 6 27.5q0 16 -7 27q-3 -3 -7 -9t-7 -9q-11 -7 -14 -17.5t-4 -27.5q0 -12 7 -12q3 0 9 3q11 5 17 17.5z" />
    <glyph glyph-name="plusminus" unicode="&#xb1;" horiz-adv-x="336" 
d="M117 109q-7 6 -9 16v8q0 7 2 19l16 53h-3q-8 0 -15 -2t-9 -3q-3 -1 -7.5 -2t-9.5 -1h-3q-16 0 -22 14q-2 3 -2 10q0 10 7 17q4 4 20 13q20 9 54 15q14 3 20 17q16 38 35 72q8 14 15 19q6 6 14 6q4 0 9 -3q13 -6 10 -21q-2 -16 -12 -41q-4 -15 -12 -35q4 -1 16 -5.5
t22 -2.5h5q7 0 11 -1q14 -3 16 -17l1 -5q0 -11 -11 -17q-8 -5 -16 -6l-57 -10q-7 -1 -10.5 -3.5t-5.5 -8.5q-8 -22 -26 -64q-2 -5 -2.5 -9t-0.5 -6q-1 -10 -7.5 -16t-16.5 -6q-9 0 -16 6zM65 31q-14 5 -15 18v3q0 13 13 19q10 4 15 5q46 11 88 11l32 1q16 0 25 -5
q15 -7 15 -22q0 -13 -12 -21q-5 -4 -18 -6q-38 -7 -67 -7l-18 1h-41q-11 0 -17 3z" />
    <glyph glyph-name="periodcentered" unicode="&#xb7;" horiz-adv-x="176" 
d="M78 179q-10 0 -18.5 7.5t-9.5 18.5q-2 20 13.5 37.5t34.5 17.5q13 0 21.5 -10t6.5 -23q-6 -32 -36 -45q-6 -3 -12 -3z" />
    <glyph glyph-name="guillemotright" unicode="&#xbb;" horiz-adv-x="452" 
d="M241.5 158.5q-2.5 7.5 -0.5 16.5q1 2 9 16q20 29 46 48l15 12q-6 7 -13.5 9.5t-9.5 3.5q-7 3 -19 8t-20 10q-22 15 -28 31q-3 6 -3 13q0 10 8 18q6 6 15 6q7 0 15 -5q18 -10 38 -15q33 -10 86 -41q7 -3 11 -9q11 -11 11 -25q0 -16 -16 -27q-36 -23 -86 -64l-19 -15
q-8 -7 -18 -7q-7 0 -12 4q-7 5 -9.5 12.5zM73.5 154.5q-2.5 7.5 -0.5 16.5q1 2 9 16q22 31 46 48l15 12q-7 7 -23 13q-7 3 -19 8t-20 10q-21 12 -28 31q-3 6 -3 13q0 10 8 18q6 6 15 6q7 0 15 -5q16 -9 38 -16q33 -8 86 -40l11 -9q11 -13 11 -25q0 -17 -16 -28
q-28 -17 -55.5 -38.5t-32.5 -25.5l-17 -14q-8 -7 -18 -7q-7 0 -12 4q-7 5 -9.5 12.5z" />
    <glyph glyph-name="questiondown" unicode="&#xbf;" horiz-adv-x="548" 
d="M157 -17q-20 0 -41 6q-31 10 -48.5 32.5t-17.5 53.5q0 9 1 14q6 45 32 87q20 33 57 81q25 34 77 100q63 80 90 153q7 21 22 41q3 5 7 15q6 24 30 24q11 1 20 -5t14 -16q3 -9 3 -19q-3 -49 -18 -88q-29 -70 -79 -134q-36 -49 -94 -110q-47 -51 -74 -87q-18 -25 -26 -48
q-4 -11 -4 -20q0 -24 35 -32q7 -2 20 -2q45 1 98 24q101 46 168 139q32 43 36 91q1 15 13 16h2q10 0 15 -13q3 -9 3 -18q0 -6 -2 -18q-11 -52 -51 -104q-69 -84 -165 -130q-42 -20 -84 -29q-26 -4 -39 -4zM376.5 655.5q-9.5 11.5 -6.5 25.5q2 12 4 15q4 11 13 17.5t20 6.5
q5 0 8 -1q11 -3 17.5 -11.5t6.5 -19.5q0 -7 -1 -10q-3 -15 -13.5 -24.5t-24.5 -9.5t-23.5 11.5z" />
    <glyph glyph-name="Agrave" unicode="&#xc0;" horiz-adv-x="431" 
d="M277 -68q-5 18 -3 46q2 29 14 87l4 20q19 89 68 217q1 2 3 6.5t2 8.5q-2 1 -5 1t-9 -2q-34 -6 -102 -20q-13 -3 -21 -14q-90 -114 -167 -266q-3 -6 -15 -28t-18 -42q-5 -14 -17 -11q-5 1 -8.5 6t-2.5 12q1 6 5 18q10 29 34 75q66 129 137 224l5 7h-4q-7 0 -13 -2
q-54 -15 -84 -26l-10 -3h-2q-10 0 -15 9l-1 5q0 6 7 13q5 4 17 8q70 26 131 41q11 3 20 13q43 52 78 91.5t73 73.5q32 29 59 48q17 12 34 16q3 1 10 1q16 0 26 -10t11 -28q1 -14 -6 -36q-11 -35 -39 -105q-1 -2 -2.5 -6t-0.5 -8h5l19 1q34 4 52 4q17 0 25 -6q7 -4 9 -9.5
t0 -10.5q-5 -11 -19 -8q-4 1 -13 1q-8 0 -13 -1l-74 -9q-9 -1 -13 -10q-37 -95 -61 -172.5t-36 -155.5q-2 -13 -8 -37q-2 -16 -2 -24q2 -15 -9 -24.5t-26 -5.5q-21 4 -29 27zM292 342q44 10 79 14q12 1 18 14q35 85 63 135l1.5 2.5t-1.5 5.5q-45 -32 -84 -71.5t-91 -99.5
l1 -3zM514.5 613.5q-8.5 6.5 -10.5 18.5q-1 5 -9 47q-10 51 -12 74l-1 6q0 2 2 10q3 7 8.5 11t11.5 4q5 0 9 -3q11 -8 18 -15t8 -17q2 -20 10 -60l6 -34l1 -14q0 -14 -6 -22.5t-17 -9.5q-10 -2 -18.5 4.5z" />
    <glyph glyph-name="Aacute" unicode="&#xc1;" horiz-adv-x="431" 
d="M277 -68q-5 18 -3 46q2 29 14 87l4 20q19 89 68 217q1 2 3 6.5t2 8.5q-2 1 -5 1t-9 -2q-34 -6 -102 -20q-13 -3 -21 -14q-90 -114 -167 -266q-3 -6 -15 -28t-18 -42q-5 -14 -17 -11q-5 1 -8.5 6t-2.5 12q1 6 5 18q10 29 34 75q66 129 137 224l5 7h-4q-7 0 -13 -2
q-54 -15 -84 -26l-10 -3h-2q-10 0 -15 9l-1 5q0 6 7 13q5 4 17 8q70 26 131 41q11 3 20 13q43 52 78 91.5t73 73.5q32 29 59 48q17 12 34 16q3 1 10 1q16 0 26 -10t11 -28q1 -14 -6 -36q-11 -35 -39 -105q-1 -2 -2.5 -6t-0.5 -8h5l19 1q34 4 52 4q17 0 25 -6q7 -4 9 -9.5
t0 -10.5q-5 -11 -19 -8q-4 1 -13 1q-8 0 -13 -1l-74 -9q-9 -1 -13 -10q-37 -95 -61 -172.5t-36 -155.5q-2 -13 -8 -37q-2 -16 -2 -24q2 -15 -9 -24.5t-26 -5.5q-21 4 -29 27zM292 342q44 10 79 14q12 1 18 14q35 85 63 135l1.5 2.5t-1.5 5.5q-45 -32 -84 -71.5t-91 -99.5
l1 -3zM491 619q-9 0 -13 6q-8 8 -8 15q0 3 2 9l8 16q17 26 41 52.5t30 33.5q10 8 14 9l8 2q9 0 15 -7q12 -10 8 -21q-1 -6 -4.5 -11t-5.5 -8l-64 -75q-14 -14 -18 -17q-8 -4 -13 -4z" />
    <glyph glyph-name="Acircumflex" unicode="&#xc2;" horiz-adv-x="431" 
d="M277 -68q-5 18 -3 46q2 29 14 87l4 20q19 89 68 217q1 2 3 6.5t2 8.5q-2 1 -5 1t-9 -2q-34 -6 -102 -20q-13 -3 -21 -14q-90 -114 -167 -266q-3 -6 -15 -28t-18 -42q-5 -14 -17 -11q-5 1 -8.5 6t-2.5 12q1 6 5 18q10 29 34 75q66 129 137 224l5 7h-4q-7 0 -13 -2
q-54 -15 -84 -26l-10 -3h-2q-10 0 -15 9l-1 5q0 6 7 13q5 4 17 8q70 26 131 41q11 3 20 13q43 52 78 91.5t73 73.5q32 29 59 48q17 12 34 16q3 1 10 1q16 0 26 -10t11 -28q1 -14 -6 -36q-11 -35 -39 -105q-1 -2 -2.5 -6t-0.5 -8h5l19 1q34 4 52 4q17 0 25 -6q7 -4 9 -9.5
t0 -10.5q-5 -11 -19 -8q-4 1 -13 1q-8 0 -13 -1l-74 -9q-9 -1 -13 -10q-37 -95 -61 -172.5t-36 -155.5q-2 -13 -8 -37q-2 -16 -2 -24q2 -15 -9 -24.5t-26 -5.5q-21 4 -29 27zM292 342q44 10 79 14q12 1 18 14q35 85 63 135l1.5 2.5t-1.5 5.5q-45 -32 -84 -71.5t-91 -99.5
l1 -3zM534 602q-6 0 -11.5 5t-6.5 13q-2 7 -2 20q2 28 2 40l-3 3q-35 -41 -37 -43l-23 -25q-7 -7 -16 -7q-8 0 -13 6q-7 7 -7 15q0 9 5 14l36 45q37 48 64 75q10 10 21 10q5 0 8 -1q14 -6 16 -28q0 -16 -6 -48q-8 -48 -8 -72q0 -10 -4.5 -15.5t-12.5 -6.5h-2z" />
    <glyph glyph-name="Atilde" unicode="&#xc3;" horiz-adv-x="431" 
d="M277 -68q-5 18 -3 46q2 29 14 87l4 20q19 89 68 217q1 2 3 6.5t2 8.5q-2 1 -5 1t-9 -2q-34 -6 -102 -20q-13 -3 -21 -14q-90 -114 -167 -266q-3 -6 -15 -28t-18 -42q-5 -14 -17 -11q-5 1 -8.5 6t-2.5 12q1 6 5 18q10 29 34 75q66 129 137 224l5 7h-4q-7 0 -13 -2
q-54 -15 -84 -26l-10 -3h-2q-10 0 -15 9l-1 5q0 6 7 13q5 4 17 8q70 26 131 41q11 3 20 13q43 52 78 91.5t73 73.5q32 29 59 48q17 12 34 16q3 1 10 1q16 0 26 -10t11 -28q1 -14 -6 -36q-11 -35 -39 -105q-1 -2 -2.5 -6t-0.5 -8h5l19 1q34 4 52 4q17 0 25 -6q7 -4 9 -9.5
t0 -10.5q-5 -11 -19 -8q-4 1 -13 1q-8 0 -13 -1l-74 -9q-9 -1 -13 -10q-37 -95 -61 -172.5t-36 -155.5q-2 -13 -8 -37q-2 -16 -2 -24q2 -15 -9 -24.5t-26 -5.5q-21 4 -29 27zM292 342q44 10 79 14q12 1 18 14q35 85 63 135l1.5 2.5t-1.5 5.5q-45 -32 -84 -71.5t-91 -99.5
l1 -3zM525 614q-27 0 -45 23q-4 4 -7 8.5t-7 8.5q-14 -16 -16 -18q-8 -8 -16 -8q-5 0 -11 4q-7 6 -7 16q0 7 2 10q3 5 12.5 20.5t19.5 26.5q11 11 26 11q14 0 26 -8t30 -30q7 -9 10 -9q4 0 11 6q12 11 21 24q5 8 10 13q4 4 11 4q6 0 10 -3q8 -5 8 -17q-2 -23 -28.5 -50.5
t-49.5 -30.5z" />
    <glyph glyph-name="Adieresis" unicode="&#xc4;" horiz-adv-x="431" 
d="M277 -68q-5 18 -3 46q2 29 14 87l4 20q19 89 68 217q1 2 3 6.5t2 8.5q-2 1 -5 1t-9 -2q-34 -6 -102 -20q-13 -3 -21 -14q-90 -114 -167 -266q-3 -6 -15 -28t-18 -42q-5 -14 -17 -11q-5 1 -8.5 6t-2.5 12q1 6 5 18q10 29 34 75q66 129 137 224l5 7h-4q-7 0 -13 -2
q-54 -15 -84 -26l-10 -3h-2q-10 0 -15 9l-1 5q0 6 7 13q5 4 17 8q70 26 131 41q11 3 20 13q43 52 78 91.5t73 73.5q32 29 59 48q17 12 34 16q3 1 10 1q16 0 26 -10t11 -28q1 -14 -6 -36q-11 -35 -39 -105q-1 -2 -2.5 -6t-0.5 -8h5l19 1q34 4 52 4q17 0 25 -6q7 -4 9 -9.5
t0 -10.5q-5 -11 -19 -8q-4 1 -13 1q-8 0 -13 -1l-74 -9q-9 -1 -13 -10q-37 -95 -61 -172.5t-36 -155.5q-2 -13 -8 -37q-2 -16 -2 -24q2 -15 -9 -24.5t-26 -5.5q-21 4 -29 27zM292 342q44 10 79 14q12 1 18 14q35 85 63 135l1.5 2.5t-1.5 5.5q-45 -32 -84 -71.5t-91 -99.5
l1 -3zM543 642.5q-13 12.5 -13 30.5q-1 20 11 34t30 15t31 -12.5t14 -33.5q0 -18 -12.5 -31.5t-29.5 -14.5q-18 0 -31 12.5zM416 662q-10 11 -10 28q0 16 11 27.5t27 11.5q15 0 26 -11t10 -26q0 -17 -11.5 -29t-27.5 -12q-15 0 -25 11z" />
    <glyph glyph-name="Aring" unicode="&#xc5;" horiz-adv-x="431" 
d="M277 -68q-5 18 -3 46q2 29 14 87l4 20q19 89 68 217q1 2 3 6.5t2 8.5q-2 1 -5 1t-9 -2q-34 -6 -102 -20q-13 -3 -21 -14q-90 -114 -167 -266q-3 -6 -15 -28t-18 -42q-5 -14 -17 -11q-5 1 -8.5 6t-2.5 12q1 6 5 18q10 29 34 75q66 129 137 224l5 7h-4q-7 0 -13 -2
q-54 -15 -84 -26l-10 -3h-2q-10 0 -15 9l-1 5q0 6 7 13q5 4 17 8q70 26 131 41q11 3 20 13q43 52 78 91.5t73 73.5q32 29 59 48q17 12 34 16q3 1 10 1q16 0 26 -10t11 -28q1 -14 -6 -36q-11 -35 -39 -105q-1 -2 -2.5 -6t-0.5 -8h5l19 1q34 4 52 4q17 0 25 -6q7 -4 9 -9.5
t0 -10.5q-5 -11 -19 -8q-4 1 -13 1q-8 0 -13 -1l-74 -9q-9 -1 -13 -10q-37 -95 -61 -172.5t-36 -155.5q-2 -13 -8 -37q-2 -16 -2 -24q2 -15 -9 -24.5t-26 -5.5q-21 4 -29 27zM292 342q44 10 79 14q12 1 18 14q35 85 63 135l1.5 2.5t-1.5 5.5q-45 -32 -84 -71.5t-91 -99.5
l1 -3zM473 669q9 55 39 86q16 17 34 17q11 0 24 -6q14 -6 22 -20.5t7 -30.5q-7 -57 -45 -90q-21 -15 -35 -15q-9 0 -17 4q-29 14 -29 55zM527 653q3 0 9 4q24 18 27 51v4q0 12 -6 14h-3q-7 0 -13 -10q-16 -23 -20 -50q-2 -9 2 -11z" />
    <glyph glyph-name="AE" unicode="&#xc6;" horiz-adv-x="396" 
d="M250 -74q-20 0 -33 16q-1 1 -2 3t-3 3q-11 10 -9 30q3 54 29 125q15 44 17 52q-1 2 -5 2q-92 -28 -136 -46q-15 -6 -21 -20q-34 -85 -48 -145l-3 -9q-5 -11 -15 -8q-8 1 -10 12q0 6 2 16q9 44 35 112q1 2 2.5 5.5t0.5 6.5h-2q-3 0 -9 -4l-18 -10q-6 -3 -10 -3q-6 0 -9 4
q-3 5 -3 8q0 6 6 12l16 14q22 16 41 24q12 6 16 17q49 107 135 233q34 48 70 83q19 19 39 32q21 12 39 12q24 0 38 -21q6 -10 9 -10q1 0 11 5q49 30 119 47q8 2 11 2q11 0 15 -9q1 -2 1 -6q0 -7 -6 -12q-3 -3 -7.5 -4.5t-6.5 -2.5q-55 -17 -119 -54q-9 -5 -11 -11
q-5 -15 -11.5 -32t-13.5 -38q-21 -56 -42 -119q-3 -8 -2 -10q2 -1 5 0.5t4 1.5q16 8 50 22l36 16q6 2 35 17q5 4 13 4q9 0 15 -9q3 -4 3 -11q0 -9 -9 -17q-5 -4 -17 -10q-26 -14 -80 -36q-22 -9 -45 -21l-27 -13q-4 -1 -5 -5.5t-2 -6.5l-39 -122q-12 -38 -22 -56q4 -4 9 1
l42 27q65 45 135 66q18 6 30 7h3q13 0 16 -10l1 -4q-2 -11 -13 -15q-24 -10 -36 -14q-54 -21 -99 -57l-52 -39q-17 -12 -33 -16q-10 -2 -15 -2zM256 195q8 2 11 12q21 57 58 146q25 63 33 90q4 10 4 17q0 8 -8 6l-10 -3q-15 -6 -31 -22q-32 -28 -60 -65q-72 -96 -133 -214
q-1 -1 -2.5 -3.5t-0.5 -5.5q1 -1 4 -1q60 21 135 43z" />
    <glyph glyph-name="Ccedilla" unicode="&#xc7;" horiz-adv-x="348" 
d="M46.5 -66.5q-24.5 16.5 -35.5 48.5q-11 29 -11 63t13 82q20 74 57 140q84 147 216 266q27 26 60 39q13 5 23 5q20 0 33 -14.5t15 -34.5q2 -21 -4 -65q-12 -75 -51 -156q-5 -9 -9 -16t-7 -12q-9 -12 -18 -6q-5 3 -5 9t2 9q19 35 34 74q28 76 27 151q0 2 -1 10.5t-8 12.5
q-2 1 -5 1q-5 0 -10 -3.5t-8 -4.5q-23 -17 -38 -34q-121 -134 -183 -259q-42 -85 -57 -167q-3 -21 -3 -42q0 -15 1 -23q2 -12 4 -16q9 -24 34 -25q31 0 52 11q23 11 30 17q36 25 59 43t43 40l6 5q4 2 6 2q5 0 8 -3q7 -6 4 -14q0 -2 -6 -10q-12 -16 -27 -30q-42 -39 -97 -78
q-39 -28 -85 -31q-34 -1 -58.5 15.5zM42 -274q-17 0 -27 10q-15 12 -15 34q0 9 3 17q7 19 18 29q8 6 15 6t11 -4q7 -7 7 -13q0 -4 -4 -12l-9 -16q-2 -7 1 -9q4 -3 10 1q2 1 6.5 4t7.5 7q20 20 34 50q4 9 4 20q0 7 -1 11q-3 12 -12 4l-9 -11l-2.5 -5t-4.5 -6q-10 -10 -19 -10
q-2 0 -8 2q-8 3 -12 10t-3 16q6 27 26 68q6 13 22 11t19 -18q2 -10 9 -12q33 -9 35 -51q0 -29 -11 -53q-20 -38 -53 -65q-10 -7 -14 -9q-10 -6 -24 -6z" />
    <glyph glyph-name="Egrave" unicode="&#xc8;" horiz-adv-x="354" 
d="M43 -137q-25 0 -36 27q-5 16 -7 37q-1 37 12 97q22 99 81 215q40 82 91 158q1 1 2.5 3t1.5 4q0 1 -1 2t-2 1q-15 5 -15 16q0 6 6 13l10 10q21 16 23 17q120 84 266 136l19 6q8 2 14 1q12 -2 15 -12q1 -2 1 -7q0 -8 -6 -13q-1 -1 -11 -6q-121 -50 -188 -84q-5 -3 -13 -11
l-15 -23q-6 -7 -16 -23q-76 -121 -125 -228q-5 -10 -5 -14q4 0 10 4q47 29 124 66q16 7 20 8h5q13 0 17 -12q1 -2 1 -5q0 -9 -12 -17q-91 -46 -184 -102q-8 -4 -12 -12q-20 -54 -33.5 -96t-21.5 -84q-2 -12 -1 -20l3 -1q5 0 9 4q22 12 48 29l31 20q42 29 79 51q36 22 58 31
q10 4 15 4h2q7 0 12 -7q1 -2 1 -5q0 -7 -6 -12l-5 -4q-39 -20 -80 -49t-51 -36l-23 -16l-17 -12q-33 -25 -47 -33q-15 -9 -26 -13q-9 -3 -18 -3zM361.5 592.5q-8.5 6.5 -10.5 18.5q-1 5 -9 47q-10 51 -12 74l-1 6q0 2 2 10q3 7 8.5 11t11.5 4q5 0 9 -3q11 -8 18 -15t8 -17
q2 -20 10 -60l6 -34l1 -14q0 -14 -6 -22.5t-17 -9.5q-10 -2 -18.5 4.5z" />
    <glyph glyph-name="Eacute" unicode="&#xc9;" horiz-adv-x="354" 
d="M43 -137q-25 0 -36 27q-5 16 -7 37q-1 37 12 97q22 99 81 215q40 82 91 158q1 1 2.5 3t1.5 4q0 1 -1 2t-2 1q-15 5 -15 16q0 6 6 13l10 10q21 16 23 17q120 84 266 136l19 6q8 2 14 1q12 -2 15 -12q1 -2 1 -7q0 -8 -6 -13q-1 -1 -11 -6q-121 -50 -188 -84q-5 -3 -13 -11
l-15 -23q-6 -7 -16 -23q-76 -121 -125 -228q-5 -10 -5 -14q4 0 10 4q47 29 124 66q16 7 20 8h5q13 0 17 -12q1 -2 1 -5q0 -9 -12 -17q-91 -46 -184 -102q-8 -4 -12 -12q-20 -54 -33.5 -96t-21.5 -84q-2 -12 -1 -20l3 -1q5 0 9 4q22 12 48 29l31 20q42 29 79 51q36 22 58 31
q10 4 15 4h2q7 0 12 -7q1 -2 1 -5q0 -7 -6 -12l-5 -4q-39 -20 -80 -49t-51 -36l-23 -16l-17 -12q-33 -25 -47 -33q-15 -9 -26 -13q-9 -3 -18 -3zM381 630q-9 0 -13 6q-8 8 -8 15q0 3 2 9l8 16q17 26 41 52.5t30 33.5q10 8 14 9l8 2q9 0 15 -7q12 -10 8 -21q-1 -6 -4.5 -11
t-5.5 -8l-64 -75q-14 -14 -18 -17q-8 -4 -13 -4z" />
    <glyph glyph-name="Ecircumflex" unicode="&#xca;" horiz-adv-x="354" 
d="M43 -137q-25 0 -36 27q-5 16 -7 37q-1 37 12 97q22 99 81 215q40 82 91 158q1 1 2.5 3t1.5 4q0 1 -1 2t-2 1q-15 5 -15 16q0 6 6 13l10 10q21 16 23 17q120 84 266 136l19 6q8 2 14 1q12 -2 15 -12q1 -2 1 -7q0 -8 -6 -13q-1 -1 -11 -6q-121 -50 -188 -84q-5 -3 -13 -11
l-15 -23q-6 -7 -16 -23q-76 -121 -125 -228q-5 -10 -5 -14q4 0 10 4q47 29 124 66q16 7 20 8h5q13 0 17 -12q1 -2 1 -5q0 -9 -12 -17q-91 -46 -184 -102q-8 -4 -12 -12q-20 -54 -33.5 -96t-21.5 -84q-2 -12 -1 -20l3 -1q5 0 9 4q22 12 48 29l31 20q42 29 79 51q36 22 58 31
q10 4 15 4h2q7 0 12 -7q1 -2 1 -5q0 -7 -6 -12l-5 -4q-39 -20 -80 -49t-51 -36l-23 -16l-17 -12q-33 -25 -47 -33q-15 -9 -26 -13q-9 -3 -18 -3zM433 607q-6 0 -11.5 5t-6.5 13q-2 7 -2 20q2 28 2 40l-3 3q-35 -41 -37 -43l-23 -25q-7 -7 -16 -7q-8 0 -13 6q-7 7 -7 15
q0 9 5 14l36 45q37 48 64 75q10 10 21 10q5 0 8 -1q14 -6 16 -28q0 -16 -6 -48q-8 -48 -8 -72q0 -10 -4.5 -15.5t-12.5 -6.5h-2z" />
    <glyph glyph-name="Edieresis" unicode="&#xcb;" horiz-adv-x="354" 
d="M43 -137q-25 0 -36 27q-5 16 -7 37q-1 37 12 97q22 99 81 215q40 82 91 158q1 1 2.5 3t1.5 4q0 1 -1 2t-2 1q-15 5 -15 16q0 6 6 13l10 10q21 16 23 17q120 84 266 136l19 6q8 2 14 1q12 -2 15 -12q1 -2 1 -7q0 -8 -6 -13q-1 -1 -11 -6q-121 -50 -188 -84q-5 -3 -13 -11
l-15 -23q-6 -7 -16 -23q-76 -121 -125 -228q-5 -10 -5 -14q4 0 10 4q47 29 124 66q16 7 20 8h5q13 0 17 -12q1 -2 1 -5q0 -9 -12 -17q-91 -46 -184 -102q-8 -4 -12 -12q-20 -54 -33.5 -96t-21.5 -84q-2 -12 -1 -20l3 -1q5 0 9 4q22 12 48 29l31 20q42 29 79 51q36 22 58 31
q10 4 15 4h2q7 0 12 -7q1 -2 1 -5q0 -7 -6 -12l-5 -4q-39 -20 -80 -49t-51 -36l-23 -16l-17 -12q-33 -25 -47 -33q-15 -9 -26 -13q-9 -3 -18 -3zM428 646.5q-13 12.5 -13 30.5q-1 20 11 34t30 15t31 -12.5t14 -33.5q0 -18 -12.5 -31.5t-29.5 -14.5q-18 0 -31 12.5zM301 666
q-10 11 -10 28q0 16 11 27.5t27 11.5q15 0 26 -11t10 -26q0 -17 -11.5 -29t-27.5 -12q-15 0 -25 11z" />
    <glyph glyph-name="Igrave" unicode="&#xcc;" horiz-adv-x="257" 
d="M2 -110q-2 4 -2 7q0 4 4 10q5 7 15 10l34 15q8 3 8 12q-1 57 31 134q23 58 41 94l38 76l18 35q35 69 45 89q9 20 33 56q12 20 25 32q4 3 7 10q-6 0 -13 -2.5t-10 -3.5q-4 -2 -12 -2q-9 0 -14 8q-2 6 -2 8q0 5 3.5 10.5t10.5 8.5q38 18 60 21q22 2 58 8h11q7 0 10 -1
q14 -5 16 -17q0 -13 -13 -20q-5 -2 -17 -4q-8 0 -13 -1q-10 0 -14 -2q-3 -1 -3 -5.5t-1 -7.5l-6 -14l-22 -47q-60 -130 -109 -227q-29 -57 -54 -122l-8 -20q-19 -51 -38 -87l21 3q14 2 20 2q19 -2 22 -17v-4q0 -6 -4.5 -11.5t-12.5 -7.5q-9 -3 -28 -5q-28 -1 -73 -16
l-38 -12q-4 -1 -11 -1q-10 0 -13 8zM366.5 578.5q-8.5 6.5 -10.5 18.5q-1 5 -9 47q-10 51 -12 74l-1 6q0 2 2 10q3 7 8.5 11t11.5 4q5 0 9 -3q11 -8 18 -15t8 -17q2 -20 10 -60l6 -34l1 -14q0 -14 -6 -22.5t-17 -9.5q-10 -2 -18.5 4.5z" />
    <glyph glyph-name="Iacute" unicode="&#xcd;" horiz-adv-x="257" 
d="M2 -110q-2 4 -2 7q0 4 4 10q5 7 15 10l34 15q8 3 8 12q-1 57 31 134q23 58 41 94l38 76l18 35q35 69 45 89q9 20 33 56q12 20 25 32q4 3 7 10q-6 0 -13 -2.5t-10 -3.5q-4 -2 -12 -2q-9 0 -14 8q-2 6 -2 8q0 5 3.5 10.5t10.5 8.5q38 18 60 21q22 2 58 8h11q7 0 10 -1
q14 -5 16 -17q0 -13 -13 -20q-5 -2 -17 -4q-8 0 -13 -1q-10 0 -14 -2q-3 -1 -3 -5.5t-1 -7.5l-6 -14l-22 -47q-60 -130 -109 -227q-29 -57 -54 -122l-8 -20q-19 -51 -38 -87l21 3q14 2 20 2q19 -2 22 -17v-4q0 -6 -4.5 -11.5t-12.5 -7.5q-9 -3 -28 -5q-28 -1 -73 -16
l-38 -12q-4 -1 -11 -1q-10 0 -13 8zM365 601q-9 0 -13 6q-8 8 -8 15q0 3 2 9l8 16q17 26 41 52.5t30 33.5q10 8 14 9l8 2q9 0 15 -7q12 -10 8 -21q-1 -6 -4.5 -11t-5.5 -8l-64 -75q-14 -14 -18 -17q-8 -4 -13 -4z" />
    <glyph glyph-name="Icircumflex" unicode="&#xce;" horiz-adv-x="257" 
d="M2 -110q-2 4 -2 7q0 4 4 10q5 7 15 10l34 15q8 3 8 12q-1 57 31 134q23 58 41 94l38 76l18 35q35 69 45 89q9 20 33 56q12 20 25 32q4 3 7 10q-6 0 -13 -2.5t-10 -3.5q-4 -2 -12 -2q-9 0 -14 8q-2 6 -2 8q0 5 3.5 10.5t10.5 8.5q38 18 60 21q22 2 58 8h11q7 0 10 -1
q14 -5 16 -17q0 -13 -13 -20q-5 -2 -17 -4q-8 0 -13 -1q-10 0 -14 -2q-3 -1 -3 -5.5t-1 -7.5l-6 -14l-22 -47q-60 -130 -109 -227q-29 -57 -54 -122l-8 -20q-19 -51 -38 -87l21 3q14 2 20 2q19 -2 22 -17v-4q0 -6 -4.5 -11.5t-12.5 -7.5q-9 -3 -28 -5q-28 -1 -73 -16
l-38 -12q-4 -1 -11 -1q-10 0 -13 8zM419 582q-6 0 -11.5 5t-6.5 13q-2 7 -2 20q2 28 2 40l-3 3q-35 -41 -37 -43l-23 -25q-7 -7 -16 -7q-8 0 -13 6q-7 7 -7 15q0 9 5 14l36 45q37 48 64 75q10 10 21 10q5 0 8 -1q14 -6 16 -28q0 -16 -6 -48q-8 -48 -8 -72q0 -10 -4.5 -15.5
t-12.5 -6.5h-2z" />
    <glyph glyph-name="Idieresis" unicode="&#xcf;" horiz-adv-x="257" 
d="M2 -110q-2 4 -2 7q0 4 4 10q5 7 15 10l34 15q8 3 8 12q-1 57 31 134q23 58 41 94l38 76l18 35q35 69 45 89q9 20 33 56q12 20 25 32q4 3 7 10q-6 0 -13 -2.5t-10 -3.5q-4 -2 -12 -2q-9 0 -14 8q-2 6 -2 8q0 5 3.5 10.5t10.5 8.5q38 18 60 21q22 2 58 8h11q7 0 10 -1
q14 -5 16 -17q0 -13 -13 -20q-5 -2 -17 -4q-8 0 -13 -1q-10 0 -14 -2q-3 -1 -3 -5.5t-1 -7.5l-6 -14l-22 -47q-60 -130 -109 -227q-29 -57 -54 -122l-8 -20q-19 -51 -38 -87l21 3q14 2 20 2q19 -2 22 -17v-4q0 -6 -4.5 -11.5t-12.5 -7.5q-9 -3 -28 -5q-28 -1 -73 -16
l-38 -12q-4 -1 -11 -1q-10 0 -13 8zM408 611.5q-13 12.5 -13 30.5q-1 20 11 34t30 15t31 -12.5t14 -33.5q0 -18 -12.5 -31.5t-29.5 -14.5q-18 0 -31 12.5zM281 631q-10 11 -10 28q0 16 11 27.5t27 11.5q15 0 26 -11t10 -26q0 -17 -11.5 -29t-27.5 -12q-15 0 -25 11z" />
    <glyph glyph-name="Eth" unicode="&#xd0;" horiz-adv-x="502" 
d="M197 -90q-14 10 -20 29q-5 12 -5 30q0 13 3 27q9 35 31 63q29 38 67 66q18 12 30 15q8 2 11 2q7 0 13 -3q9 -4 9 -15q-2 -11 -13 -11q-14 -1 -30 -15q-43 -36 -60 -71q-11 -23 -13 -41l-1 -6v-5q0 -10 4 -12q1 -1 3 -1q3 0 6.5 2.5t4.5 3.5q34 20 66 54q33 34 52 64
q71 110 111 225q16 48 21 99q1 7 1 21q0 13 -2 20q-2 10 -7.5 14t-15.5 4t-28 -6q-25 -10 -51 -26q-52 -34 -89 -71q-137 -136 -217 -304q-21 -45 -28 -79q-2 -13 -14 -13q-2 0 -4.5 -1.5t-4.5 -2.5q-8 -4 -11 -4q-5 0 -9.5 4.5t-5.5 11.5l-1 10l1 11q3 36 17 103
q32 159 122 358q9 18 26 41l9 9q12 10 23 10q2 0 10 -2q16 -8 18 -30v-2q0 -10 -10 -17q-4 -2 -8 -11q-8 -26 -27 -66q-55 -114 -89 -224q-2 -4 -4 -12v-3q5 3 9 13q75 127 171 224q70 69 145 104q27 12 47 16q5 1 15 1q42 0 60 -41q17 -38 17 -85q0 -11 -2 -31
q-5 -41 -24 -92q-39 -104 -103 -208q-29 -46 -66 -83q-40 -38 -83 -59q-24 -11 -43 -11q-20 -1 -34 9zM33 234q-8 0 -18 5q-15 8 -15 23q0 16 17 21q12 5 38 9q34 7 71 9q9 0 29 2q14 1 41.5 2t47.5 1q24 0 43 -13q17 -12 14 -29q-3 -15 -21 -22q-24 -7 -42 -7l-24 -1
q-30 -2 -41 -2q-15 0 -22 1h-85z" />
    <glyph glyph-name="Ntilde" unicode="&#xd1;" horiz-adv-x="416" 
d="M259 -63q-9 18 -11 50q-1 7 -1 21q0 36 12 84q29 116 100 255q35 66 80 141l8 14q-6 -1 -8.5 -4t-3.5 -4q-46 -48 -92 -106q-104 -129 -250 -342q-11 -19 -26 -38q-8 -10 -13 -14q-11 -8 -22 -8t-19.5 7.5t-11.5 19.5q-1 4 -1 11q0 11 3 20q42 162 101 268q36 64 57 93
q10 14 16 20q10 8 19 8q5 0 13 -4q11 -6 11 -20q0 -4 -2 -10l-11 -25q-47 -97 -82 -184l-6 -17q5 3 7.5 6.5t3.5 4.5l162 211q61 79 136 152q24 22 47 40q14 10 26 14q8 2 13 2q14 0 23.5 -10t8.5 -26q0 -13 -7 -29q-12 -34 -34 -75l-57 -107q-66 -121 -97 -215
q-12 -39 -29 -106l-6 -25q-5 -18 -5 -42q0 -13 9 -18q18 -10 13 -27t-27 -17q-34 2 -47 31zM433 634q-27 0 -45 23q-4 4 -7 8.5t-7 8.5q-14 -16 -16 -18q-8 -8 -16 -8q-5 0 -11 4q-7 6 -7 16q0 7 2 10q3 5 12.5 20.5t19.5 26.5q11 11 26 11q14 0 26 -8t30 -30q7 -9 10 -9
q4 0 11 6q12 11 21 24q5 8 10 13q4 4 11 4q6 0 10 -3q8 -5 8 -17q-2 -23 -28.5 -50.5t-49.5 -30.5z" />
    <glyph glyph-name="Ograve" unicode="&#xd2;" horiz-adv-x="378" 
d="M108 -71q-29 0 -53 14.5t-38 41.5q-15 31 -17 76v14q1 54 18 119q25 98 71 178q15 28 31 47q13 16 24 22q12 5 19 20q23 41 49 71q27 29 56 44q25 13 49 13q26 0 47.5 -14t34.5 -40q19 -38 19 -81q1 -65 -14 -133q-16 -80 -44 -146q-40 -104 -115 -177q-38 -40 -87 -59
q-16 -7 -34 -9q-5 -1 -16 -1zM160 -6q47 21 80 59q53 59 89 137q33 68 50 170q1 6 5 31.5t4 48.5q0 12 -1 18q-4 38 -16 63q-8 18 -22 27t-32 9q-14 0 -29 -6q-22 -9 -43 -30q-27 -26 -56 -73q-3 -7 -1 -12q4 -5 4 -12q0 -6 -4 -14l-36 -71q-31 -64 -49 -120
q-27 -83 -28 -153q0 -37 6 -55q5 -16 14.5 -23t26.5 -5q18 3 38 11zM352.5 610.5q-8.5 6.5 -10.5 18.5q-1 5 -9 47q-10 51 -12 74l-1 6q0 2 2 10q3 7 8.5 11t11.5 4q5 0 9 -3q11 -8 18 -15t8 -17q2 -20 10 -60l6 -34l1 -14q0 -14 -6 -22.5t-17 -9.5q-10 -2 -18.5 4.5z" />
    <glyph glyph-name="Oacute" unicode="&#xd3;" horiz-adv-x="378" 
d="M108 -71q-29 0 -53 14.5t-38 41.5q-15 31 -17 76v14q1 54 18 119q25 98 71 178q15 28 31 47q13 16 24 22q12 5 19 20q23 41 49 71q27 29 56 44q25 13 49 13q26 0 47.5 -14t34.5 -40q19 -38 19 -81q1 -65 -14 -133q-16 -80 -44 -146q-40 -104 -115 -177q-38 -40 -87 -59
q-16 -7 -34 -9q-5 -1 -16 -1zM160 -6q47 21 80 59q53 59 89 137q33 68 50 170q1 6 5 31.5t4 48.5q0 12 -1 18q-4 38 -16 63q-8 18 -22 27t-32 9q-14 0 -29 -6q-22 -9 -43 -30q-27 -26 -56 -73q-3 -7 -1 -12q4 -5 4 -12q0 -6 -4 -14l-36 -71q-31 -64 -49 -120
q-27 -83 -28 -153q0 -37 6 -55q5 -16 14.5 -23t26.5 -5q18 3 38 11zM315 632q-9 0 -13 6q-8 8 -8 15q0 3 2 9l8 16q17 26 41 52.5t30 33.5q10 8 14 9l8 2q9 0 15 -7q12 -10 8 -21q-1 -6 -4.5 -11t-5.5 -8l-64 -75q-14 -14 -18 -17q-8 -4 -13 -4z" />
    <glyph glyph-name="Ocircumflex" unicode="&#xd4;" horiz-adv-x="378" 
d="M108 -71q-29 0 -53 14.5t-38 41.5q-15 31 -17 76v14q1 54 18 119q25 98 71 178q15 28 31 47q13 16 24 22q12 5 19 20q23 41 49 71q27 29 56 44q25 13 49 13q26 0 47.5 -14t34.5 -40q19 -38 19 -81q1 -65 -14 -133q-16 -80 -44 -146q-40 -104 -115 -177q-38 -40 -87 -59
q-16 -7 -34 -9q-5 -1 -16 -1zM160 -6q47 21 80 59q53 59 89 137q33 68 50 170q1 6 5 31.5t4 48.5q0 12 -1 18q-4 38 -16 63q-8 18 -22 27t-32 9q-14 0 -29 -6q-22 -9 -43 -30q-27 -26 -56 -73q-3 -7 -1 -12q4 -5 4 -12q0 -6 -4 -14l-36 -71q-31 -64 -49 -120
q-27 -83 -28 -153q0 -37 6 -55q5 -16 14.5 -23t26.5 -5q18 3 38 11zM387 609q-6 0 -11.5 5t-6.5 13q-2 7 -2 20q2 28 2 40l-3 3q-35 -41 -37 -43l-23 -25q-7 -7 -16 -7q-8 0 -13 6q-7 7 -7 15q0 9 5 14l36 45q37 48 64 75q10 10 21 10q5 0 8 -1q14 -6 16 -28q0 -16 -6 -48
q-8 -48 -8 -72q0 -10 -4.5 -15.5t-12.5 -6.5h-2z" />
    <glyph glyph-name="Otilde" unicode="&#xd5;" horiz-adv-x="378" 
d="M108 -71q-29 0 -53 14.5t-38 41.5q-15 31 -17 76v14q1 54 18 119q25 98 71 178q15 28 31 47q13 16 24 22q12 5 19 20q23 41 49 71q27 29 56 44q25 13 49 13q26 0 47.5 -14t34.5 -40q19 -38 19 -81q1 -65 -14 -133q-16 -80 -44 -146q-40 -104 -115 -177q-38 -40 -87 -59
q-16 -7 -34 -9q-5 -1 -16 -1zM160 -6q47 21 80 59q53 59 89 137q33 68 50 170q1 6 5 31.5t4 48.5q0 12 -1 18q-4 38 -16 63q-8 18 -22 27t-32 9q-14 0 -29 -6q-22 -9 -43 -30q-27 -26 -56 -73q-3 -7 -1 -12q4 -5 4 -12q0 -6 -4 -14l-36 -71q-31 -64 -49 -120
q-27 -83 -28 -153q0 -37 6 -55q5 -16 14.5 -23t26.5 -5q18 3 38 11zM369 618q-27 0 -45 23q-4 4 -7 8.5t-7 8.5q-14 -16 -16 -18q-8 -8 -16 -8q-5 0 -11 4q-7 6 -7 16q0 7 2 10q3 5 12.5 20.5t19.5 26.5q11 11 26 11q14 0 26 -8t30 -30q7 -9 10 -9q4 0 11 6q12 11 21 24
q5 8 10 13q4 4 11 4q6 0 10 -3q8 -5 8 -17q-2 -23 -28.5 -50.5t-49.5 -30.5z" />
    <glyph glyph-name="Odieresis" unicode="&#xd6;" horiz-adv-x="378" 
d="M108 -71q-29 0 -53 14.5t-38 41.5q-15 31 -17 76v14q1 54 18 119q25 98 71 178q15 28 31 47q13 16 24 22q12 5 19 20q23 41 49 71q27 29 56 44q25 13 49 13q26 0 47.5 -14t34.5 -40q19 -38 19 -81q1 -65 -14 -133q-16 -80 -44 -146q-40 -104 -115 -177q-38 -40 -87 -59
q-16 -7 -34 -9q-5 -1 -16 -1zM160 -6q47 21 80 59q53 59 89 137q33 68 50 170q1 6 5 31.5t4 48.5q0 12 -1 18q-4 38 -16 63q-8 18 -22 27t-32 9q-14 0 -29 -6q-22 -9 -43 -30q-27 -26 -56 -73q-3 -7 -1 -12q4 -5 4 -12q0 -6 -4 -14l-36 -71q-31 -64 -49 -120
q-27 -83 -28 -153q0 -37 6 -55q5 -16 14.5 -23t26.5 -5q18 3 38 11zM376 646.5q-13 12.5 -13 30.5q-1 20 11 34t30 15t31 -12.5t14 -33.5q0 -18 -12.5 -31.5t-29.5 -14.5q-18 0 -31 12.5zM249 666q-10 11 -10 28q0 16 11 27.5t27 11.5q15 0 26 -11t10 -26q0 -17 -11.5 -29
t-27.5 -12q-15 0 -25 11z" />
    <glyph glyph-name="multiply" unicode="&#xd7;" horiz-adv-x="371" 
d="M234 149q-32 22 -48 34q-7 5 -12 5l-8 -2q-14 -7 -24.5 -11t-17.5 -7l-21 -9q-7 -3 -13 -9q-6 -5 -16 -5t-17 7q-7 9 -7 17q0 9 6 16q6 9 20 18l28 15l20 11q-5 5 -12 9.5t-10 6.5l-15 9q-9 8 -9 19q0 3 2 9q5 13 22 15q11 0 24 -5q22 -7 49 -27q8 -5 14 -5q5 0 11 3
q33 13 77 25q17 5 23 4q16 -2 20 -15l1 -5q0 -10 -10 -17q-8 -6 -19.5 -12t-17.5 -9q-22 -10 -33 -16q2 -3 7 -14t14 -18q4 -3 10 -11q4 -5 4 -12t-4 -12q-9 -12 -23 -9q-7 1 -15 7z" />
    <glyph glyph-name="Oslash" unicode="&#xd8;" horiz-adv-x="378" 
d="M108 -71q-29 0 -53 14.5t-38 41.5q-15 31 -17 76v14q1 54 18 119q25 98 71 178q15 28 31 47q13 16 24 22q12 5 19 20q23 41 49 71q27 29 56 44q25 13 49 13q26 0 47.5 -14t34.5 -40q19 -38 19 -81q1 -65 -14 -133q-16 -80 -44 -146q-40 -104 -115 -177q-38 -40 -87 -59
q-16 -7 -34 -9q-5 -1 -16 -1zM160 -6q47 21 80 59q53 59 89 137q33 68 50 170q1 6 5 31.5t4 48.5q0 12 -1 18q-4 38 -16 63q-8 18 -22 27t-32 9q-14 0 -29 -6q-22 -9 -43 -30q-27 -26 -56 -73q-3 -7 -1 -12q4 -5 4 -12q0 -6 -4 -14l-36 -71q-31 -64 -49 -120
q-27 -83 -28 -153q0 -37 6 -55q5 -16 14.5 -23t26.5 -5q18 3 38 11zM27.5 -139q-5.5 9 -4.5 22q3 24 17 69q10 31 34 91q52 129 156 345q17 34 49 102l48 102q6 12 27 50q7 14 17 20q8 6 16 6q9 0 14 -4q15 -9 13 -28q-2 -10 -6 -17q-21 -43 -43 -101q-4 -10 -9.5 -25
t-14.5 -35q-27 -64 -109 -245l-21 -45l-32 -70q-62 -134 -87 -204q-6 -15 -15 -31q-10 -15 -26 -15q-6 0 -9 1q-9 3 -14.5 12z" />
    <glyph glyph-name="Ugrave" unicode="&#xd9;" horiz-adv-x="400" 
d="M215 -68q-2 8 -2 12l1 12q9 65 33 125q3 6 11 29q-5 -3 -7.5 -7t-3.5 -5q-41 -61 -69 -95q-31 -37 -63 -61q-21 -16 -39 -21q-11 -3 -19 -3q-17 0 -29.5 9.5t-19.5 26.5q-8 19 -8 44q0 9 2 27q3 41 26 105q58 166 170 315q16 23 31 37q10 8 19 11q14 3 23 -5.5t5 -22.5
q-2 -5 -11 -21q-57 -94 -104 -188q-55 -114 -83 -210q-10 -35 -13 -62v-6q0 -10 5 -10t14 4q13 6 35 22q30 25 65 67q30 37 82 117l18 27q33 52 49 94q15 38 53 108l18 33q8 15 24 14q7 -1 13 -6.5t8 -13.5q1 -4 1 -11q0 -8 -1 -14t-2 -10q-4 -17 -16 -49
q-42 -103 -120 -311q-13 -37 -33 -72q-12 -21 -15 -35q-6 -18 -24 -18t-24 18zM358.5 556.5q-8.5 6.5 -10.5 18.5q-1 5 -9 47q-10 51 -12 74l-1 6q0 2 2 10q3 7 8.5 11t11.5 4q5 0 9 -3q11 -8 18 -15t8 -17q2 -20 10 -60l6 -34l1 -14q0 -14 -6 -22.5t-17 -9.5
q-10 -2 -18.5 4.5z" />
    <glyph glyph-name="Uacute" unicode="&#xda;" horiz-adv-x="400" 
d="M215 -68q-2 8 -2 12l1 12q9 65 33 125q3 6 11 29q-5 -3 -7.5 -7t-3.5 -5q-41 -61 -69 -95q-31 -37 -63 -61q-21 -16 -39 -21q-11 -3 -19 -3q-17 0 -29.5 9.5t-19.5 26.5q-8 19 -8 44q0 9 2 27q3 41 26 105q58 166 170 315q16 23 31 37q10 8 19 11q14 3 23 -5.5t5 -22.5
q-2 -5 -11 -21q-57 -94 -104 -188q-55 -114 -83 -210q-10 -35 -13 -62v-6q0 -10 5 -10t14 4q13 6 35 22q30 25 65 67q30 37 82 117l18 27q33 52 49 94q15 38 53 108l18 33q8 15 24 14q7 -1 13 -6.5t8 -13.5q1 -4 1 -11q0 -8 -1 -14t-2 -10q-4 -17 -16 -49
q-42 -103 -120 -311q-13 -37 -33 -72q-12 -21 -15 -35q-6 -18 -24 -18t-24 18zM372 571q-9 0 -13 6q-8 8 -8 15q0 3 2 9l8 16q17 26 41 52.5t30 33.5q10 8 14 9l8 2q9 0 15 -7q12 -10 8 -21q-1 -6 -4.5 -11t-5.5 -8l-64 -75q-14 -14 -18 -17q-8 -4 -13 -4z" />
    <glyph glyph-name="Ucircumflex" unicode="&#xdb;" horiz-adv-x="400" 
d="M215 -68q-2 8 -2 12l1 12q9 65 33 125q3 6 11 29q-5 -3 -7.5 -7t-3.5 -5q-41 -61 -69 -95q-31 -37 -63 -61q-21 -16 -39 -21q-11 -3 -19 -3q-17 0 -29.5 9.5t-19.5 26.5q-8 19 -8 44q0 9 2 27q3 41 26 105q58 166 170 315q16 23 31 37q10 8 19 11q14 3 23 -5.5t5 -22.5
q-2 -5 -11 -21q-57 -94 -104 -188q-55 -114 -83 -210q-10 -35 -13 -62v-6q0 -10 5 -10t14 4q13 6 35 22q30 25 65 67q30 37 82 117l18 27q33 52 49 94q15 38 53 108l18 33q8 15 24 14q7 -1 13 -6.5t8 -13.5q1 -4 1 -11q0 -8 -1 -14t-2 -10q-4 -17 -16 -49
q-42 -103 -120 -311q-13 -37 -33 -72q-12 -21 -15 -35q-6 -18 -24 -18t-24 18zM435 550q-6 0 -11.5 5t-6.5 13q-2 7 -2 20q2 28 2 40l-3 3q-35 -41 -37 -43l-23 -25q-7 -7 -16 -7q-8 0 -13 6q-7 7 -7 15q0 9 5 14l36 45q37 48 64 75q10 10 21 10q5 0 8 -1q14 -6 16 -28
q0 -16 -6 -48q-8 -48 -8 -72q0 -10 -4.5 -15.5t-12.5 -6.5h-2z" />
    <glyph glyph-name="Udieresis" unicode="&#xdc;" horiz-adv-x="400" 
d="M215 -68q-2 8 -2 12l1 12q9 65 33 125q3 6 11 29q-5 -3 -7.5 -7t-3.5 -5q-41 -61 -69 -95q-31 -37 -63 -61q-21 -16 -39 -21q-11 -3 -19 -3q-17 0 -29.5 9.5t-19.5 26.5q-8 19 -8 44q0 9 2 27q3 41 26 105q58 166 170 315q16 23 31 37q10 8 19 11q14 3 23 -5.5t5 -22.5
q-2 -5 -11 -21q-57 -94 -104 -188q-55 -114 -83 -210q-10 -35 -13 -62v-6q0 -10 5 -10t14 4q13 6 35 22q30 25 65 67q30 37 82 117l18 27q33 52 49 94q15 38 53 108l18 33q8 15 24 14q7 -1 13 -6.5t8 -13.5q1 -4 1 -11q0 -8 -1 -14t-2 -10q-4 -17 -16 -49
q-42 -103 -120 -311q-13 -37 -33 -72q-12 -21 -15 -35q-6 -18 -24 -18t-24 18zM415 588.5q-13 12.5 -13 30.5q-1 20 11 34t30 15t31 -12.5t14 -33.5q0 -18 -12.5 -31.5t-29.5 -14.5q-18 0 -31 12.5zM288 608q-10 11 -10 28q0 16 11 27.5t27 11.5q15 0 26 -11t10 -26
q0 -17 -11.5 -29t-27.5 -12q-15 0 -25 11z" />
    <glyph glyph-name="Yacute" unicode="&#xdd;" horiz-adv-x="373" 
d="M71 -163q-22 0 -39.5 12.5t-27.5 35.5q-4 9 -4 20q0 6 2 16q21 66 77 108q12 8 20 9h4q8 0 14 -3.5t8 -9.5t2 -8q0 -5 -4 -8q-5 -8 -14 -4q-4 2 -6 2q-4 0 -8 -4q-44 -37 -57 -81q-2 -8 -2 -11q0 -11 14 -20q9 -5 14 1l17 15q97 94 165 227q53 101 98 205q4 8 3 12
q-7 -7 -11 -14l-25 -33l-84 -108q-37 -45 -64 -67q-13 -13 -31 -22q-9 -6 -20 -9q-10 -2 -14 -2q-14 0 -26 8.5t-16 23.5q-3 12 -3 24q0 8 2 24q4 27 16 60q42 122 102 234q3 5 23 38q5 8 12 14q8 7 18 7t17.5 -6.5t9.5 -17.5v-6q0 -7 -2 -17q-5 -19 -17 -43
q-54 -121 -74 -174q-11 -28 -22 -62l-11 -31q0 -2 -2 -6t0 -8q6 1 16 9q22 15 46 43q16 19 105 125l34 42l55 70q15 18 26 40q3 6 11 16q8 8 19 8q15 0 22 -15q4 -9 4 -23t-8 -44q-23 -76 -59 -156q-58 -126 -91 -188q-42 -80 -94 -146q-30 -38 -61 -64q-25 -21 -47 -31
q-19 -7 -32 -7zM342 596q-9 0 -13 6q-8 8 -8 15q0 3 2 9l8 16q17 26 41 52.5t30 33.5q10 8 14 9l8 2q9 0 15 -7q12 -10 8 -21q-1 -6 -4.5 -11t-5.5 -8l-64 -75q-14 -14 -18 -17q-8 -4 -13 -4z" />
    <glyph glyph-name="Thorn" unicode="&#xde;" horiz-adv-x="490" 
d="M27 -73q-8 0 -14.5 5.5t-9.5 14.5q-3 10 -3 22l1 18q3 38 18 86q18 54 44 113q71 155 133 253q51 93 74.5 134t33.5 53q14 18 22 25q10 8 16 10q3 1 8 1q8 0 13 -6.5t4 -16.5q-1 -6 -8 -20q-9 -20 -37 -74t-44 -86q-66 -130 -81 -161l-39 -83q-6 -10 -6 -17q0 -2 4 -18
q3 1 5.5 5t3.5 6q66 115 167 212q56 55 121 80q10 5 32 11q11 2 31 2q29 -3 46 -21t18 -46q1 -35 -13 -70q-43 -109 -123 -175q-82 -66 -174 -93q-24 -6 -36 -7q-8 -1 -22 -1q-16 0 -30 4t-31 15q-5 -5 -9 -17q-48 -87 -83 -134q-6 -9 -12 -15q-9 -9 -20 -9zM92 58
q5 8 24 44l12 22q2 4 2 6q0 4 -6 12q-24 -54 -36 -84l2 -1zM223 138q31 7 71 30q67 39 120 89q60 56 104 162q3 6 5 20q0 11 -9 15q-5 2 -14 2h-4q-9 0 -29 -6q-59 -20 -112 -69q-111 -102 -176 -224l-5 -8q-2 -6 4 -9q6 -4 21 -4q8 0 24 2z" />
    <glyph glyph-name="germandbls" unicode="&#xdf;" horiz-adv-x="429" 
d="M-26 -98q-1 3 -1 8t1.5 10.5t1.5 8.5q13 52 27 98q31 90 74 166q92 172 215 296q39 39 74 61q24 15 41 18q4 1 10 1q16 0 27.5 -8.5t16.5 -24.5q4 -11 4 -24q0 -5 -2 -19q-5 -24 -19 -53q-31 -69 -81 -126q-8 -8 -10 -13q1 -1 6 -4q17 -8 29 -30q19 -38 19 -74
q0 -26 -11 -56q-18 -48 -47 -79q-55 -60 -134 -84q-18 -6 -39 -6q-12 0 -18 1q-24 5 -39 21t-16 40q-3 54 40 100q15 16 38 13q15 -2 17 -14q0 -13 -15 -16t-22 -16q-15 -26 -15 -45q0 -18 13 -18q6 0 10 1q3 0 7 2q92 36 150 103q17 19 30 51q6 15 6 30t-6 30q-3 9 -9 14
t-14 5q-9 0 -20 -8q-14 -14 -22 -20q-18 -16 -39 -27q-12 -6 -23 -6q-15 0 -24 11q-7 7 -7 19q0 13 10 26q12 17 36 39l19 18l39 37q53 53 94 117q10 16 18 35q2 8 2 13v2q0 6 -8 6q-8 -1 -17 -6q-15 -7 -41 -27q-29 -22 -49 -45q-204 -217 -288 -505q-8 -28 -9 -41
q-1 -2 -1 -6q-4 -13 -15 -13t-14 13z" />
    <glyph glyph-name="agrave" unicode="&#xe0;" horiz-adv-x="322" 
d="M150 -16.5q-5 7.5 -5 18.5q0 31 11 56l28 59l7 14q-2 0 -2 2l-14 -15q-50 -56 -113 -102q-21 -15 -30 -18q-8 -4 -18 -4q-13 0 -22 8.5t-11 23.5q-1 3 -1 9q0 5 1.5 12t1.5 10q5 22 19 50q37 78 102 156q17 21 40 38q13 10 32 15q4 1 10 1q28 0 40 -25q7 -15 7 -33
q0 -9 -1 -14q0 -2 -0.5 -5.5t0.5 -8.5q3 2 15 13.5t20 23.5q16 24 25 35q10 12 20 18q7 4 15 4q7 0 14 -4q13 -9 11 -26q0 -12 -7 -26q-16 -32 -25 -48q-60 -115 -93 -186q-7 -16 -18 -31.5t-14 -19.5q-6 -7 -14.5 -10t-16.5 -1q-9 3 -14 10.5zM72 72q32 22 60 50t64 69
q3 3 2 7q-3 8 -2.5 20.5t0.5 19.5q0 17 -4 27q-17 -12 -68.5 -92.5t-55.5 -102.5zM218.5 378.5q-8.5 6.5 -10.5 18.5q-1 5 -9 47q-10 51 -12 74l-1 6q0 2 2 10q3 7 8.5 11t11.5 4q5 0 9 -3q11 -8 18 -15t8 -17q2 -20 10 -60l6 -34l1 -14q0 -14 -6 -22.5t-17 -9.5
q-10 -2 -18.5 4.5z" />
    <glyph glyph-name="aacute" unicode="&#xe1;" horiz-adv-x="322" 
d="M150 -16.5q-5 7.5 -5 18.5q0 31 11 56l28 59l7 14q-2 0 -2 2l-14 -15q-50 -56 -113 -102q-21 -15 -30 -18q-8 -4 -18 -4q-13 0 -22 8.5t-11 23.5q-1 3 -1 9q0 5 1.5 12t1.5 10q5 22 19 50q37 78 102 156q17 21 40 38q13 10 32 15q4 1 10 1q28 0 40 -25q7 -15 7 -33
q0 -9 -1 -14q0 -2 -0.5 -5.5t0.5 -8.5q3 2 15 13.5t20 23.5q16 24 25 35q10 12 20 18q7 4 15 4q7 0 14 -4q13 -9 11 -26q0 -12 -7 -26q-16 -32 -25 -48q-60 -115 -93 -186q-7 -16 -18 -31.5t-14 -19.5q-6 -7 -14.5 -10t-16.5 -1q-9 3 -14 10.5zM72 72q32 22 60 50t64 69
q3 3 2 7q-3 8 -2.5 20.5t0.5 19.5q0 17 -4 27q-17 -12 -68.5 -92.5t-55.5 -102.5zM254 404q-9 0 -13 6q-8 8 -8 15q0 3 2 9l8 16q17 26 41 52.5t30 33.5q10 8 14 9l8 2q9 0 15 -7q12 -10 8 -21q-1 -6 -4.5 -11t-5.5 -8l-64 -75q-14 -14 -18 -17q-8 -4 -13 -4z" />
    <glyph glyph-name="acircumflex" unicode="&#xe2;" horiz-adv-x="322" 
d="M150 -16.5q-5 7.5 -5 18.5q0 31 11 56l28 59l7 14q-2 0 -2 2l-14 -15q-50 -56 -113 -102q-21 -15 -30 -18q-8 -4 -18 -4q-13 0 -22 8.5t-11 23.5q-1 3 -1 9q0 5 1.5 12t1.5 10q5 22 19 50q37 78 102 156q17 21 40 38q13 10 32 15q4 1 10 1q28 0 40 -25q7 -15 7 -33
q0 -9 -1 -14q0 -2 -0.5 -5.5t0.5 -8.5q3 2 15 13.5t20 23.5q16 24 25 35q10 12 20 18q7 4 15 4q7 0 14 -4q13 -9 11 -26q0 -12 -7 -26q-16 -32 -25 -48q-60 -115 -93 -186q-7 -16 -18 -31.5t-14 -19.5q-6 -7 -14.5 -10t-16.5 -1q-9 3 -14 10.5zM72 72q32 22 60 50t64 69
q3 3 2 7q-3 8 -2.5 20.5t0.5 19.5q0 17 -4 27q-17 -12 -68.5 -92.5t-55.5 -102.5zM300 383q-6 0 -11.5 5t-6.5 13q-2 7 -2 20q2 28 2 40l-3 3q-35 -41 -37 -43l-23 -25q-7 -7 -16 -7q-8 0 -13 6q-7 7 -7 15q0 9 5 14l36 45q37 48 64 75q10 10 21 10q5 0 8 -1q14 -6 16 -28
q0 -16 -6 -48q-8 -48 -8 -72q0 -10 -4.5 -15.5t-12.5 -6.5h-2z" />
    <glyph glyph-name="atilde" unicode="&#xe3;" horiz-adv-x="322" 
d="M150 -16.5q-5 7.5 -5 18.5q0 31 11 56l28 59l7 14q-2 0 -2 2l-14 -15q-50 -56 -113 -102q-21 -15 -30 -18q-8 -4 -18 -4q-13 0 -22 8.5t-11 23.5q-1 3 -1 9q0 5 1.5 12t1.5 10q5 22 19 50q37 78 102 156q17 21 40 38q13 10 32 15q4 1 10 1q28 0 40 -25q7 -15 7 -33
q0 -9 -1 -14q0 -2 -0.5 -5.5t0.5 -8.5q3 2 15 13.5t20 23.5q16 24 25 35q10 12 20 18q7 4 15 4q7 0 14 -4q13 -9 11 -26q0 -12 -7 -26q-16 -32 -25 -48q-60 -115 -93 -186q-7 -16 -18 -31.5t-14 -19.5q-6 -7 -14.5 -10t-16.5 -1q-9 3 -14 10.5zM72 72q32 22 60 50t64 69
q3 3 2 7q-3 8 -2.5 20.5t0.5 19.5q0 17 -4 27q-17 -12 -68.5 -92.5t-55.5 -102.5zM279 402q-27 0 -45 23q-4 4 -7 8.5t-7 8.5q-14 -16 -16 -18q-8 -8 -16 -8q-5 0 -11 4q-7 6 -7 16q0 7 2 10q3 5 12.5 20.5t19.5 26.5q11 11 26 11q14 0 26 -8t30 -30q7 -9 10 -9q4 0 11 6
q12 11 21 24q5 8 10 13q4 4 11 4q6 0 10 -3q8 -5 8 -17q-2 -23 -28.5 -50.5t-49.5 -30.5z" />
    <glyph glyph-name="adieresis" unicode="&#xe4;" horiz-adv-x="322" 
d="M150 -16.5q-5 7.5 -5 18.5q0 31 11 56l28 59l7 14q-2 0 -2 2l-14 -15q-50 -56 -113 -102q-21 -15 -30 -18q-8 -4 -18 -4q-13 0 -22 8.5t-11 23.5q-1 3 -1 9q0 5 1.5 12t1.5 10q5 22 19 50q37 78 102 156q17 21 40 38q13 10 32 15q4 1 10 1q28 0 40 -25q7 -15 7 -33
q0 -9 -1 -14q0 -2 -0.5 -5.5t0.5 -8.5q3 2 15 13.5t20 23.5q16 24 25 35q10 12 20 18q7 4 15 4q7 0 14 -4q13 -9 11 -26q0 -12 -7 -26q-16 -32 -25 -48q-60 -115 -93 -186q-7 -16 -18 -31.5t-14 -19.5q-6 -7 -14.5 -10t-16.5 -1q-9 3 -14 10.5zM72 72q32 22 60 50t64 69
q3 3 2 7q-3 8 -2.5 20.5t0.5 19.5q0 17 -4 27q-17 -12 -68.5 -92.5t-55.5 -102.5zM297 419.5q-13 12.5 -13 30.5q-1 20 11 34t30 15t31 -12.5t14 -33.5q0 -18 -12.5 -31.5t-29.5 -14.5q-18 0 -31 12.5zM170 439q-10 11 -10 28q0 16 11 27.5t27 11.5q15 0 26 -11t10 -26
q0 -17 -11.5 -29t-27.5 -12q-15 0 -25 11z" />
    <glyph glyph-name="aring" unicode="&#xe5;" horiz-adv-x="322" 
d="M150 -16.5q-5 7.5 -5 18.5q0 31 11 56l28 59l7 14q-2 0 -2 2l-14 -15q-50 -56 -113 -102q-21 -15 -30 -18q-8 -4 -18 -4q-13 0 -22 8.5t-11 23.5q-1 3 -1 9q0 5 1.5 12t1.5 10q5 22 19 50q37 78 102 156q17 21 40 38q13 10 32 15q4 1 10 1q28 0 40 -25q7 -15 7 -33
q0 -9 -1 -14q0 -2 -0.5 -5.5t0.5 -8.5q3 2 15 13.5t20 23.5q16 24 25 35q10 12 20 18q7 4 15 4q7 0 14 -4q13 -9 11 -26q0 -12 -7 -26q-16 -32 -25 -48q-60 -115 -93 -186q-7 -16 -18 -31.5t-14 -19.5q-6 -7 -14.5 -10t-16.5 -1q-9 3 -14 10.5zM72 72q32 22 60 50t64 69
q3 3 2 7q-3 8 -2.5 20.5t0.5 19.5q0 17 -4 27q-17 -12 -68.5 -92.5t-55.5 -102.5zM151 349q9 55 39 86q16 17 34 17q10 0 24 -6t22 -20.5t7 -30.5q-7 -57 -45 -90q-21 -15 -35 -15q-9 0 -17 4q-29 14 -29 55zM205 333q3 0 9 4q24 18 27 51v4q0 12 -6 14h-3q-7 0 -13 -10
q-16 -23 -20 -50q-2 -9 2 -11z" />
    <glyph glyph-name="ae" unicode="&#xe6;" horiz-adv-x="372" 
d="M192 -15q-21 0 -35 17q-1 1 -2 2.5t-1 2.5q-4 0 -6.5 -2t-3.5 -3q-6 -3 -11 -3t-12 5q-17 17 -14 40q6 40 19 75l5 14q-7 -3 -13 -11q-30 -36 -44 -54l-16 -20q-12 -16 -21 -25q-17 -15 -34 -11q-17 5 -22 27q-1 4 -1 13q0 7 2 21q9 75 46 150q22 46 54 79q18 18 29 25
q15 9 30 9t26 -9.5t15 -25.5q3 -10 3 -30l-3 -34q6 1 9.5 6t4.5 6q6 8 11 12t13 3q6 0 10 9q22 31 43 47q23 20 45 26q12 2 16 2q17 0 27 -10.5t11 -29.5q1 -22 -12 -49q-37 -79 -116 -123q-15 -9 -19 -24q-12 -42 -17 -64q-2 -8 -2 -12v-3q0 -7 9 -3l16 9q24 16 52 39
l49 41q8 6 13 8q2 1 6 1q5 0 10 -5q3 -3 3 -7t-4 -10q-2 -3 -8 -7l-43 -38q-29 -26 -28 -25q-22 -21 -40 -32q-16 -13 -33 -17q-12 -2 -16 -2zM63.5 113.5q1.5 2.5 3.5 3.5l14 15l16 17l46 44q3 3 5 6t1 8q-2 8 -2 13q0 6 2 20v17q0 12 -1 17v4q0 11 -6 12h-2q-4 0 -7 -4
t-5 -6q-13 -16 -21 -31q-29 -55 -49 -131q0 -1 -0.5 -3t1.5 -4q3 0 4.5 2.5zM294 218q26 29 38 65q4 10 3 17q0 8 -8 4q-15 -9 -28 -26q-27 -36 -48 -97q19 11 43 37z" />
    <glyph glyph-name="ccedilla" unicode="&#xe7;" horiz-adv-x="227" 
d="M56 -6q-24 0 -40 17t-17 45q1 44 25.5 97t61.5 93.5t72 49.5q3 1 10 1q22 0 34 -20q12 -22 9 -43q0 -14 -4 -42q0 -10 -12 -12h-2q-6 0 -12 10q-3 9 -2 16v25q0 14 -5 21q-23 -9 -50 -45t-45.5 -79.5t-18.5 -68.5q0 -13 6 -19q1 -2 4 -2q4 0 7 1t5 2q21 8 33 16
q84 56 128 100l9 9t10 12q3 5 7 6.5t8 -0.5q9 -4 6 -16q-1 -7 -10 -18q-25 -30 -54 -53q-28 -25 -56 -47l-24 -19q-20 -14 -35 -22l-9 -4.5t-11 -4.5q-15 -6 -28 -6zM42 -188q-17 0 -27 10q-15 12 -15 34q0 9 3 17q7 19 18 29q7 6 15 6q7 0 11 -4q7 -7 7 -13q0 -4 -4 -12
l-9 -16q-2 -7 1 -9q4 -3 10 1q2 1 6.5 4t7.5 7q20 20 34 50q4 9 4 20q0 7 -1 11q-3 12 -12 4l-9 -11l-2.5 -5t-4.5 -6q-10 -10 -19 -10q-2 0 -8 2q-8 3 -12 10t-3 16q6 27 26 68q6 13 22 11t19 -18q2 -10 9 -12q33 -9 35 -51q0 -29 -11 -53q-20 -38 -53 -65q-10 -7 -14 -9
q-10 -6 -24 -6z" />
    <glyph glyph-name="egrave" unicode="&#xe8;" horiz-adv-x="223" 
d="M43 -17q-14 0 -25 6.5t-18 18.5q-10 15 -10 39q-3 30 11 67q42 109 135 183q15 12 34 20q5 2 15 2q17 0 27.5 -13t8.5 -28q1 -18 -14 -44q-40 -64 -108 -97q-8 -4 -11.5 -7.5t-5.5 -9.5q-15 -42 -19 -59q-3 -7 -5 -23v-1q0 -4 8 0q42 18 66 40l36 34q9 9 15 10q2 1 6 1
q6 0 10 -4q1 -1 1 -4q0 -10 -6 -16l-36 -38q-19 -21 -49 -43.5t-48 -30.5q-9 -3 -18 -3zM123 187q33 26 57 62q6 11 8.5 17.5t-0.5 12.5q-14 -7 -43.5 -42.5t-33.5 -52.5q-1 -3 0 -3q6 2 12 6zM218.5 378.5q-8.5 6.5 -10.5 18.5q-1 5 -9 47q-10 51 -12 74l-1 6q0 2 2 10
q3 7 8.5 11t11.5 4q5 0 9 -3q11 -8 18 -15t8 -17q2 -20 10 -60l6 -34l1 -14q0 -14 -6 -22.5t-17 -9.5q-10 -2 -18.5 4.5z" />
    <glyph glyph-name="eacute" unicode="&#xe9;" horiz-adv-x="223" 
d="M43 -17q-14 0 -25 6.5t-18 18.5q-10 15 -10 39q-3 30 11 67q42 109 135 183q15 12 34 20q5 2 15 2q17 0 27.5 -13t8.5 -28q1 -18 -14 -44q-40 -64 -108 -97q-8 -4 -11.5 -7.5t-5.5 -9.5q-15 -42 -19 -59q-3 -7 -5 -23v-1q0 -4 8 0q42 18 66 40l36 34q9 9 15 10q2 1 6 1
q6 0 10 -4q1 -1 1 -4q0 -10 -6 -16l-36 -38q-19 -21 -49 -43.5t-48 -30.5q-9 -3 -18 -3zM123 187q33 26 57 62q6 11 8.5 17.5t-0.5 12.5q-14 -7 -43.5 -42.5t-33.5 -52.5q-1 -3 0 -3q6 2 12 6zM254 404q-9 0 -13 6q-8 8 -8 15q0 3 2 9l8 16q17 26 41 52.5t30 33.5q10 8 14 9
l8 2q9 0 15 -7q12 -10 8 -21q-1 -6 -4.5 -11t-5.5 -8l-64 -75q-14 -14 -18 -17q-8 -4 -13 -4z" />
    <glyph glyph-name="ecircumflex" unicode="&#xea;" horiz-adv-x="223" 
d="M43 -17q-14 0 -25 6.5t-18 18.5q-10 15 -10 39q-3 30 11 67q42 109 135 183q15 12 34 20q5 2 15 2q17 0 27.5 -13t8.5 -28q1 -18 -14 -44q-40 -64 -108 -97q-8 -4 -11.5 -7.5t-5.5 -9.5q-15 -42 -19 -59q-3 -7 -5 -23v-1q0 -4 8 0q42 18 66 40l36 34q9 9 15 10q2 1 6 1
q6 0 10 -4q1 -1 1 -4q0 -10 -6 -16l-36 -38q-19 -21 -49 -43.5t-48 -30.5q-9 -3 -18 -3zM123 187q33 26 57 62q6 11 8.5 17.5t-0.5 12.5q-14 -7 -43.5 -42.5t-33.5 -52.5q-1 -3 0 -3q6 2 12 6zM300 383q-6 0 -11.5 5t-6.5 13q-2 7 -2 20q2 28 2 40l-3 3q-35 -41 -37 -43
l-23 -25q-7 -7 -16 -7q-8 0 -13 6q-7 7 -7 15q0 9 5 14l36 45q37 48 64 75q10 10 21 10q5 0 8 -1q14 -6 16 -28q0 -16 -6 -48q-8 -48 -8 -72q0 -10 -4.5 -15.5t-12.5 -6.5h-2z" />
    <glyph glyph-name="edieresis" unicode="&#xeb;" horiz-adv-x="223" 
d="M43 -17q-14 0 -25 6.5t-18 18.5q-10 15 -10 39q-3 30 11 67q42 109 135 183q15 12 34 20q5 2 15 2q17 0 27.5 -13t8.5 -28q1 -18 -14 -44q-40 -64 -108 -97q-8 -4 -11.5 -7.5t-5.5 -9.5q-15 -42 -19 -59q-3 -7 -5 -23v-1q0 -4 8 0q42 18 66 40l36 34q9 9 15 10q2 1 6 1
q6 0 10 -4q1 -1 1 -4q0 -10 -6 -16l-36 -38q-19 -21 -49 -43.5t-48 -30.5q-9 -3 -18 -3zM123 187q33 26 57 62q6 11 8.5 17.5t-0.5 12.5q-14 -7 -43.5 -42.5t-33.5 -52.5q-1 -3 0 -3q6 2 12 6zM297 419.5q-13 12.5 -13 30.5q-1 20 11 34t30 15t31 -12.5t14 -33.5
q0 -18 -12.5 -31.5t-29.5 -14.5q-18 0 -31 12.5zM170 439q-10 11 -10 28q0 16 11 27.5t27 11.5q15 0 26 -11t10 -26q0 -17 -11.5 -29t-27.5 -12q-15 0 -25 11z" />
    <glyph glyph-name="igrave" unicode="&#xec;" horiz-adv-x="147" 
d="M-7 27l-1 8q2 33 10 51q26 64 42 94t31 49q8 10 14 13q5 4 13 4t14 -6t7 -15v-5q0 -10 -1 -14l-5 -20t-6 -19l-43 -117q-6 -15 -28 -39q-8 -8 -19 -8q-4 0 -10 2q-15 5 -18 22zM151.5 378.5q-8.5 6.5 -10.5 18.5q-1 5 -9 47q-10 51 -12 74l-1 6q0 2 2 10q3 7 8.5 11
t11.5 4q5 0 9 -3q11 -8 18 -15t8 -17q2 -20 10 -60l6 -34l1 -14q0 -14 -6 -22.5t-17 -9.5q-10 -2 -18.5 4.5z" />
    <glyph glyph-name="iacute" unicode="&#xed;" horiz-adv-x="147" 
d="M-7 27l-1 8q2 33 10 51q26 64 42 94t31 49q8 10 14 13q5 4 13 4t14 -6t7 -15v-5q0 -10 -1 -14l-5 -20t-6 -19l-43 -117q-6 -15 -28 -39q-8 -8 -19 -8q-4 0 -10 2q-15 5 -18 22zM117 370q-9 0 -13 6q-8 8 -8 15q0 3 2 9l8 16q17 26 41 52.5t30 33.5q10 8 14 9l8 2
q9 0 15 -7q12 -10 8 -21q-1 -6 -4.5 -11t-5.5 -8l-64 -75q-15 -15 -18 -17q-8 -4 -13 -4z" />
    <glyph glyph-name="icircumflex" unicode="&#xee;" horiz-adv-x="147" 
d="M-7 27l-1 8q2 33 10 51q26 64 42 94t31 49q8 10 14 13q5 4 13 4t14 -6t7 -15v-5q0 -10 -1 -14l-5 -20t-6 -19l-43 -117q-6 -15 -28 -39q-8 -8 -19 -8q-4 0 -10 2q-15 5 -18 22zM202 354q-6 0 -11.5 5t-6.5 13q-2 7 -2 20q2 28 2 40l-3 3q-35 -41 -37 -43l-23 -25
q-7 -7 -16 -7t-13 6q-7 7 -7 15q0 9 5 14l36 45q37 48 64 75q10 10 21 10q5 0 8 -1q14 -6 16 -28q0 -16 -6 -48q-8 -48 -8 -72q0 -10 -4.5 -15.5t-12.5 -6.5h-2z" />
    <glyph glyph-name="idieresis" unicode="&#xef;" horiz-adv-x="147" 
d="M-7 27l-1 8q2 33 10 51q26 64 42 94t31 49q8 10 14 13q5 4 13 4t14 -6t7 -15v-5q0 -10 -1 -14l-5 -20t-6 -19l-43 -117q-6 -15 -28 -39q-8 -8 -19 -8q-4 0 -10 2q-15 5 -18 22zM198 419.5q-13 12.5 -13 30.5q-1 20 11 34t30 15t31 -12.5t14 -33.5q0 -18 -12.5 -31.5
t-29.5 -14.5q-18 0 -31 12.5zM71 439q-10 11 -10 28q0 16 11 27.5t27 11.5q15 0 26 -11t10 -26q0 -17 -11.5 -29t-27.5 -12q-15 0 -25 11z" />
    <glyph glyph-name="eth" unicode="&#xf0;" horiz-adv-x="313" 
d="M131.5 -74q-6.5 7 -8.5 18q-1 3 -1 11q0 7 2 19q4 33 14 77q-5 -7 -10 -13.5t-9 -12.5l-28 -36q-4 -5 -14 -13q-13 -12 -28 -12q-18 0 -32 16q-15 19 -18 46q-2 22 7 57q30 101 93 186q10 15 27 28q16 11 23 13q7 3 15 3q15 0 26 -12q19 -20 19 -47q0 -11 -3 -23
q0 -3 -2 -5q-5 -10 -15 -9q-8 0 -11 13q0 16 -2 23q0 14 -7 16h-2q-3 0 -5.5 -4.5t-4.5 -7.5q-2 -2 -2 -5q-55 -109 -78 -184l-3.5 -14t-1.5 -18q4 1 8 8q68 76 127 170q3 5 13 27q80 188 179 340q10 16 28 39q5 8 11 12q5 3 10 3q8 0 13 -5t6 -13q0 -11 -4 -18l-17 -39
q-82 -176 -122 -264q-37 -82 -62 -147l-67 -165q-9 -27 -16 -46q-5 -14 -10.5 -17t-20.5 -2q-10 0 -16.5 7zM272 426q-8 0 -18 5q-15 8 -15 23q0 16 17 21q12 5 38 9q34 7 71 9q9 0 29 2q14 1 41.5 2t47.5 1q24 0 43 -13q17 -12 14 -29q-3 -15 -21 -22q-24 -7 -42 -7l-24 -1
q-30 -2 -41 -2q-15 0 -22 1h-85z" />
    <glyph glyph-name="ntilde" unicode="&#xf1;" horiz-adv-x="382" 
d="M26 -8q-24 0 -33 25q-3 7 -3 22q0 19 9 46q27 78 78 144l16 17q10 8 15 10q10 4 14 4q8 0 16 -6q8 -7 8 -18q0 -3 -2 -11q-6 -17 -18 -41q-28 -50 -39 -77q-5 -7 -4 -12q4 1 11 8l126 119l52 47q1 1 17 14q23 20 51 29q12 4 18 4q14 0 23.5 -10t10.5 -27v-8q0 -6 -2 -20
q-8 -40 -34 -97l-37 -78q-8 -20 -21.5 -39.5t-17.5 -25.5q-9 -12 -21 -12q-3 0 -9 2q-9 2 -14.5 9t-6.5 16v3q0 7 4 19q13 45 46 109q14 28 20 42l25 53q0 1 1.5 3.5t0.5 7.5q-4 -3 -10.5 -7.5t-10.5 -8.5q-47 -36 -97 -88l-45 -47l-70 -72q-10 -11 -32 -31q-9 -9 -18 -13
q-8 -4 -17 -4zM279 402q-27 0 -45 23q-4 4 -7 8.5t-7 8.5q-14 -16 -16 -18q-8 -8 -16 -8q-5 0 -11 4q-7 6 -7 16q0 7 2 10q3 5 12.5 20.5t19.5 26.5q11 11 26 11q14 0 26 -8t30 -30q7 -9 10 -9q4 0 11 6q12 11 21 24q5 8 10 13q4 4 11 4q6 0 10 -3q8 -5 8 -17
q-2 -23 -28.5 -50.5t-49.5 -30.5z" />
    <glyph glyph-name="ograve" unicode="&#xf2;" horiz-adv-x="206" 
d="M56 -16q-23 0 -36 22q-13 23 -13 52q0 23 8 49q27 88 90 157q5 7 5 8q14 26 47 43q8 5 14 6q8 2 13 2q23 0 34 -24q5 -12 5 -29q0 -11 -1 -16q-3 -22 -11 -49q-31 -90 -77 -155q-20 -28 -32 -41q-13 -13 -21 -18q-13 -7 -25 -7zM96 74q51 68 81 158q4 13 6 29q1 3 0.5 8
t-0.5 8q-2 8 -8 4q-13 -6 -24 -14q-4 -4 -3 -8l1 -5q0 -5 -3 -11t-4 -9l-15 -29q-38 -77 -51 -127q-5 -16 -4 -30q14 12 24 26zM218.5 378.5q-8.5 6.5 -10.5 18.5q-1 5 -9 47q-10 51 -12 74l-1 6q0 2 2 10q3 7 8.5 11t11.5 4q5 0 9 -3q11 -8 18 -15t8 -17q2 -20 10 -60
l6 -34l1 -14q0 -14 -6 -22.5t-17 -9.5q-10 -2 -18.5 4.5z" />
    <glyph glyph-name="oacute" unicode="&#xf3;" horiz-adv-x="206" 
d="M56 -16q-23 0 -36 22q-13 23 -13 52q0 23 8 49q27 88 90 157q5 7 5 8q14 26 47 43q8 5 14 6q8 2 13 2q23 0 34 -24q5 -12 5 -29q0 -11 -1 -16q-3 -22 -11 -49q-31 -90 -77 -155q-20 -28 -32 -41q-13 -13 -21 -18q-13 -7 -25 -7zM96 74q51 68 81 158q4 13 6 29q1 3 0.5 8
t-0.5 8q-2 8 -8 4q-13 -6 -24 -14q-4 -4 -3 -8l1 -5q0 -5 -3 -11t-4 -9l-15 -29q-38 -77 -51 -127q-5 -16 -4 -30q14 12 24 26zM204 404q-9 0 -13 6q-8 8 -8 15q0 3 2 9l8 16q17 26 41 52.5t30 33.5q10 8 14 9l8 2q9 0 15 -7q12 -10 8 -21q-1 -6 -4.5 -11t-5.5 -8l-64 -75
q-14 -14 -18 -17q-8 -4 -13 -4z" />
    <glyph glyph-name="ocircumflex" unicode="&#xf4;" horiz-adv-x="206" 
d="M56 -16q-23 0 -36 22q-13 23 -13 52q0 23 8 49q27 88 90 157q5 7 5 8q14 26 47 43q8 5 14 6q8 2 13 2q23 0 34 -24q5 -12 5 -29q0 -11 -1 -16q-3 -22 -11 -49q-31 -90 -77 -155q-20 -28 -32 -41q-13 -13 -21 -18q-13 -7 -25 -7zM96 74q51 68 81 158q4 13 6 29q1 3 0.5 8
t-0.5 8q-2 8 -8 4q-13 -6 -24 -14q-4 -4 -3 -8l1 -5q0 -5 -3 -11t-4 -9l-15 -29q-38 -77 -51 -127q-5 -16 -4 -30q14 12 24 26zM266 383q-6 0 -11.5 5t-6.5 13q-2 7 -2 20q2 28 2 40l-3 3q-35 -41 -37 -43l-23 -25q-7 -7 -16 -7q-8 0 -13 6q-7 7 -7 15q0 9 5 14l36 45
q37 48 64 75q10 10 21 10q5 0 8 -1q14 -6 16 -28q0 -16 -6 -48q-8 -48 -8 -72q0 -10 -4.5 -15.5t-12.5 -6.5h-2z" />
    <glyph glyph-name="otilde" unicode="&#xf5;" horiz-adv-x="206" 
d="M56 -16q-23 0 -36 22q-13 23 -13 52q0 23 8 49q27 88 90 157q5 7 5 8q14 26 47 43q8 5 14 6q8 2 13 2q23 0 34 -24q5 -12 5 -29q0 -11 -1 -16q-3 -22 -11 -49q-31 -90 -77 -155q-20 -28 -32 -41q-13 -13 -21 -18q-13 -7 -25 -7zM96 74q51 68 81 158q4 13 6 29q1 3 0.5 8
t-0.5 8q-2 8 -8 4q-13 -6 -24 -14q-4 -4 -3 -8l1 -5q0 -5 -3 -11t-4 -9l-15 -29q-38 -77 -51 -127q-5 -16 -4 -30q14 12 24 26zM279 402q-27 0 -45 23q-4 4 -7 8.5t-7 8.5q-14 -16 -16 -18q-8 -8 -16 -8q-5 0 -11 4q-7 6 -7 16q0 7 2 10q3 5 12.5 20.5t19.5 26.5
q11 11 26 11q14 0 26 -8t30 -30q7 -9 10 -9q4 0 11 6q12 11 21 24q5 8 10 13q4 4 11 4q6 0 10 -3q8 -5 8 -17q-2 -23 -28.5 -50.5t-49.5 -30.5z" />
    <glyph glyph-name="odieresis" unicode="&#xf6;" horiz-adv-x="206" 
d="M56 -16q-23 0 -36 22q-13 23 -13 52q0 23 8 49q27 88 90 157q5 7 5 8q14 26 47 43q8 5 14 6q8 2 13 2q23 0 34 -24q5 -12 5 -29q0 -11 -1 -16q-3 -22 -11 -49q-31 -90 -77 -155q-20 -28 -32 -41q-13 -13 -21 -18q-13 -7 -25 -7zM96 74q51 68 81 158q4 13 6 29q1 3 0.5 8
t-0.5 8q-2 8 -8 4q-13 -6 -24 -14q-4 -4 -3 -8l1 -5q0 -5 -3 -11t-4 -9l-15 -29q-38 -77 -51 -127q-5 -16 -4 -30q14 12 24 26zM263 419.5q-13 12.5 -13 30.5q-1 20 11 34t30 15t31 -12.5t14 -33.5q0 -18 -12.5 -31.5t-29.5 -14.5q-18 0 -31 12.5zM136 439q-10 11 -10 28
q0 16 11 27.5t27 11.5q15 0 26 -11t10 -26q0 -17 -11.5 -29t-27.5 -12q-15 0 -25 11z" />
    <glyph glyph-name="divide" unicode="&#xf7;" horiz-adv-x="288" 
d="M74 194q-5 1 -8 2q-15 7 -16 19v2q0 11 13 20q10 4 15 5q46 11 88 11h33q14 0 25 -4q14 -8 14 -22q0 -13 -12 -21q-5 -4 -17 -6q-48 -8 -86 -7h-41q-3 0 -8 1zM84 133q5 25 27 37q7 4 16 4q14 0 24 -10.5t10 -26.5q-3 -27 -25 -40q-9 -6 -19 -6q-9 0 -18 6q-18 13 -15 36
zM167 274q-11 0 -19 7t-9 19q-3 19 12 36.5t35 17.5q14 0 22 -9.5t6 -22.5q-4 -32 -36 -46q-8 -2 -11 -2z" />
    <glyph glyph-name="oslash" unicode="&#xf8;" horiz-adv-x="206" 
d="M-30 -25q0 6 1 9l7 17q16 32 238 324q3 7 10 10q8 2 10 2q6 0 10 -5q4 -4 5.5 -9.5t-0.5 -10.5q-1 -5 -8 -19q-25 -36 -150 -203l-81 -110q-6 -10 -15 -18q-5 -5 -12 -5q-6 0 -10 5q-5 4 -5 13zM56 -16q-23 0 -36 22q-13 23 -13 52q0 23 8 49q27 88 90 157q5 7 5 8
q14 26 47 43q8 5 14 6q8 2 13 2q23 0 34 -24q5 -12 5 -29q0 -11 -1 -16q-3 -22 -11 -49q-31 -90 -77 -155q-20 -28 -32 -41q-13 -13 -21 -18q-13 -7 -25 -7zM96 74q51 68 81 158q4 13 6 29q1 3 0.5 8t-0.5 8q-2 8 -8 4q-13 -6 -24 -14q-4 -4 -3 -8l1 -5q0 -5 -3 -11t-4 -9
l-15 -29q-38 -77 -51 -127q-5 -16 -4 -30q14 12 24 26z" />
    <glyph glyph-name="ugrave" unicode="&#xf9;" horiz-adv-x="294" 
d="M144 -19v4q0 10 4 28q16 59 48 128l6 15q-5 -2 -10 -10q-30 -35 -63 -80q-17 -23 -32 -36q-13 -13 -24 -19q-12 -6 -22 -6q-15 0 -26 10t-14 27q-2 12 -2 19q0 13 3 25q16 89 72 165q14 19 31 30q11 8 23 8q14 -2 20 -13q3 -4 3 -10t-5 -13q-30 -38 -49.5 -82.5
t-35.5 -101.5q-3 -8 -1 -11q6 2 14 12q40 41 94 106q26 32 40 47l67 83q11 15 25 9q15 -5 13 -24q-1 -7 -7 -26q-29 -86 -58 -160q-22 -55 -38 -106l-9 -24q-4 -9 -12 -15q-10 -9 -22 -9q-8 0 -12 2q-18 8 -21 28zM218.5 378.5q-8.5 6.5 -10.5 18.5q-1 5 -9 47
q-10 51 -12 74l-1 6q0 2 2 10q3 7 8.5 11t11.5 4q5 0 9 -3q11 -8 18 -15t8 -17q2 -20 10 -60l6 -34l1 -14q0 -14 -6 -22.5t-17 -9.5q-10 -2 -18.5 4.5z" />
    <glyph glyph-name="uacute" unicode="&#xfa;" horiz-adv-x="294" 
d="M144 -19v4q0 10 4 28q16 59 48 128l6 15q-5 -2 -10 -10q-30 -35 -63 -80q-17 -23 -32 -36q-13 -13 -24 -19q-12 -6 -22 -6q-15 0 -26 10t-14 27q-2 12 -2 19q0 13 3 25q16 89 72 165q14 19 31 30q11 8 23 8q14 -2 20 -13q3 -4 3 -10t-5 -13q-30 -38 -49.5 -82.5
t-35.5 -101.5q-3 -8 -1 -11q6 2 14 12q40 41 94 106q26 32 40 47l67 83q11 15 25 9q15 -5 13 -24q-1 -7 -7 -26q-29 -86 -58 -160q-22 -55 -38 -106l-9 -24q-4 -9 -12 -15q-10 -9 -22 -9q-8 0 -12 2q-18 8 -21 28zM254 404q-9 0 -13 6q-8 8 -8 15q0 3 2 9l8 16
q17 26 41 52.5t30 33.5q10 8 14 9l8 2q9 0 15 -7q12 -10 8 -21q-1 -6 -4.5 -11t-5.5 -8l-64 -75q-14 -14 -18 -17q-8 -4 -13 -4z" />
    <glyph glyph-name="ucircumflex" unicode="&#xfb;" horiz-adv-x="294" 
d="M144 -19v4q0 10 4 28q16 59 48 128l6 15q-5 -2 -10 -10q-30 -35 -63 -80q-17 -23 -32 -36q-13 -13 -24 -19q-12 -6 -22 -6q-15 0 -26 10t-14 27q-2 12 -2 19q0 13 3 25q16 89 72 165q14 19 31 30q11 8 23 8q14 -2 20 -13q3 -4 3 -10t-5 -13q-30 -38 -49.5 -82.5
t-35.5 -101.5q-3 -8 -1 -11q6 2 14 12q40 41 94 106q26 32 40 47l67 83q11 15 25 9q15 -5 13 -24q-1 -7 -7 -26q-29 -86 -58 -160q-22 -55 -38 -106l-9 -24q-4 -9 -12 -15q-10 -9 -22 -9q-8 0 -12 2q-18 8 -21 28zM300 383q-6 0 -11.5 5t-6.5 13q-2 7 -2 20q2 28 2 40l-3 3
q-35 -41 -37 -43l-23 -25q-7 -7 -16 -7q-8 0 -13 6q-7 7 -7 15q0 9 5 14l36 45q37 48 64 75q10 10 21 10q5 0 8 -1q14 -6 16 -28q0 -16 -6 -48q-8 -48 -8 -72q0 -10 -4.5 -15.5t-12.5 -6.5h-2z" />
    <glyph glyph-name="udieresis" unicode="&#xfc;" horiz-adv-x="294" 
d="M144 -19v4q0 10 4 28q16 59 48 128l6 15q-5 -2 -10 -10q-30 -35 -63 -80q-17 -23 -32 -36q-13 -13 -24 -19q-12 -6 -22 -6q-15 0 -26 10t-14 27q-2 12 -2 19q0 13 3 25q16 89 72 165q14 19 31 30q11 8 23 8q14 -2 20 -13q3 -4 3 -10t-5 -13q-30 -38 -49.5 -82.5
t-35.5 -101.5q-3 -8 -1 -11q6 2 14 12q40 41 94 106q26 32 40 47l67 83q11 15 25 9q15 -5 13 -24q-1 -7 -7 -26q-29 -86 -58 -160q-22 -55 -38 -106l-9 -24q-4 -9 -12 -15q-10 -9 -22 -9q-8 0 -12 2q-18 8 -21 28zM297 419.5q-13 12.5 -13 30.5q-1 20 11 34t30 15t31 -12.5
t14 -33.5q0 -18 -12.5 -31.5t-29.5 -14.5q-18 0 -31 12.5zM170 439q-10 11 -10 28q0 16 11 27.5t27 11.5q15 0 26 -11t10 -26q0 -17 -11.5 -29t-27.5 -12q-15 0 -25 11z" />
    <glyph glyph-name="yacute" unicode="&#xfd;" horiz-adv-x="363" 
d="M-46 -294.5q-15 15.5 -16 42.5q-1 37 17 69q52 87 122 137q49 35 105 39q10 0 14 9q29 63 61 149q1 1 1 5l-12 -11q-26 -29 -25 -28q-60 -64 -90 -93q-14 -13 -42 -37q-13 -10 -25 -15q-9 -3 -17 -3q-20 0 -33 19q-11 16 -13 42q-2 24 9 62q28 80 81 154q6 7 8 9q3 5 7 6
q10 6 16 6q7 0 12 -4q13 -7 13 -24q0 -8 -4 -20q-9 -26 -23 -53q-34 -74 -47 -112q-6 -18 -7 -29q5 0 8.5 3t4.5 4q30 22 55 47q45 41 127 129l28 29q14 13 22 24l3 5q15 18 30 12q9 -3 13.5 -11.5t3.5 -19.5q0 -10 -7 -38q-9 -27 -38 -108q-22 -60 -42 -106q-3 -6 -3 -8
q0 -3 9 -6q20 -7 32 -15q23 -14 29 -44q2 -5 0 -11q0 -9 -10 -11h-2q-6 0 -11 7l-3 9q-4 22 -27 32l-3 1q-18 8 -21 8q-5 0 -9 -6t-8 -16q-28 -60 -52 -104q-29 -48 -64 -82q-35 -33 -70 -48q-34 -14 -65 -13q-27 2 -42 17.5zM55 -232q23 21 45 54q36 51 73 130q0 1 1.5 3.5
t0.5 4.5l-4 1q-3 0 -9 -2q-37 -9 -65 -30q-66 -48 -109 -122q-12 -19 -14 -47q0 -14 3 -19t11 -5t14 2q28 7 53 30zM254 404q-9 0 -13 6q-8 8 -8 15q0 3 2 9l8 16q17 26 41 52.5t30 33.5q10 8 14 9l8 2q9 0 15 -7q12 -10 8 -21q-1 -6 -4.5 -11t-5.5 -8l-64 -75
q-14 -14 -18 -17q-8 -4 -13 -4z" />
    <glyph glyph-name="thorn" unicode="&#xfe;" horiz-adv-x="319" 
d="M-89 -295q-2 5 -1.5 11.5t0.5 9.5q4 97 39 201q19 58 61 172q68 163 99 229t57 109q8 15 17 25q10 12 23 8q12 -5 14 -22v-4q0 -8 -3 -19q-8 -34 -24 -72l-34 -81q-12 -30 -42 -100.5t-34 -83.5q-5 -15 -5 -24q0 -5 4 -19q4 2 5.5 6t2.5 5q60 98 110 157l17 19q9 9 18 13
q12 5 19 5q19 0 31 -17t14 -40q1 -25 -5 -52q-34 -121 -151 -156q-18 -5 -33 -5q-7 0 -19 2l-8 1q-3 0 -7 -8l-60 -121q-31 -61 -43 -107q-2 -8 -12 -36q-4 -11 -9 -16q-9 -11 -24 -8q-12 3 -17 18zM57 -5q2 6 -1 7t-4 -1.5t-1 -3.5l-8 -24l2 -2zM121 39q32 15 53 31
q18 13 29 28q28 37 42 83q4 11 4 23q-1 7 -3 8t-7 -3q-12 -9 -24 -23q-58 -66 -102 -141q-1 -1 -3 -3.5t-1 -6.5q6 0 12 4z" />
    <glyph glyph-name="ydieresis" unicode="&#xff;" horiz-adv-x="363" 
d="M-46 -294.5q-15 15.5 -16 42.5q-1 37 17 69q52 87 122 137q49 35 105 39q10 0 14 9q29 63 61 149q1 1 1 5l-12 -11q-26 -29 -25 -28q-60 -64 -90 -93q-14 -13 -42 -37q-13 -10 -25 -15q-9 -3 -17 -3q-20 0 -33 19q-11 16 -13 42q-2 24 9 62q28 80 81 154q6 7 8 9q3 5 7 6
q10 6 16 6q7 0 12 -4q13 -7 13 -24q0 -8 -4 -20q-9 -26 -23 -53q-34 -74 -47 -112q-6 -18 -7 -29q5 0 8.5 3t4.5 4q30 22 55 47q45 41 127 129l28 29q14 13 22 24l3 5q15 18 30 12q9 -3 13.5 -11.5t3.5 -19.5q0 -10 -7 -38q-9 -27 -38 -108q-22 -60 -42 -106q-3 -6 -3 -8
q0 -3 9 -6q20 -7 32 -15q23 -14 29 -44q2 -5 0 -11q0 -9 -10 -11h-2q-6 0 -11 7l-3 9q-4 22 -27 32l-3 1q-18 8 -21 8q-5 0 -9 -6t-8 -16q-28 -60 -52 -104q-29 -48 -64 -82q-35 -33 -70 -48q-34 -14 -65 -13q-27 2 -42 17.5zM55 -232q23 21 45 54q36 51 73 130q0 1 1.5 3.5
t0.5 4.5l-4 1q-3 0 -9 -2q-37 -9 -65 -30q-66 -48 -109 -122q-12 -19 -14 -47q0 -14 3 -19t11 -5t14 2q28 7 53 30zM297 419.5q-13 12.5 -13 30.5q-1 20 11 34t30 15t31 -12.5t14 -33.5q0 -18 -12.5 -31.5t-29.5 -14.5q-18 0 -31 12.5zM170 439q-10 11 -10 28q0 16 11 27.5
t27 11.5q15 0 26 -11t10 -26q0 -17 -11.5 -29t-27.5 -12q-15 0 -25 11z" />
    <glyph glyph-name="Amacron" unicode="&#x100;" horiz-adv-x="431" 
d="M277 -68q-5 18 -3 46q2 29 14 87l4 20q19 89 68 217q1 2 3 6.5t2 8.5q-2 1 -5 1t-9 -2q-34 -6 -102 -20q-13 -3 -21 -14q-90 -114 -167 -266q-3 -6 -15 -28t-18 -42q-5 -14 -17 -11q-5 1 -8.5 6t-2.5 12q1 6 5 18q10 29 34 75q66 129 137 224l5 7h-4q-7 0 -13 -2
q-54 -15 -84 -26l-10 -3h-2q-10 0 -15 9l-1 5q0 6 7 13q5 4 17 8q70 26 131 41q11 3 20 13q43 52 78 91.5t73 73.5q32 29 59 48q17 12 34 16q3 1 10 1q16 0 26 -10t11 -28q1 -14 -6 -36q-11 -35 -39 -105q-1 -2 -2.5 -6t-0.5 -8h5l19 1q34 4 52 4q17 0 25 -6q7 -4 9 -9.5
t0 -10.5q-5 -11 -19 -8q-4 1 -13 1q-8 0 -13 -1l-74 -9q-9 -1 -13 -10q-37 -95 -61 -172.5t-36 -155.5q-2 -13 -8 -37q-2 -16 -2 -24q2 -15 -9 -24.5t-26 -5.5q-21 4 -29 27zM292 342q44 10 79 14q12 1 18 14q35 85 63 135l1.5 2.5t-1.5 5.5q-45 -32 -84 -71.5t-91 -99.5
l1 -3zM429 640q-15 5 -16 19v2q0 12 13 19q5 3 15 5q44 11 88 12h33q15 0 25 -5q14 -6 14 -21q0 -14 -12 -22q-7 -4 -17 -6q-52 -7 -86 -6h-41q-8 0 -16 3z" />
    <glyph glyph-name="amacron" unicode="&#x101;" horiz-adv-x="322" 
d="M150 -16.5q-5 7.5 -5 18.5q0 31 11 56l28 59l7 14q-2 0 -2 2l-14 -15q-50 -56 -113 -102q-21 -15 -30 -18q-8 -4 -18 -4q-13 0 -22 8.5t-11 23.5q-1 3 -1 9q0 5 1.5 12t1.5 10q5 22 19 50q37 78 102 156q17 21 40 38q13 10 32 15q4 1 10 1q28 0 40 -25q7 -15 7 -33
q0 -9 -1 -14q0 -2 -0.5 -5.5t0.5 -8.5q3 2 15 13.5t20 23.5q16 24 25 35q10 12 20 18q7 4 15 4q7 0 14 -4q13 -9 11 -26q0 -12 -7 -26q-16 -32 -25 -48q-60 -115 -93 -186q-7 -16 -18 -31.5t-14 -19.5q-6 -7 -14.5 -10t-16.5 -1q-9 3 -14 10.5zM72 72q32 22 60 50t64 69
q3 3 2 7q-3 8 -2.5 20.5t0.5 19.5q0 17 -4 27q-17 -12 -68.5 -92.5t-55.5 -102.5zM177 409q-15 5 -16 19v2q0 12 13 19q5 3 15 5q44 11 88 12h33q15 0 25 -5q14 -6 14 -21q0 -14 -12 -22q-7 -4 -17 -6q-52 -7 -86 -6h-41q-8 0 -16 3z" />
    <glyph glyph-name="Abreve" unicode="&#x102;" horiz-adv-x="431" 
d="M277 -68q-5 18 -3 46q2 29 14 87l4 20q19 89 68 217q1 2 3 6.5t2 8.5q-2 1 -5 1t-9 -2q-34 -6 -102 -20q-13 -3 -21 -14q-90 -114 -167 -266q-3 -6 -15 -28t-18 -42q-5 -14 -17 -11q-5 1 -8.5 6t-2.5 12q1 6 5 18q10 29 34 75q66 129 137 224l5 7h-4q-7 0 -13 -2
q-54 -15 -84 -26l-10 -3h-2q-10 0 -15 9l-1 5q0 6 7 13q5 4 17 8q70 26 131 41q11 3 20 13q43 52 78 91.5t73 73.5q32 29 59 48q17 12 34 16q3 1 10 1q16 0 26 -10t11 -28q1 -14 -6 -36q-11 -35 -39 -105q-1 -2 -2.5 -6t-0.5 -8h5l19 1q34 4 52 4q17 0 25 -6q7 -4 9 -9.5
t0 -10.5q-5 -11 -19 -8q-4 1 -13 1q-8 0 -13 -1l-74 -9q-9 -1 -13 -10q-37 -95 -61 -172.5t-36 -155.5q-2 -13 -8 -37q-2 -16 -2 -24q2 -15 -9 -24.5t-26 -5.5q-21 4 -29 27zM292 342q44 10 79 14q12 1 18 14q35 85 63 135l1.5 2.5t-1.5 5.5q-45 -32 -84 -71.5t-91 -99.5
l1 -3zM508 586q-23 0 -39.5 19t-23.5 46q-5 15 -5 38q0 10 2 28q2 19 8 26q5 8 17 8t16 -8q3 -9 4 -11q1 -9 5 -27q1 -7 3 -16.5t3 -22.5q5 -18 9 -27q4 -8 11 -10h2q3 0 13 4q14 8 31 27q22 25 46 65q2 5 5 7q3 8 12 6t7 -10q0 -9 -3 -13q-29 -58 -58 -92q-21 -21 -35 -28
q-17 -9 -30 -9z" />
    <glyph glyph-name="abreve" unicode="&#x103;" horiz-adv-x="322" 
d="M150 -16.5q-5 7.5 -5 18.5q0 31 11 56l28 59l7 14q-2 0 -2 2l-14 -15q-50 -56 -113 -102q-21 -15 -30 -18q-8 -4 -18 -4q-13 0 -22 8.5t-11 23.5q-1 3 -1 9q0 5 1.5 12t1.5 10q5 22 19 50q37 78 102 156q17 21 40 38q13 10 32 15q4 1 10 1q28 0 40 -25q7 -15 7 -33
q0 -9 -1 -14q0 -2 -0.5 -5.5t0.5 -8.5q3 2 15 13.5t20 23.5q16 24 25 35q10 12 20 18q7 4 15 4q7 0 14 -4q13 -9 11 -26q0 -12 -7 -26q-16 -32 -25 -48q-60 -115 -93 -186q-7 -16 -18 -31.5t-14 -19.5q-6 -7 -14.5 -10t-16.5 -1q-9 3 -14 10.5zM72 72q32 22 60 50t64 69
q3 3 2 7q-3 8 -2.5 20.5t0.5 19.5q0 17 -4 27q-17 -12 -68.5 -92.5t-55.5 -102.5zM251 377q-23 0 -39.5 19t-23.5 46q-5 15 -5 38q0 10 2 28q2 19 8 26q5 8 17 8t16 -8q3 -9 4 -11q1 -9 5 -27q1 -7 3 -16.5t3 -22.5q5 -18 9 -27q4 -8 11 -10h2q3 0 13 4q14 8 31 27
q22 25 46 65q2 5 5 7q3 8 12 6t7 -10q0 -9 -3 -13q-29 -58 -58 -92q-21 -21 -35 -28q-17 -9 -30 -9z" />
    <glyph glyph-name="Aogonek" unicode="&#x104;" horiz-adv-x="431" 
d="M231 -204q0 28 7 59t9 38l15 63q26 111 47.5 191t50.5 156q1 2 3 6.5t2 8.5q-2 1 -5 1t-9 -2q-34 -6 -102 -20q-13 -3 -21 -14q-90 -114 -167 -266q-3 -6 -15 -28t-18 -42q-5 -14 -17 -11q-5 1 -8.5 6t-2.5 12q1 6 5 18q10 29 34 75q66 129 137 224l5 7h-4q-7 0 -13 -2
q-54 -15 -84 -26l-10 -3h-2q-10 0 -15 9l-1 5q0 6 7 13q5 4 17 8q70 26 131 41q11 3 20 13q43 52 78 91.5t73 73.5q32 29 59 48q17 12 34 16q3 1 10 1q16 0 26 -10t11 -28q1 -14 -6 -36q-11 -35 -39 -105q-1 -2 -2.5 -6t-0.5 -8h5l19 1q34 4 52 4q17 0 25 -6q7 -4 9 -9.5
t0 -10.5q-5 -11 -19 -8q-4 1 -13 1q-8 0 -13 -1l-74 -9q-9 -1 -13 -10l-19 -49q-31 -79 -49 -128.5t-32 -102.5q-21 -83 -31 -142l-6 -27q-1 -4 -6 -29t-5 -48q0 -14 3 -26q0 -5 4 -8q3 -2 10 -2q25 4 45 15.5t50 34.5l17 13q12 8 18.5 11t15.5 0t14 -12t3 -18
q-1 -8 -6.5 -15.5t-11.5 -14.5q-39 -39 -74 -55q-36 -17 -71 -17t-56 17q-30 23 -30 74zM292 343q44 10 79 14q12 1 18 14q35 85 63 135l1.5 2.5t-1.5 5.5q-45 -32 -84 -71.5t-91 -99.5l1 -3z" />
    <glyph glyph-name="aogonek" unicode="&#x105;" horiz-adv-x="322" 
d="M187 -215q-39 0 -59 24q-16 22 -16 51q0 30 19 87l8 26q12 40 14 49q22 74 46 115q-2 0 -2 2l-14 -15q-50 -56 -113 -102q-21 -15 -30 -18q-8 -4 -18 -4q-13 0 -22 8.5t-11 23.5q-1 3 -1 9q0 5 1.5 12t1.5 10q5 22 19 50q37 78 102 156q17 21 40 38q13 10 32 15q4 1 10 1
q28 0 40 -25q7 -15 7 -33q0 -9 -1 -14q0 -2 -0.5 -5.5t0.5 -8.5q3 2 15 13.5t20 23.5q16 24 25 35q10 12 20 18q7 4 15 4q7 0 14 -4q13 -8 11 -26q0 -12 -7 -26q-16 -32 -25 -48q-34 -68 -50 -102l-25 -51q-2 -4 -11 -21q-31 -59 -52 -106t-21 -80q0 -23 13 -32q5 -4 12 -4
q14 0 31 10t32 21.5t22 16.5q20 11 30 7q7 -3 10.5 -11t1.5 -16q-2 -10 -17 -23q-35 -30 -66 -41q-25 -10 -51 -10zM80 78q32 22 60 50t64 69q3 3 2 7q-3 8 -2.5 20.5t0.5 19.5q0 17 -4 27q-17 -12 -68.5 -92.5t-55.5 -102.5z" />
    <glyph glyph-name="Cacute" unicode="&#x106;" horiz-adv-x="348" 
d="M46.5 -66.5q-24.5 16.5 -35.5 48.5q-11 29 -11 63t13 82q20 74 57 140q84 147 216 266q27 26 60 39q13 5 23 5q20 0 33 -14.5t15 -34.5q2 -21 -4 -65q-12 -75 -51 -156q-5 -9 -9 -16t-7 -12q-9 -12 -18 -6q-5 3 -5 9t2 9q19 35 34 74q28 76 27 151q0 2 -1 10.5t-8 12.5
q-2 1 -5 1q-5 0 -10 -3.5t-8 -4.5q-23 -17 -38 -34q-121 -134 -183 -259q-42 -85 -57 -167q-3 -21 -3 -42q0 -15 1 -23q2 -12 4 -16q9 -24 34 -25q31 0 52 11q23 11 30 17q36 25 59 43t43 40l6 5q4 2 6 2q5 0 8 -3q7 -6 4 -14q0 -2 -6 -10q-12 -16 -27 -30q-42 -39 -97 -78
q-39 -28 -85 -31q-34 -1 -58.5 15.5zM401 636q-9 0 -13 6q-8 8 -8 15q0 3 2 9l8 16q17 26 41 52.5t30 33.5q10 8 14 9l8 2q9 0 15 -7q12 -10 8 -21q-1 -6 -4.5 -11t-5.5 -8l-64 -75q-14 -14 -18 -17q-8 -4 -13 -4z" />
    <glyph glyph-name="cacute" unicode="&#x107;" horiz-adv-x="227" 
d="M56 -6q-24 0 -40 17t-17 45q1 44 25.5 97t61.5 93.5t72 49.5q3 1 10 1q22 0 34 -20q12 -22 9 -43q0 -14 -4 -42q0 -10 -12 -12h-2q-6 0 -12 10q-3 9 -2 16v25q0 14 -5 21q-23 -9 -50 -45t-45.5 -79.5t-18.5 -68.5q0 -13 6 -19q1 -2 4 -2q4 0 7 1t5 2q21 8 33 16
q84 56 128 100l9 9t10 12q3 5 7 6.5t8 -0.5q9 -4 6 -16q-1 -7 -10 -18q-25 -30 -54 -53q-28 -25 -56 -47l-24 -19q-20 -14 -35 -22l-9 -4.5t-11 -4.5q-15 -6 -28 -6zM254 404q-9 0 -13 6q-8 8 -8 15q0 3 2 9l8 16q17 26 41 52.5t30 33.5q10 8 14 9l8 2q9 0 15 -7
q12 -10 8 -21q-1 -6 -4.5 -11t-5.5 -8l-64 -75q-14 -14 -18 -17q-8 -4 -13 -4z" />
    <glyph glyph-name="Cdotaccent" unicode="&#x10a;" horiz-adv-x="348" 
d="M46.5 -66.5q-24.5 16.5 -35.5 48.5q-11 29 -11 63t13 82q20 74 57 140q84 147 216 266q27 26 60 39q13 5 23 5q20 0 33 -14.5t15 -34.5q2 -21 -4 -65q-12 -75 -51 -156q-5 -9 -9 -16t-7 -12q-9 -12 -18 -6q-5 3 -5 9t2 9q19 35 34 74q28 76 27 151q0 2 -1 10.5t-8 12.5
q-2 1 -5 1q-5 0 -10 -3.5t-8 -4.5q-23 -17 -38 -34q-121 -134 -183 -259q-42 -85 -57 -167q-3 -21 -3 -42q0 -15 1 -23q2 -12 4 -16q9 -24 34 -25q31 0 52 11q23 11 30 17q36 25 59 43t43 40l6 5q4 2 6 2q5 0 8 -3q7 -6 4 -14q0 -2 -6 -10q-12 -16 -27 -30q-42 -39 -97 -78
q-39 -28 -85 -31q-34 -1 -58.5 15.5zM378.5 645.5q-12.5 12.5 -13.5 31.5q0 20 12 34t30 15q17 1 30 -12.5t14 -33.5q1 -18 -11.5 -31.5t-30.5 -14.5t-30.5 11.5z" />
    <glyph glyph-name="cdotaccent" unicode="&#x10b;" horiz-adv-x="227" 
d="M56 -6q-24 0 -40 17t-17 45q1 44 25.5 97t61.5 93.5t72 49.5q3 1 10 1q22 0 34 -20q12 -22 9 -43q0 -14 -4 -42q0 -10 -12 -12h-2q-6 0 -12 10q-3 9 -2 16v25q0 14 -5 21q-23 -9 -50 -45t-45.5 -79.5t-18.5 -68.5q0 -13 6 -19q1 -2 4 -2q4 0 7 1t5 2q21 8 33 16
q84 56 128 100l9 9t10 12q3 5 7 6.5t8 -0.5q9 -4 6 -16q-1 -7 -10 -18q-25 -30 -54 -53q-28 -25 -56 -47l-24 -19q-20 -14 -35 -22l-9 -4.5t-11 -4.5q-15 -6 -28 -6zM176.5 422.5q-12.5 12.5 -13.5 31.5q0 20 12 34t30 15q17 1 30 -12.5t14 -33.5q1 -18 -11.5 -31.5
t-30.5 -14.5t-30.5 11.5z" />
    <glyph glyph-name="Ccaron" unicode="&#x10c;" horiz-adv-x="348" 
d="M46.5 -66.5q-24.5 16.5 -35.5 48.5q-11 29 -11 63t13 82q20 74 57 140q84 147 216 266q27 26 60 39q13 5 23 5q20 0 33 -14.5t15 -34.5q2 -21 -4 -65q-12 -75 -51 -156q-5 -9 -9 -16t-7 -12q-9 -12 -18 -6q-5 3 -5 9t2 9q19 35 34 74q28 76 27 151q0 2 -1 10.5t-8 12.5
q-2 1 -5 1q-5 0 -10 -3.5t-8 -4.5q-23 -17 -38 -34q-121 -134 -183 -259q-42 -85 -57 -167q-3 -21 -3 -42q0 -15 1 -23q2 -12 4 -16q9 -24 34 -25q31 0 52 11q23 11 30 17q36 25 59 43t43 40l6 5q4 2 6 2q5 0 8 -3q7 -6 4 -14q0 -2 -6 -10q-12 -16 -27 -30q-42 -39 -97 -78
q-39 -28 -85 -31q-34 -1 -58.5 15.5zM358 655q0 21 5 48q9 43 9 72q0 9 4.5 15t11.5 7h2q7 0 12.5 -5t6.5 -13q2 -8 2 -12l-1 -8q0 -14 -2 -40l4 -3l36 43q5 5 10.5 11.5t13.5 13.5q7 7 16 7q7 0 13 -6q7 -7 7 -15q0 -6 -6 -14q-17 -21 -32 -41q-42 -54 -67 -79
q-10 -10 -21 -10q-5 0 -8 1q-16 7 -16 28z" />
    <glyph glyph-name="ccaron" unicode="&#x10d;" horiz-adv-x="227" 
d="M56 -6q-24 0 -40 17t-17 45q1 44 25.5 97t61.5 93.5t72 49.5q3 1 10 1q22 0 34 -20q12 -22 9 -43q0 -14 -4 -42q0 -10 -12 -12h-2q-6 0 -12 10q-3 9 -2 16v25q0 14 -5 21q-23 -9 -50 -45t-45.5 -79.5t-18.5 -68.5q0 -13 6 -19q1 -2 4 -2q4 0 7 1t5 2q21 8 33 16
q84 56 128 100l9 9t10 12q3 5 7 6.5t8 -0.5q9 -4 6 -16q-1 -7 -10 -18q-25 -30 -54 -53q-28 -25 -56 -47l-24 -19q-20 -14 -35 -22l-9 -4.5t-11 -4.5q-15 -6 -28 -6zM170 399q0 21 5 48q9 43 9 72q0 9 4.5 15t11.5 7h2q7 0 12.5 -5t6.5 -13q2 -8 2 -12l-1 -8q0 -14 -2 -40
l4 -3l36 43q5 5 10.5 11.5t13.5 13.5q7 7 16 7q7 0 13 -6q7 -7 7 -15q0 -6 -6 -14q-17 -21 -32 -41q-42 -54 -67 -79q-10 -10 -21 -10q-5 0 -8 1q-16 7 -16 28z" />
    <glyph glyph-name="Dcaron" unicode="&#x10e;" horiz-adv-x="502" 
d="M197 -90q-14 10 -20 29q-5 12 -5 30q0 13 3 27q9 35 31 63q29 38 67 66q18 12 30 15q8 2 11 2q7 0 13 -3q9 -4 9 -15q-2 -11 -13 -11q-14 -1 -30 -15q-43 -36 -60 -71q-11 -23 -13 -41l-1 -6v-5q0 -10 4 -12q1 -1 3 -1q3 0 6.5 2.5t4.5 3.5q34 20 66 54q33 34 52 64
q71 110 111 225q16 48 21 99q1 7 1 21q0 13 -2 20q-2 10 -7.5 14t-15.5 4t-28 -6q-25 -10 -51 -26q-52 -34 -89 -71q-137 -136 -217 -304q-21 -45 -28 -79q-2 -13 -14 -13q-2 0 -4.5 -1.5t-4.5 -2.5q-8 -4 -11 -4q-5 0 -9.5 4.5t-5.5 11.5l-1 10l1 11q3 36 17 103
q32 159 122 358q9 18 26 41l9 9q12 10 23 10q2 0 10 -2q16 -8 18 -30v-2q0 -10 -10 -17q-4 -2 -8 -11q-8 -26 -27 -66q-55 -114 -89 -224q-2 -4 -4 -12v-3q5 3 9 13q75 127 171 224q70 69 145 104q27 12 47 16q5 1 15 1q42 0 60 -41q17 -38 17 -85q0 -11 -2 -31
q-5 -41 -24 -92q-39 -104 -103 -208q-29 -46 -66 -83q-40 -38 -83 -59q-24 -11 -43 -11q-20 -1 -34 9zM352 598q0 21 5 48q9 43 9 72q0 9 4.5 15t11.5 7h2q7 0 12.5 -5t6.5 -13q2 -8 2 -12l-1 -8q0 -14 -2 -40l4 -3l36 43q5 5 10.5 11.5t13.5 13.5q7 7 16 7q7 0 13 -6
q7 -7 7 -15q0 -6 -6 -14q-17 -21 -32 -41q-42 -54 -67 -79q-10 -10 -21 -10q-5 0 -8 1q-16 7 -16 28z" />
    <glyph glyph-name="dcaron" unicode="&#x10f;" horiz-adv-x="313" 
d="M131.5 -74q-6.5 7 -8.5 18q-1 3 -1 11q0 7 2 19q4 33 14 77q-5 -7 -10 -13.5t-9 -12.5l-28 -36q-4 -5 -14 -13q-13 -12 -28 -12q-18 0 -32 16q-15 19 -18 46q-2 22 7 57q30 101 93 186q10 15 27 28q16 11 23 13q7 3 15 3q15 0 26 -12q19 -20 19 -47q0 -11 -3 -23
q0 -3 -2 -5q-5 -10 -15 -9q-8 0 -11 13q0 16 -2 23q0 14 -7 16h-2q-3 0 -5.5 -4.5t-4.5 -7.5q-2 -2 -2 -5q-55 -109 -78 -184l-3.5 -14t-1.5 -18q4 1 8 8q68 76 127 170q3 5 13 27q80 188 179 340q10 16 28 39q5 8 11 12q5 3 10 3q8 0 13 -5t6 -13q0 -11 -4 -18l-17 -39
q-82 -176 -122 -264q-37 -82 -62 -147l-67 -165q-9 -27 -16 -46q-5 -14 -10.5 -17t-20.5 -2q-10 0 -16.5 7zM508 703q0 21 5 48q9 43 9 72q0 9 4.5 15t11.5 7h2q7 0 12.5 -5t6.5 -13q2 -8 2 -12l-1 -8q0 -14 -2 -40l4 -3l36 43q5 5 10.5 11.5t13.5 13.5q7 7 16 7q7 0 13 -6
q7 -7 7 -15q0 -6 -6 -14q-17 -21 -32 -41q-42 -54 -67 -79q-10 -10 -21 -10q-5 0 -8 1q-16 7 -16 28z" />
    <glyph glyph-name="Dcroat" unicode="&#x110;" horiz-adv-x="502" 
d="M197 -90q-14 10 -20 29q-5 12 -5 30q0 13 3 27q9 35 31 63q29 38 67 66q18 12 30 15q8 2 11 2q7 0 13 -3q9 -4 9 -15q-2 -11 -13 -11q-14 -1 -30 -15q-43 -36 -60 -71q-11 -23 -13 -41l-1 -6v-5q0 -10 4 -12q1 -1 3 -1q3 0 6.5 2.5t4.5 3.5q34 20 66 54q33 34 52 64
q71 110 111 225q16 48 21 99q1 7 1 21q0 13 -2 20q-2 10 -7.5 14t-15.5 4t-28 -6q-25 -10 -51 -26q-52 -34 -89 -71q-137 -136 -217 -304q-21 -45 -28 -79q-2 -13 -14 -13q-2 0 -4.5 -1.5t-4.5 -2.5q-8 -4 -11 -4q-5 0 -9.5 4.5t-5.5 11.5l-1 10l1 11q3 36 17 103
q32 159 122 358q9 18 26 41l9 9q12 10 23 10q2 0 10 -2q16 -8 18 -30v-2q0 -10 -10 -17q-4 -2 -8 -11q-8 -26 -27 -66q-55 -114 -89 -224q-2 -4 -4 -12v-3q5 3 9 13q75 127 171 224q70 69 145 104q27 12 47 16q5 1 15 1q42 0 60 -41q17 -38 17 -85q0 -11 -2 -31
q-5 -41 -24 -92q-39 -104 -103 -208q-29 -46 -66 -83q-40 -38 -83 -59q-24 -11 -43 -11q-20 -1 -34 9zM33 234q-8 0 -18 5q-15 8 -15 23q0 16 17 21q12 5 38 9q34 7 71 9q9 0 29 2q14 1 41.5 2t47.5 1q24 0 43 -13q17 -12 14 -29q-3 -15 -21 -22q-24 -7 -42 -7l-24 -1
q-30 -2 -41 -2q-15 0 -22 1h-85z" />
    <glyph glyph-name="dcroat" unicode="&#x111;" horiz-adv-x="313" 
d="M131.5 -74q-6.5 7 -8.5 18q-1 3 -1 11q0 7 2 19q4 33 14 77q-5 -7 -10 -13.5t-9 -12.5l-28 -36q-4 -5 -14 -13q-13 -12 -28 -12q-18 0 -32 16q-15 19 -18 46q-2 22 7 57q30 101 93 186q10 15 27 28q16 11 23 13q7 3 15 3q15 0 26 -12q19 -20 19 -47q0 -11 -3 -23
q0 -3 -2 -5q-5 -10 -15 -9q-8 0 -11 13q0 16 -2 23q0 14 -7 16h-2q-3 0 -5.5 -4.5t-4.5 -7.5q-2 -2 -2 -5q-55 -109 -78 -184l-3.5 -14t-1.5 -18q4 1 8 8q68 76 127 170q3 5 13 27q80 188 179 340q10 16 28 39q5 8 11 12q5 3 10 3q8 0 13 -5t6 -13q0 -11 -4 -18l-17 -39
q-82 -176 -122 -264q-37 -82 -62 -147l-67 -165q-9 -27 -16 -46q-5 -14 -10.5 -17t-20.5 -2q-10 0 -16.5 7zM238 397q-8 0 -18 5q-15 8 -15 23q0 16 17 21q12 5 38 9q34 7 71 9q9 0 29 2q14 1 41.5 2t47.5 1q24 0 43 -13q17 -12 14 -29q-3 -15 -21 -22q-25 -7 -42 -7l-24 -1
q-30 -2 -41 -2q-15 0 -22 1h-85z" />
    <glyph glyph-name="Emacron" unicode="&#x112;" horiz-adv-x="354" 
d="M43 -137q-25 0 -36 27q-5 16 -7 37q-1 37 12 97q22 99 81 215q40 82 91 158q1 1 2.5 3t1.5 4q0 1 -1 2t-2 1q-15 5 -15 16q0 6 6 13l10 10q21 16 23 17q120 84 266 136l19 6q8 2 14 1q12 -2 15 -12q1 -2 1 -7q0 -8 -6 -13q-1 -1 -11 -6q-121 -50 -188 -84q-5 -3 -13 -11
l-15 -23q-6 -7 -16 -23q-76 -121 -125 -228q-5 -10 -5 -14q4 0 10 4q47 29 124 66q16 7 20 8h5q13 0 17 -12q1 -2 1 -5q0 -9 -12 -17q-91 -46 -184 -102q-8 -4 -12 -12q-20 -54 -33.5 -96t-21.5 -84q-2 -12 -1 -20l3 -1q5 0 9 4q22 12 48 29l31 20q42 29 79 51q36 22 58 31
q10 4 15 4h2q7 0 12 -7q1 -2 1 -5q0 -7 -6 -12l-5 -4q-39 -20 -80 -49t-51 -36l-23 -16l-17 -12q-33 -25 -47 -33q-15 -9 -26 -13q-9 -3 -18 -3zM294 657q-15 5 -16 19v2q0 12 13 19q5 3 15 5q44 11 88 12h33q15 0 25 -5q14 -6 14 -21q0 -14 -12 -22q-7 -4 -17 -6
q-52 -7 -86 -6h-41q-8 0 -16 3z" />
    <glyph glyph-name="emacron" unicode="&#x113;" horiz-adv-x="223" 
d="M43 -17q-14 0 -25 6.5t-18 18.5q-10 15 -10 39q-3 30 11 67q42 109 135 183q15 12 34 20q5 2 15 2q17 0 27.5 -13t8.5 -28q1 -18 -14 -44q-40 -64 -108 -97q-8 -4 -11.5 -7.5t-5.5 -9.5q-15 -42 -19 -59q-3 -7 -5 -23v-1q0 -4 8 0q42 18 66 40l36 34q9 9 15 10q2 1 6 1
q6 0 10 -4q1 -1 1 -4q0 -10 -6 -16l-36 -38q-19 -21 -49 -43.5t-48 -30.5q-9 -3 -18 -3zM123 187q33 26 57 62q6 11 8.5 17.5t-0.5 12.5q-14 -7 -43.5 -42.5t-33.5 -52.5q-1 -3 0 -3q6 2 12 6zM177 409q-15 5 -16 19v2q0 12 13 19q5 3 15 5q44 11 88 12h33q15 0 25 -5
q14 -6 14 -21q0 -14 -12 -22q-7 -4 -17 -6q-52 -7 -86 -6h-41q-8 0 -16 3z" />
    <glyph glyph-name="Edotaccent" unicode="&#x116;" horiz-adv-x="354" 
d="M43 -137q-25 0 -36 27q-5 16 -7 37q-1 37 12 97q22 99 81 215q40 82 91 158q1 1 2.5 3t1.5 4q0 1 -1 2t-2 1q-15 5 -15 16q0 6 6 13l10 10q21 16 23 17q120 84 266 136l19 6q8 2 14 1q12 -2 15 -12q1 -2 1 -7q0 -8 -6 -13q-1 -1 -11 -6q-121 -50 -188 -84q-5 -3 -13 -11
l-15 -23q-6 -7 -16 -23q-76 -121 -125 -228q-5 -10 -5 -14q4 0 10 4q47 29 124 66q16 7 20 8h5q13 0 17 -12q1 -2 1 -5q0 -9 -12 -17q-91 -46 -184 -102q-8 -4 -12 -12q-20 -54 -33.5 -96t-21.5 -84q-2 -12 -1 -20l3 -1q5 0 9 4q22 12 48 29l31 20q42 29 79 51q36 22 58 31
q10 4 15 4h2q7 0 12 -7q1 -2 1 -5q0 -7 -6 -12l-5 -4q-39 -20 -80 -49t-51 -36l-23 -16l-17 -12q-33 -25 -47 -33q-15 -9 -26 -13q-9 -3 -18 -3zM362.5 647.5q-12.5 12.5 -13.5 31.5q0 20 12 34t30 15q17 1 30 -12.5t14 -33.5q1 -18 -11.5 -31.5t-30.5 -14.5t-30.5 11.5z
" />
    <glyph glyph-name="edotaccent" unicode="&#x117;" horiz-adv-x="223" 
d="M43 -17q-14 0 -25 6.5t-18 18.5q-10 15 -10 39q-3 30 11 67q42 109 135 183q15 12 34 20q5 2 15 2q17 0 27.5 -13t8.5 -28q1 -18 -14 -44q-40 -64 -108 -97q-8 -4 -11.5 -7.5t-5.5 -9.5q-15 -42 -19 -59q-3 -7 -5 -23v-1q0 -4 8 0q42 18 66 40l36 34q9 9 15 10q2 1 6 1
q6 0 10 -4q1 -1 1 -4q0 -10 -6 -16l-36 -38q-19 -21 -49 -43.5t-48 -30.5q-9 -3 -18 -3zM123 187q33 26 57 62q6 11 8.5 17.5t-0.5 12.5q-14 -7 -43.5 -42.5t-33.5 -52.5q-1 -3 0 -3q6 2 12 6zM176.5 422.5q-12.5 12.5 -13.5 31.5q0 20 12 34t30 15q17 1 30 -12.5t14 -33.5
q1 -18 -11.5 -31.5t-30.5 -14.5t-30.5 11.5z" />
    <glyph glyph-name="Eogonek" unicode="&#x118;" horiz-adv-x="354" 
d="M43 -137q-25 0 -36 27q-5 16 -7 37q-1 37 12 97q22 99 81 215q40 82 91 158q1 1 2.5 3t1.5 4q0 1 -1 2t-2 1q-15 5 -15 16q0 6 6 13l10 10q21 16 23 17q120 84 266 136l19 6q8 2 14 1q12 -2 15 -12q1 -2 1 -7q0 -8 -6 -13q-1 -1 -11 -6q-121 -50 -188 -84q-5 -3 -13 -11
l-15 -23q-6 -7 -16 -23q-76 -121 -125 -228q-5 -10 -5 -14q4 0 10 4q47 29 124 66q16 7 20 8h5q13 0 17 -12q1 -2 1 -5q0 -9 -12 -17q-91 -46 -184 -102q-8 -4 -12 -12q-20 -54 -33.5 -96t-21.5 -84q-2 -12 -1 -20l3 -1q5 0 9 4q22 12 48 29l31 20q42 29 79 51q36 22 58 31
q10 4 15 4h2q7 0 12 -7q1 -2 1 -5q0 -7 -6 -12l-5 -4q-39 -20 -80 -49t-51 -36l-23 -16l-17 -12q-33 -25 -47 -33q-15 -9 -26 -13q-9 -3 -18 -3zM144 -215q-6 28 -6 67q0 38 5 85q0 10 4 17q5 8 15 6q9 -1 18 -7l3 -3q3 -3 1 -7q-1 -14 -1 -41q0 -39 3 -76q3 -28 15 -47
l2 -2h3q20 5 37 22t37 42q6 7 11 11t12 3t12 -6.5t5 -12.5v-2q0 -10 -8 -22q-20 -33 -44 -52q-14 -12 -31.5 -19.5t-33.5 -7.5t-31 9q-22 15 -28 43z" />
    <glyph glyph-name="eogonek" unicode="&#x119;" horiz-adv-x="223" 
d="M43 -17q-14 0 -25 6.5t-18 18.5q-10 15 -10 39q-3 30 11 67q42 109 135 183q15 12 34 20q5 2 15 2q17 0 27.5 -13t8.5 -28q1 -18 -14 -44q-40 -64 -108 -97q-8 -4 -11.5 -7.5t-5.5 -9.5q-15 -42 -19 -59q-3 -7 -5 -23v-1q0 -4 8 0q42 18 66 40l36 34q9 9 15 10q2 1 6 1
q6 0 10 -4q1 -1 1 -4q0 -10 -6 -16l-36 -38q-19 -21 -49 -43.5t-48 -30.5q-9 -3 -18 -3zM123 187q33 26 57 62q6 11 8.5 17.5t-0.5 12.5q-14 -7 -43.5 -42.5t-33.5 -52.5q-1 -3 0 -3q6 2 12 6zM46 -164q-6 28 -6 67q0 38 5 85q0 10 4 17q5 8 15 6q9 -1 18 -7l3 -3q3 -3 1 -7
q-1 -14 -1 -41q0 -39 3 -76q3 -28 15 -47l2 -2h3q20 5 37 22t37 42q6 7 11 11t12 3t12 -6.5t5 -12.5v-2q0 -10 -8 -22q-20 -33 -44 -52q-14 -12 -31.5 -19.5t-33.5 -7.5t-31 9q-22 15 -28 43z" />
    <glyph glyph-name="Ecaron" unicode="&#x11a;" horiz-adv-x="354" 
d="M43 -137q-25 0 -36 27q-5 16 -7 37q-1 37 12 97q22 99 81 215q40 82 91 158q1 1 2.5 3t1.5 4q0 1 -1 2t-2 1q-15 5 -15 16q0 6 6 13l10 10q21 16 23 17q120 84 266 136l19 6q8 2 14 1q12 -2 15 -12q1 -2 1 -7q0 -8 -6 -13q-1 -1 -11 -6q-121 -50 -188 -84q-5 -3 -13 -11
l-15 -23q-6 -7 -16 -23q-76 -121 -125 -228q-5 -10 -5 -14q4 0 10 4q47 29 124 66q16 7 20 8h5q13 0 17 -12q1 -2 1 -5q0 -9 -12 -17q-91 -46 -184 -102q-8 -4 -12 -12q-20 -54 -33.5 -96t-21.5 -84q-2 -12 -1 -20l3 -1q5 0 9 4q22 12 48 29l31 20q42 29 79 51q36 22 58 31
q10 4 15 4h2q7 0 12 -7q1 -2 1 -5q0 -7 -6 -12l-5 -4q-39 -20 -80 -49t-51 -36l-23 -16l-17 -12q-33 -25 -47 -33q-15 -9 -26 -13q-9 -3 -18 -3zM329 630q0 21 5 48q9 43 9 72q0 9 4.5 15t11.5 7h2q7 0 12.5 -5t6.5 -13q2 -8 2 -12l-1 -8q0 -14 -2 -40l4 -3l36 43
q5 5 10.5 11.5t13.5 13.5q7 7 16 7q7 0 13 -6q7 -7 7 -15q0 -6 -6 -14q-17 -21 -32 -41q-42 -54 -67 -79q-10 -10 -21 -10q-5 0 -8 1q-16 7 -16 28z" />
    <glyph glyph-name="ecaron" unicode="&#x11b;" horiz-adv-x="223" 
d="M43 -17q-14 0 -25 6.5t-18 18.5q-10 15 -10 39q-3 30 11 67q42 109 135 183q15 12 34 20q5 2 15 2q17 0 27.5 -13t8.5 -28q1 -18 -14 -44q-40 -64 -108 -97q-8 -4 -11.5 -7.5t-5.5 -9.5q-15 -42 -19 -59q-3 -7 -5 -23v-1q0 -4 8 0q42 18 66 40l36 34q9 9 15 10q2 1 6 1
q6 0 10 -4q1 -1 1 -4q0 -10 -6 -16l-36 -38q-19 -21 -49 -43.5t-48 -30.5q-9 -3 -18 -3zM123 187q33 26 57 62q6 11 8.5 17.5t-0.5 12.5q-14 -7 -43.5 -42.5t-33.5 -52.5q-1 -3 0 -3q6 2 12 6zM170 399q0 21 5 48q9 43 9 72q0 9 4.5 15t11.5 7h2q7 0 12.5 -5t6.5 -13
q2 -8 2 -12l-1 -8q0 -14 -2 -40l4 -3l36 43q5 5 10.5 11.5t13.5 13.5q7 7 16 7q7 0 13 -6q7 -7 7 -15q0 -6 -6 -14q-17 -21 -32 -41q-42 -54 -67 -79q-10 -10 -21 -10q-5 0 -8 1q-16 7 -16 28z" />
    <glyph glyph-name="Gbreve" unicode="&#x11e;" horiz-adv-x="388" 
d="M51 -104.5q-25 16.5 -38 47.5q-11 29 -13 63q-2 62 17 147q41 172 167 327q51 61 128 98q28 12 44 15l12 2q33 2 51 -14t19 -49q3 -50 -22 -93q-40 -68 -109 -99q-24 -10 -38 -11l-8 -1q-9 0 -16 4q-5 3 -6.5 8t-0.5 9q3 9 14 8h5q8 0 22 4q85 34 116 116q7 18 7 38
q0 11 -1 17q-2 12 -7.5 16t-17.5 2q-13 -2 -35 -14q-46 -26 -82 -70q-55 -65 -108 -166q-52 -96 -71 -212q-5 -33 -5 -61q0 -19 1 -29q3 -18 3 -19q4 -23 15 -33.5t31 -10.5q8 0 13 1q25 3 53 19q35 21 61 48q34 36 40 81q1 5 1 15q0 16 -5 26q-5 9 -11 13.5t-16 3.5h-13
q-20 2 -22 20v2q0 7 5.5 12t13.5 7q42 6 62 6q25 0 38 3q3 1 8 1q9 0 15 -5.5t8 -13.5q3 -10 -3 -18t-17 -12q-15 -4 -35 -4q0 2 7 -24q2 -14 2 -20q0 -20 -9 -51q-17 -55 -72 -103.5t-111 -59.5q-15 -3 -29 -3q-33 0 -58 16.5zM372 633q-23 0 -39.5 19t-23.5 46
q-5 15 -5 38q0 10 2 28q2 19 8 26q5 8 17 8t16 -8q3 -9 4 -11q1 -9 5 -27q1 -7 3 -16.5t3 -22.5q5 -18 9 -27q4 -8 11 -10h2q3 0 13 4q14 8 31 27q22 25 46 65q2 5 5 7q3 8 12 6t7 -10q0 -9 -3 -13q-29 -58 -58 -92q-21 -21 -35 -28q-17 -9 -30 -9z" />
    <glyph glyph-name="gbreve" unicode="&#x11f;" horiz-adv-x="303" 
d="M-133 -325q-12 14 -13 36q-2 41 14 74q63 147 201 205q28 11 46 13q8 1 13 9q17 36 49 108q1 1 1 5q-3 -1 -5.5 -4t-5.5 -5q-23 -33 -56 -69q-11 -12 -24 -21q-12 -8 -26 -8t-24.5 8t-15.5 23q-5 11 -5 27q0 13 3 26q16 77 58 147q11 20 37 44q12 10 16 11q16 8 30 8
q17 0 31.5 -10t21.5 -28q4 -8 5.5 -17.5t2.5 -12.5q4 1 5.5 3t2.5 3q6 10 24 46q9 19 29 17q9 -1 16 -7.5t10 -17.5q2 -10 2 -15l-1 -11q-3 -19 -15 -50q-47 -119 -86 -203q-3 -9 -4 -11q-3 -5 1 -8q16 -11 27.5 -26t23.5 -36l20 -36l3 -7q1 -2 1 -6q0 -8 -6 -12
q-3 -3 -9 -3q-4 0 -9 3q-6 4 -14 16q-18 34 -35 56q-7 9 -16 16q-6 5 -9 -2l-6 -9q-38 -76 -72 -131q-40 -67 -84 -108q-35 -31 -63 -43q-21 -7 -38 -7q-12 0 -18 2q-22 4 -34 18zM-74 -281l19 18q48 43 88 103q27 43 67 117q3 5 2 7q-3 3 -6 0q-17 -5 -27 -10
q-99 -50 -155 -157q-9 -16 -13 -32q-1 -4 -3 -14.5t-2 -19.5l1 -10q1 -6 3.5 -8t8.5 -1q7 1 17 7zM107 103q24 21 64 69q12 16 14 22t1 25q-4 22 -8 33q-4 10 -9 10q-4 0 -10 -6q-11 -11 -20 -31q-24 -52 -44 -122q-2 -5 0 -11zM251 377q-23 0 -39.5 19t-23.5 46
q-5 15 -5 38q0 10 2 28q2 19 8 26q5 8 17 8t16 -8q3 -9 4 -11q1 -9 5 -27q1 -7 3 -16.5t3 -22.5q5 -18 9 -27q4 -8 11 -10h2q3 0 13 4q14 8 31 27q22 25 46 65q2 5 5 7q3 8 12 6t7 -10q0 -9 -3 -13q-29 -58 -58 -92q-21 -21 -35 -28q-17 -9 -30 -9z" />
    <glyph glyph-name="Gdotaccent" unicode="&#x120;" horiz-adv-x="388" 
d="M51 -104.5q-25 16.5 -38 47.5q-11 29 -13 63q-2 62 17 147q41 172 167 327q51 61 128 98q28 12 44 15l12 2q33 2 51 -14t19 -49q3 -50 -22 -93q-40 -68 -109 -99q-24 -10 -38 -11l-8 -1q-9 0 -16 4q-5 3 -6.5 8t-0.5 9q3 9 14 8h5q8 0 22 4q85 34 116 116q7 18 7 38
q0 11 -1 17q-2 12 -7.5 16t-17.5 2q-13 -2 -35 -14q-46 -26 -82 -70q-55 -65 -108 -166q-52 -96 -71 -212q-5 -33 -5 -61q0 -19 1 -29q3 -18 3 -19q4 -23 15 -33.5t31 -10.5q8 0 13 1q25 3 53 19q35 21 61 48q34 36 40 81q1 5 1 15q0 16 -5 26q-5 9 -11 13.5t-16 3.5h-13
q-20 2 -22 20v2q0 7 5.5 12t13.5 7q42 6 62 6q25 0 38 3q3 1 8 1q9 0 15 -5.5t8 -13.5q3 -10 -3 -18t-17 -12q-15 -4 -35 -4q0 2 7 -24q2 -14 2 -20q0 -20 -9 -51q-17 -55 -72 -103.5t-111 -59.5q-15 -3 -29 -3q-33 0 -58 16.5zM357.5 655.5q-12.5 12.5 -13.5 31.5
q0 20 12 34t30 15q17 1 30 -12.5t14 -33.5q1 -18 -11.5 -31.5t-30.5 -14.5t-30.5 11.5z" />
    <glyph glyph-name="gdotaccent" unicode="&#x121;" horiz-adv-x="303" 
d="M-133 -325q-12 14 -13 36q-2 41 14 74q63 147 201 205q28 11 46 13q8 1 13 9q17 36 49 108q1 1 1 5q-3 -1 -5.5 -4t-5.5 -5q-23 -33 -56 -69q-11 -12 -24 -21q-12 -8 -26 -8t-24.5 8t-15.5 23q-5 11 -5 27q0 13 3 26q16 77 58 147q11 20 37 44q12 10 16 11q16 8 30 8
q17 0 31.5 -10t21.5 -28q4 -8 5.5 -17.5t2.5 -12.5q4 1 5.5 3t2.5 3q6 10 24 46q9 19 29 17q9 -1 16 -7.5t10 -17.5q2 -10 2 -15l-1 -11q-3 -19 -15 -50q-47 -119 -86 -203q-3 -9 -4 -11q-3 -5 1 -8q16 -11 27.5 -26t23.5 -36l20 -36l3 -7q1 -2 1 -6q0 -8 -6 -12
q-3 -3 -9 -3q-4 0 -9 3q-6 4 -14 16q-18 34 -35 56q-7 9 -16 16q-6 5 -9 -2l-6 -9q-38 -76 -72 -131q-40 -67 -84 -108q-35 -31 -63 -43q-21 -7 -38 -7q-12 0 -18 2q-22 4 -34 18zM-74 -281l19 18q48 43 88 103q27 43 67 117q3 5 2 7q-3 3 -6 0q-17 -5 -27 -10
q-99 -50 -155 -157q-9 -16 -13 -32q-1 -4 -3 -14.5t-2 -19.5l1 -10q1 -6 3.5 -8t8.5 -1q7 1 17 7zM107 103q24 21 64 69q12 16 14 22t1 25q-4 22 -8 33q-4 10 -9 10q-4 0 -10 -6q-11 -11 -20 -31q-24 -52 -44 -122q-2 -5 0 -11zM176.5 422.5q-12.5 12.5 -13.5 31.5
q0 20 12 34t30 15q17 1 30 -12.5t14 -33.5q1 -18 -11.5 -31.5t-30.5 -14.5t-30.5 11.5z" />
    <glyph glyph-name="Gcommaaccent" unicode="&#x122;" horiz-adv-x="388" 
d="M51 -104.5q-25 16.5 -38 47.5q-11 29 -13 63q-2 62 17 147q41 172 167 327q51 61 128 98q28 12 44 15l12 2q33 2 51 -14t19 -49q3 -50 -22 -93q-40 -68 -109 -99q-24 -10 -38 -11l-8 -1q-9 0 -16 4q-5 3 -6.5 8t-0.5 9q3 9 14 8h5q8 0 22 4q85 34 116 116q7 18 7 38
q0 11 -1 17q-2 12 -7.5 16t-17.5 2q-13 -2 -35 -14q-46 -26 -82 -70q-55 -65 -108 -166q-52 -96 -71 -212q-5 -33 -5 -61q0 -19 1 -29q3 -18 3 -19q4 -23 15 -33.5t31 -10.5q8 0 13 1q25 3 53 19q35 21 61 48q34 36 40 81q1 5 1 15q0 16 -5 26q-5 9 -11 13.5t-16 3.5h-13
q-20 2 -22 20v2q0 7 5.5 12t13.5 7q42 6 62 6q25 0 38 3q3 1 8 1q9 0 15 -5.5t8 -13.5q3 -10 -3 -18t-17 -12q-15 -4 -35 -4q0 2 7 -24q2 -14 2 -20q0 -20 -9 -51q-17 -55 -72 -103.5t-111 -59.5q-15 -3 -29 -3q-33 0 -58 16.5zM57 -295l4 18q7 24 20 50.5t27 50.5
q4 9 10 12q8 5 15 5q4 0 10 -3q12 -6 12 -19q0 -7 -2 -12.5t-3 -7.5l-42 -89q-5 -13 -13 -21t-16 -8q-5 0 -10 3q-12 5 -12 21z" />
    <glyph glyph-name="gcommaaccent" unicode="&#x123;" horiz-adv-x="303" 
d="M-133 -325q-12 14 -13 36q-2 41 14 74q63 147 201 205q28 11 46 13q8 1 13 9q17 36 49 108q1 1 1 5q-3 -1 -5.5 -4t-5.5 -5q-23 -33 -56 -69q-11 -12 -24 -21q-12 -8 -26 -8t-24.5 8t-15.5 23q-5 11 -5 27q0 13 3 26q16 77 58 147q11 20 37 44q12 10 16 11q16 8 30 8
q17 0 31.5 -10t21.5 -28q4 -8 5.5 -17.5t2.5 -12.5q4 1 5.5 3t2.5 3q6 10 24 46q9 19 29 17q9 -1 16 -7.5t10 -17.5q2 -10 2 -15l-1 -11q-3 -19 -15 -50q-47 -119 -86 -203q-3 -9 -4 -11q-3 -5 1 -8q16 -11 27.5 -26t23.5 -36l20 -36l3 -7q1 -2 1 -6q0 -8 -6 -12
q-3 -3 -9 -3q-4 0 -9 3q-6 4 -14 16q-18 34 -35 56q-7 9 -16 16q-6 5 -9 -2l-6 -9q-38 -76 -72 -131q-40 -67 -84 -108q-35 -31 -63 -43q-21 -7 -38 -7q-12 0 -18 2q-22 4 -34 18zM-74 -281l19 18q48 43 88 103q27 43 67 117q3 5 2 7q-3 3 -6 0q-17 -5 -27 -10
q-99 -50 -155 -157q-9 -16 -13 -32q-1 -4 -3 -14.5t-2 -19.5l1 -10q1 -6 3.5 -8t8.5 -1q7 1 17 7zM107 103q24 21 64 69q12 16 14 22t1 25q-4 22 -8 33q-4 10 -9 10q-4 0 -10 -6q-11 -11 -20 -31q-24 -52 -44 -122q-2 -5 0 -11zM203 435q-3 8 -3 16q0 7 2 17q7 20 21 33
q4 3 11 8.5t10 7.5l8 -17q-5 -2 -11 -11t-1 -12q7 -3 12 -9t6 -14q2 -13 -6.5 -23.5t-21.5 -10.5h-4q-16 2 -23 15zM229 449v0v0v0z" />
    <glyph glyph-name="Hbar" unicode="&#x126;" horiz-adv-x="471" 
d="M266 -100q-1 4 -1 13t2 27q16 107 63 214l47 112q2 4 2 6l1 4q0 8 -11 5q-39 -14 -50 -17q-10 -4 -45.5 -16t-64.5 -25q-12 -4 -16 -16q-48 -115 -72 -215q-2 -7 -3.5 -15t-3.5 -15q0 -2 -1 -8.5t-4 -10.5q-9 -15 -19 -15q-9 0 -21 12q-8 7 -12 27q-3 15 -3 29q0 15 4 41
q6 35 19 72t15 44q1 2 2.5 5.5t1.5 5.5l-2 1q-46 -23 -67 -44q-8 -7 -12.5 -8.5t-9.5 2.5q-5 5 -5 11t4 13q5 8 20 19q28 21 78 47q14 7 20 23q56 130 111 226q23 40 46 72q12 12 15 14q8 5 15 5q4 0 10 -3q12 -7 10 -23q-1 -6 -3 -13.5t-3 -11.5q-10 -29 -26 -59l-15 -31
q-34 -71 -59 -128l-6 -14q2 -3 4 -2t3 1q42 17 128 45l48 16q8 3 14 10l22 28q7 9 28 35.5t36 49.5q34 51 79 94q7 8 23 22q2 2 12 7q3 1 7 1q7 0 14 -5q8 -8 5 -22q-1 -4 -8 -15l-100 -160q-5 -7 -5 -11h3q4 0 10.5 1.5t9.5 2.5q7 1 13.5 2.5t13.5 2.5q8 2 22 2
q16 -2 17 -12q0 -12 -14 -15q-18 -5 -49 -10q-26 -6 -39 -8q-12 -1 -17 -11q-101 -163 -140 -299q-6 -22 -15 -41q-13 -30 -20 -54q-3 -12 -1 -19q3 -14 -6 -22.5t-23 -4.5q-20 6 -26 29zM370 636q-8 0 -18 5q-15 8 -15 23q0 16 17 21q12 5 38 9q34 7 71 9q9 0 29 2
q14 1 41.5 2t47.5 1q24 0 43 -13q17 -12 14 -29q-3 -15 -21 -22q-25 -7 -42 -7l-24 -1q-30 -2 -41 -2q-15 0 -22 1h-85z" />
    <glyph glyph-name="hbar" unicode="&#x127;" horiz-adv-x="341" 
d="M-9 9q-1 4 -1 11q0 9 3 18q4 20 18 58q109 259 208 441q14 26 28 46l14 23q3 6 10 12q8 5 15 5q8 0 14.5 -6t7.5 -16q0 -2 -3 -20q-11 -42 -41 -107l-39 -84q-48 -99 -78 -168l-37 -86q-2 -2 -4 -10q5 2 7.5 5t3.5 4l22 22q49 52 86 87q25 23 38 32q16 10 32 10t28.5 -11
t16.5 -30q1 -5 1 -15q0 -14 -3 -28t-13 -42q-30 -79 -66 -137q-3 -5 -24 -37q-9 -12 -24 -12q-9 0 -16 5t-10 14q-4 8 -4 19q0 6 2 18q6 21 18 41q33 55 65 144q2 4 4 12q1 1 0.5 2t-0.5 2q-4 -1 -14 -8q-12 -8 -44 -38q-95 -95 -153 -173q-5 -7 -17 -21q-11 -11 -22 -11
q-3 0 -9 2q-18 6 -20 27zM84 371q-8 0 -18 5q-15 8 -15 23q0 16 17 21q12 5 38 9q34 7 71 9q9 0 29 2q14 1 41.5 2t47.5 1q24 0 43 -13q17 -12 14 -29q-3 -15 -21 -22q-25 -7 -42 -7l-24 -1q-30 -2 -41 -2q-15 0 -22 1h-85z" />
    <glyph glyph-name="Imacron" unicode="&#x12a;" horiz-adv-x="257" 
d="M2 -110q-2 4 -2 7q0 4 4 10q5 7 15 10l34 15q8 3 8 12q-1 57 31 134q23 58 41 94l38 76l18 35q35 69 45 89q9 20 33 56q12 20 25 32q4 3 7 10q-6 0 -13 -2.5t-10 -3.5q-4 -2 -12 -2q-9 0 -14 8q-2 6 -2 8q0 5 3.5 10.5t10.5 8.5q38 18 60 21q22 2 58 8h11q7 0 10 -1
q14 -5 16 -17q0 -13 -13 -20q-5 -2 -17 -4q-8 0 -13 -1q-10 0 -14 -2q-3 -1 -3 -5.5t-1 -7.5l-6 -14l-22 -47q-60 -130 -109 -227q-29 -57 -54 -122l-8 -20q-19 -51 -38 -87l21 3q14 2 20 2q19 -2 22 -17v-4q0 -6 -4.5 -11.5t-12.5 -7.5q-9 -3 -28 -5q-28 -1 -73 -16
l-38 -12q-4 -1 -11 -1q-10 0 -13 8zM315 637q-15 5 -16 19v2q0 12 13 19q5 3 15 5q44 11 88 12h33q15 0 25 -5q14 -6 14 -21q0 -14 -12 -22q-7 -4 -17 -6q-52 -7 -86 -6h-41q-8 0 -16 3z" />
    <glyph glyph-name="imacron" unicode="&#x12b;" horiz-adv-x="147" 
d="M-7 27l-1 8q2 33 10 51q26 64 42 94t31 49q8 10 14 13q5 4 13 4t14 -6t7 -15v-5q0 -10 -1 -14l-5 -20t-6 -19l-43 -117q-6 -15 -28 -39q-8 -8 -19 -8q-4 0 -10 2q-15 5 -18 22zM64 409q-15 5 -16 19v2q0 12 13 19q5 3 15 5q44 11 88 12h33q15 0 25 -5q14 -6 14 -21
q0 -14 -12 -22q-7 -4 -17 -6q-52 -7 -86 -6h-41q-8 0 -16 3z" />
    <glyph glyph-name="Iogonek" unicode="&#x12e;" horiz-adv-x="257" 
d="M2 -110q-2 4 -2 7q0 4 4 10q5 7 15 10l34 15q8 3 8 12q-1 57 31 134q23 58 41 94l38 76l18 35q35 69 45 89q9 20 33 56q12 20 25 32q4 3 7 10q-6 0 -13 -2.5t-10 -3.5q-4 -2 -12 -2q-9 0 -14 8q-2 6 -2 8q0 5 3.5 10.5t10.5 8.5q38 18 60 21q22 2 58 8h11q7 0 10 -1
q14 -5 16 -17q0 -13 -13 -20q-5 -2 -17 -4q-8 0 -13 -1q-10 0 -14 -2q-3 -1 -3 -5.5t-1 -7.5l-6 -14l-22 -47q-60 -130 -109 -227q-29 -57 -54 -122l-8 -20q-19 -51 -38 -87l21 3q14 2 20 2q19 -2 22 -17v-4q0 -6 -4.5 -11.5t-12.5 -7.5q-9 -3 -28 -5q-28 -1 -73 -16
l-38 -12q-4 -1 -11 -1q-10 0 -13 8zM76 -224q-6 28 -6 67q0 38 5 85q0 10 4 17q5 8 15 6q9 -1 18 -7l3 -3q3 -3 1 -7q-1 -14 -1 -41q0 -39 3 -76q3 -28 15 -47l2 -2h3q20 5 37 22t37 42q6 7 11 11t12 3t12 -6.5t5 -12.5v-2q0 -10 -8 -22q-20 -33 -44 -52
q-14 -12 -31.5 -19.5t-33.5 -7.5t-31 9q-22 15 -28 43z" />
    <glyph glyph-name="iogonek" unicode="&#x12f;" horiz-adv-x="147" 
d="M-7 27l-1 8q2 33 10 51q26 64 42 94t31 49q8 10 14 13q5 4 13 4t14 -6t7 -15v-5q0 -10 -1 -14l-5 -20t-6 -19l-43 -117q-6 -15 -28 -39q-8 -8 -19 -8q-4 0 -10 2q-15 5 -18 22zM113 316l-1 7q0 6 2 13t3 10q4 12 12 17.5t18 3.5q10 -1 16 -9.5t6 -21.5q-2 -19 -11 -32
q-12 -14 -26 -10q-16 4 -19 22zM5 -125q-6 28 -6 67q0 38 5 85q0 10 4 17q5 8 15 6q9 -1 18 -7l3 -3q3 -3 1 -7q-1 -14 -1 -41q0 -39 3 -76q3 -28 15 -47l2 -2h3q20 5 37 22t37 42q6 7 11 11t12 3t12 -6.5t5 -12.5v-2q0 -10 -8 -22q-20 -33 -44 -52q-14 -12 -31.5 -19.5
t-33.5 -7.5t-31 9q-22 15 -28 43z" />
    <glyph glyph-name="Idotaccent" unicode="&#x130;" horiz-adv-x="257" 
d="M2 -110q-2 4 -2 7q0 4 4 10q5 7 15 10l34 15q8 3 8 12q-1 57 31 134q23 58 41 94l38 76l18 35q35 69 45 89q9 20 33 56q12 20 25 32q4 3 7 10q-6 0 -13 -2.5t-10 -3.5q-4 -2 -12 -2q-9 0 -14 8q-2 6 -2 8q0 5 3.5 10.5t10.5 8.5q38 18 60 21q22 2 58 8h11q7 0 10 -1
q14 -5 16 -17q0 -13 -13 -20q-5 -2 -17 -4q-8 0 -13 -1q-10 0 -14 -2q-3 -1 -3 -5.5t-1 -7.5l-6 -14l-22 -47q-60 -130 -109 -227q-29 -57 -54 -122l-8 -20q-19 -51 -38 -87l21 3q14 2 20 2q19 -2 22 -17v-4q0 -6 -4.5 -11.5t-12.5 -7.5q-9 -3 -28 -5q-28 -1 -73 -16
l-38 -12q-4 -1 -11 -1q-10 0 -13 8zM363.5 619.5q-12.5 12.5 -13.5 31.5q0 20 12 34t30 15q17 1 30 -12.5t14 -33.5q1 -18 -11.5 -31.5t-30.5 -14.5t-30.5 11.5z" />
    <glyph glyph-name="dotlessi" unicode="&#x131;" horiz-adv-x="147" 
d="M-7 27l-1 8q2 33 10 51q26 64 42 94t31 49q8 10 14 13q5 4 13 4t14 -6t7 -15v-5q0 -10 -1 -14l-5 -20t-6 -19l-43 -117q-6 -15 -28 -39q-8 -8 -19 -8q-4 0 -10 2q-15 5 -18 22z" />
    <glyph glyph-name="Kcommaaccent" unicode="&#x136;" horiz-adv-x="431" 
d="M26 -104q-10 0 -17.5 6t-8.5 16v4q0 10 3 19q9 39 33 97q24 56 64 140l108 220q31 66 77 125l12 15q5 5 12 8q6 3 12 3q5 0 10 -3q10 -7 7 -21q-3 -19 -11 -40l-21 -45l-95 -201l-3 -10q4 1 13 8q84 65 171 126q25 17 50 38q38 30 58 43q15 11 45 31q15 9 27 13q4 1 10 1
q12 0 16 -7q3 -4 3 -9q0 -8 -8 -18q-2 -4 -18 -19l-94 -79q-150 -127 -232 -191q-7 -5 -9 -9q4 -3 15 -5q55 -12 83 -63q14 -25 20 -46q18 -58 26 -109q2 -12 0 -18q-3 -10 -10 -14q-8 -4 -11 -4q-7 0 -11.5 4.5t-5.5 12.5q0 13 -5 30q-17 53 -34 92q-12 24 -20 35
q-16 19 -39 25q-26 6 -52 6q-10 0 -18 -9q-76 -99 -110 -159l-15 -23q-5 -6 -11 -11t-16 -5zM107 -274l4 18q7 24 20 50.5t27 50.5q4 9 10 12q8 5 15 5q4 0 10 -3q12 -6 12 -19q0 -7 -2 -12.5t-3 -7.5l-42 -89q-5 -13 -13 -21t-16 -8q-5 0 -10 3q-12 5 -12 21z" />
    <glyph glyph-name="kcommaaccent" unicode="&#x137;" horiz-adv-x="236" 
d="M-39 -23q0 4 2 8.5t3 6.5q16 49 39 91q56 109 106 231q38 88 99 207q4 9 19 35q3 8 11 14q5 5 11 7t12 0q11 -4 13 -18q0 -8 -3 -17q-18 -63 -54 -148l-18 -44q-42 -100 -62 -150l-2 -5q6 3 9 7.5t4 5.5q26 30 50 46q6 6 14 9t14 3q9 0 15.5 -6.5t5.5 -17.5
q0 -16 -11 -32q-15 -22 -38 -42q-34 -30 -60 -49q-9 -8 -9 -11t4 -10q19 -37 16 -83q0 -7 -2 -10q-1 -8 -7 -13.5t-14 -5.5h-2q-7 0 -12 4t-5 11q-2 15 -9.5 31.5t-10.5 25.5q-2 2 -2 3q-5 10 -11 10q-4 -1 -5.5 -6t-2.5 -6q-16 -26 -23 -39l-15 -26q-5 -9 -17 -25
q-8 -10 -14 -14q-10 -7 -17 -7q-3 0 -11 4q-15 7 -10 25zM0 -189l4 18q7 24 20 50.5t27 50.5q4 9 10 12q8 5 15 5q4 0 10 -3q12 -6 12 -19q0 -7 -2 -12.5t-3 -7.5l-42 -89q-5 -13 -13 -21t-16 -8q-5 0 -10 3q-12 5 -12 21z" />
    <glyph glyph-name="Lacute" unicode="&#x139;" horiz-adv-x="385" 
d="M42 -134q-16 0 -28 11t-14 32q-1 26 5 55q6 36 21 71q48 116 115 215q100 147 186 248l27 33q18 25 37 46l7.5 7.5t9.5 6.5q6 2 9 2q9 0 15 -9q3 -7 3 -14t-1 -10q-4 -13 -13 -30q-17 -30 -55 -86q-42 -63 -87 -126q-12 -18 -29 -42t-38 -55q-72 -103 -115 -211
q-17 -40 -25 -72q0 -2 -1.5 -5.5t-0.5 -7.5q7 1 15 6q80 34 151 52q47 11 88 10q3 0 9 -1t10 -2q6 -1 11 -5q10 -6 6 -17q-5 -8 -15 -7q-18 2 -28 2q-40 0 -89 -17q-72 -23 -135 -61q-25 -14 -36 -17q-10 -2 -15 -2zM466 655q-9 0 -13 6q-8 8 -8 15q0 3 2 9l8 16
q17 26 41 52.5t30 33.5q10 8 14 9l8 2q9 0 15 -7q12 -10 8 -21q-1 -6 -4.5 -11t-5.5 -8l-64 -75q-14 -14 -18 -17q-8 -4 -13 -4z" />
    <glyph glyph-name="lacute" unicode="&#x13a;" horiz-adv-x="160" 
d="M-25 -118q-8 10 -11.5 21.5t-3.5 20.5q0 29 9 61q11 32 24 63q55 131 139 303l26 54q62 129 90 180q4 8 14 24q7 10 15 14q6 3 12 3q7 0 12.5 -4.5t7.5 -12.5q1 -3 1 -9t-1 -9q-3 -26 -18 -66q-8 -24 -28 -70l-9 -20q-86 -180 -128 -270q-60 -132 -88 -208l-12 -33
q-3 -9 -3 -18q0 -6 1 -10q3 -13 -6.5 -21.5t-22.5 -5.5q-9 2 -20 13zM345 693q-9 0 -13 6q-8 8 -8 15q0 3 2 9l8 16q17 26 41 52.5t30 33.5q10 8 14 9l8 2q9 0 15 -7q12 -10 8 -21q-1 -6 -4.5 -11t-5.5 -8l-64 -75q-14 -14 -18 -17q-8 -4 -13 -4z" />
    <glyph glyph-name="Lcommaaccent" unicode="&#x13b;" horiz-adv-x="385" 
d="M42 -134q-16 0 -28 11t-14 32q-1 26 5 55q6 36 21 71q48 116 115 215q100 147 186 248l27 33q18 25 37 46l7.5 7.5t9.5 6.5q6 2 9 2q9 0 15 -9q3 -7 3 -14t-1 -10q-4 -13 -13 -30q-17 -30 -55 -86q-42 -63 -87 -126q-12 -18 -29 -42t-38 -55q-72 -103 -115 -211
q-17 -40 -25 -72q0 -2 -1.5 -5.5t-0.5 -7.5q7 1 15 6q80 34 151 52q47 11 88 10q3 0 9 -1t10 -2q6 -1 11 -5q10 -6 6 -17q-5 -8 -15 -7q-18 2 -28 2q-40 0 -89 -17q-72 -23 -135 -61q-25 -14 -36 -17q-10 -2 -15 -2zM109 -259l4 18q7 24 20 50.5t27 50.5q4 9 10 12q8 5 15 5
q4 0 10 -3q12 -6 12 -19q0 -7 -2 -12.5t-3 -7.5l-42 -89q-5 -13 -13 -21t-16 -8q-5 0 -10 3q-12 5 -12 21z" />
    <glyph glyph-name="lcommaaccent" unicode="&#x13c;" horiz-adv-x="160" 
d="M-25 -118q-8 10 -11.5 21.5t-3.5 20.5q0 29 9 61q11 32 24 63q55 131 139 303l26 54q62 129 90 180q4 8 14 24q7 10 15 14q6 3 12 3q7 0 12.5 -4.5t7.5 -12.5q1 -3 1 -9t-1 -9q-3 -26 -18 -66q-8 -24 -28 -70l-9 -20q-86 -180 -128 -270q-60 -132 -88 -208l-12 -33
q-3 -9 -3 -18q0 -6 1 -10q3 -13 -6.5 -21.5t-22.5 -5.5q-9 2 -20 13zM-93 -327l4 18q7 24 20 50.5t27 50.5q4 9 10 12q8 5 15 5q4 0 10 -3q12 -6 12 -19q0 -7 -2 -12.5t-3 -7.5l-42 -89q-5 -13 -13 -21t-16 -8q-5 0 -10 3q-12 5 -12 21z" />
    <glyph glyph-name="Lcaron" unicode="&#x13d;" horiz-adv-x="385" 
d="M42 -134q-16 0 -28 11t-14 32q-1 26 5 55q6 36 21 71q48 116 115 215q100 147 186 248l27 33q18 25 37 46l7.5 7.5t9.5 6.5q6 2 9 2q9 0 15 -9q3 -7 3 -14t-1 -10q-4 -13 -13 -30q-17 -30 -55 -86q-42 -63 -87 -126q-12 -18 -29 -42t-38 -55q-72 -103 -115 -211
q-17 -40 -25 -72q0 -2 -1.5 -5.5t-0.5 -7.5q7 1 15 6q80 34 151 52q47 11 88 10q3 0 9 -1t10 -2q6 -1 11 -5q10 -6 6 -17q-5 -8 -15 -7q-18 2 -28 2q-40 0 -89 -17q-72 -23 -135 -61q-25 -14 -36 -17q-10 -2 -15 -2zM431 667q0 21 5 48q9 43 9 72q0 9 4.5 15t11.5 7h2
q7 0 12.5 -5t6.5 -13q2 -8 2 -12l-1 -8q0 -14 -2 -40l4 -3l36 43q5 5 10.5 11.5t13.5 13.5q7 7 16 7q7 0 13 -6q7 -7 7 -15q0 -6 -6 -14q-17 -21 -32 -41q-42 -54 -67 -79q-10 -10 -21 -10q-5 0 -8 1q-16 7 -16 28z" />
    <glyph glyph-name="lcaron" unicode="&#x13e;" horiz-adv-x="160" 
d="M-25 -118q-8 10 -11.5 21.5t-3.5 20.5q0 29 9 61q11 32 24 63q55 131 139 303l26 54q62 129 90 180q4 8 14 24q7 10 15 14q6 3 12 3q7 0 12.5 -4.5t7.5 -12.5q1 -3 1 -9t-1 -9q-3 -26 -18 -66q-8 -24 -28 -70l-9 -20q-86 -180 -128 -270q-60 -132 -88 -208l-12 -33
q-3 -9 -3 -18q0 -6 1 -10q3 -13 -6.5 -21.5t-22.5 -5.5q-9 2 -20 13zM307 710q0 21 5 48q9 43 9 72q0 9 4.5 15t11.5 7h2q7 0 12.5 -5t6.5 -13q2 -8 2 -12l-1 -8q0 -14 -2 -40l4 -3l36 43q5 5 10.5 11.5t13.5 13.5q7 7 16 7q7 0 13 -6q7 -7 7 -15q0 -6 -6 -14
q-17 -21 -32 -41q-42 -54 -67 -79q-10 -10 -21 -10q-5 0 -8 1q-16 7 -16 28z" />
    <glyph glyph-name="Lslash" unicode="&#x141;" horiz-adv-x="385" 
d="M42 -134q-16 0 -28 11t-14 32q-1 26 5 55q6 36 21 71q48 116 115 215q100 147 186 248l27 33q18 25 37 46l7.5 7.5t9.5 6.5q6 2 9 2q9 0 15 -9q3 -7 3 -14t-1 -10q-4 -13 -13 -30q-17 -30 -55 -86q-42 -63 -87 -126q-12 -18 -29 -42t-38 -55q-72 -103 -115 -211
q-17 -40 -25 -72q0 -2 -1.5 -5.5t-0.5 -7.5q7 1 15 6q80 34 151 52q47 11 88 10q3 0 9 -1t10 -2q6 -1 11 -5q10 -6 6 -17q-5 -8 -15 -7q-18 2 -28 2q-40 0 -89 -17q-72 -23 -135 -61q-25 -14 -36 -17q-10 -2 -15 -2zM-79 -64q0 10 9 25q9 13 34 38q70 64 158 130
q80 59 228 158q20 13 39 22q11 7 21 7q16 0 21 -12l2 -8q0 -10 -8 -16q-24 -20 -38 -28l-104 -72l-105 -72q-62 -44 -158 -123q-27 -22 -48 -46l-9 -8q-13 -13 -24 -13q-7 0 -11 4q-7 6 -7 14z" />
    <glyph glyph-name="lslash" unicode="&#x142;" horiz-adv-x="160" 
d="M-25 -118q-8 10 -11.5 21.5t-3.5 20.5q0 29 9 61q11 32 24 63q55 131 139 303l26 54q62 129 90 180q4 8 14 24q7 10 15 14q6 3 12 3q7 0 12.5 -4.5t7.5 -12.5q1 -3 1 -9t-1 -9q-3 -26 -18 -66q-8 -24 -28 -70l-9 -20q-86 -180 -128 -270q-60 -132 -88 -208l-12 -33
q-3 -9 -3 -18q0 -6 1 -10q3 -13 -6.5 -21.5t-22.5 -5.5q-9 2 -20 13zM-162 -46q0 10 9 25q9 13 34 38q70 64 158 130q80 59 228 158q20 13 39 22q11 7 21 7q16 0 21 -12l2 -8q0 -10 -8 -16q-24 -20 -38 -28l-104 -72l-105 -72q-62 -44 -158 -123q-27 -22 -48 -46l-9 -8
q-13 -13 -24 -13q-7 0 -11 4q-7 6 -7 14z" />
    <glyph glyph-name="Nacute" unicode="&#x143;" horiz-adv-x="416" 
d="M259 -63q-9 18 -11 50q-1 7 -1 21q0 36 12 84q29 116 100 255q35 66 80 141l8 14q-6 -1 -8.5 -4t-3.5 -4q-46 -48 -92 -106q-104 -129 -250 -342q-11 -19 -26 -38q-8 -10 -13 -14q-11 -8 -22 -8t-19.5 7.5t-11.5 19.5q-1 4 -1 11q0 11 3 20q42 162 101 268q36 64 57 93
q10 14 16 20q10 8 19 8q5 0 13 -4q11 -6 11 -20q0 -4 -2 -10l-11 -25q-47 -97 -82 -184l-6 -17q5 3 7.5 6.5t3.5 4.5l162 211q61 79 136 152q24 22 47 40q14 10 26 14q8 2 13 2q14 0 23.5 -10t8.5 -26q0 -13 -7 -29q-12 -34 -34 -75l-57 -107q-66 -121 -97 -215
q-12 -39 -29 -106l-6 -25q-5 -18 -5 -42q0 -13 9 -18q18 -10 13 -27t-27 -17q-34 2 -47 31zM383 609q-9 0 -13 6q-8 8 -8 15q0 3 2 9l8 16q17 26 41 52.5t30 33.5q10 8 14 9l8 2q9 0 15 -7q12 -10 8 -21q-1 -6 -4.5 -11t-5.5 -8l-64 -75q-14 -14 -18 -17q-8 -4 -13 -4z" />
    <glyph glyph-name="nacute" unicode="&#x144;" horiz-adv-x="382" 
d="M26 -8q-24 0 -33 25q-3 7 -3 22q0 19 9 46q27 78 78 144l16 17q10 8 15 10q10 4 14 4q8 0 16 -6q8 -7 8 -18q0 -3 -2 -11q-6 -17 -18 -41q-28 -50 -39 -77q-5 -7 -4 -12q4 1 11 8l126 119l52 47q1 1 17 14q23 20 51 29q12 4 18 4q14 0 23.5 -10t10.5 -27v-8q0 -6 -2 -20
q-8 -40 -34 -97l-37 -78q-8 -20 -21.5 -39.5t-17.5 -25.5q-9 -12 -21 -12q-3 0 -9 2q-9 2 -14.5 9t-6.5 16v3q0 7 4 19q13 45 46 109q14 28 20 42l25 53q0 1 1.5 3.5t0.5 7.5q-4 -3 -10.5 -7.5t-10.5 -8.5q-47 -36 -97 -88l-45 -47l-70 -72q-10 -11 -32 -31q-9 -9 -18 -13
q-8 -4 -17 -4zM291 388q-9 0 -13 6q-8 8 -8 15q0 3 2 9l8 16q17 26 41 52.5t30 33.5q10 8 14 9l8 2q9 0 15 -7q12 -10 8 -21q-1 -6 -4.5 -11t-5.5 -8l-64 -75q-14 -14 -18 -17q-8 -4 -13 -4z" />
    <glyph glyph-name="Ncommaaccent" unicode="&#x145;" horiz-adv-x="416" 
d="M259 -63q-9 18 -11 50q-1 7 -1 21q0 36 12 84q29 116 100 255q35 66 80 141l8 14q-6 -1 -8.5 -4t-3.5 -4q-46 -48 -92 -106q-104 -129 -250 -342q-11 -19 -26 -38q-8 -10 -13 -14q-11 -8 -22 -8t-19.5 7.5t-11.5 19.5q-1 4 -1 11q0 11 3 20q42 162 101 268q36 64 57 93
q10 14 16 20q10 8 19 8q5 0 13 -4q11 -6 11 -20q0 -4 -2 -10l-11 -25q-47 -97 -82 -184l-6 -17q5 3 7.5 6.5t3.5 4.5l162 211q61 79 136 152q24 22 47 40q14 10 26 14q8 2 13 2q14 0 23.5 -10t8.5 -26q0 -13 -7 -29q-12 -34 -34 -75l-57 -107q-66 -121 -97 -215
q-12 -39 -29 -106l-6 -25q-5 -18 -5 -42q0 -13 9 -18q18 -10 13 -27t-27 -17q-34 2 -47 31zM86 -190l4 18q7 24 20 50.5t27 50.5q4 9 10 12q8 5 15 5q4 0 10 -3q12 -6 12 -19q0 -7 -2 -12.5t-3 -7.5l-42 -89q-5 -13 -13 -21t-16 -8q-5 0 -10 3q-12 5 -12 21z" />
    <glyph glyph-name="ncommaaccent" unicode="&#x146;" horiz-adv-x="382" 
d="M26 -8q-24 0 -33 25q-3 7 -3 22q0 19 9 46q27 78 78 144l16 17q10 8 15 10q10 4 14 4q8 0 16 -6q8 -7 8 -18q0 -3 -2 -11q-6 -17 -18 -41q-28 -50 -39 -77q-5 -7 -4 -12q4 1 11 8l126 119l52 47q1 1 17 14q23 20 51 29q12 4 18 4q14 0 23.5 -10t10.5 -27v-8q0 -6 -2 -20
q-8 -40 -34 -97l-37 -78q-8 -20 -21.5 -39.5t-17.5 -25.5q-9 -12 -21 -12q-3 0 -9 2q-9 2 -14.5 9t-6.5 16v3q0 7 4 19q13 45 46 109q14 28 20 42l25 53q0 1 1.5 3.5t0.5 7.5q-4 -3 -10.5 -7.5t-10.5 -8.5q-47 -36 -97 -88l-45 -47l-70 -72q-10 -11 -32 -31q-9 -9 -18 -13
q-8 -4 -17 -4zM75 -189l4 18q7 24 20 50.5t27 50.5q4 9 10 12q8 5 15 5q4 0 10 -3q12 -6 12 -19q0 -7 -2 -12.5t-3 -7.5l-42 -89q-5 -13 -13 -21t-16 -8q-5 0 -10 3q-12 5 -12 21z" />
    <glyph glyph-name="Ncaron" unicode="&#x147;" horiz-adv-x="416" 
d="M259 -63q-9 18 -11 50q-1 7 -1 21q0 36 12 84q29 116 100 255q35 66 80 141l8 14q-6 -1 -8.5 -4t-3.5 -4q-46 -48 -92 -106q-104 -129 -250 -342q-11 -19 -26 -38q-8 -10 -13 -14q-11 -8 -22 -8t-19.5 7.5t-11.5 19.5q-1 4 -1 11q0 11 3 20q42 162 101 268q36 64 57 93
q10 14 16 20q10 8 19 8q5 0 13 -4q11 -6 11 -20q0 -4 -2 -10l-11 -25q-47 -97 -82 -184l-6 -17q5 3 7.5 6.5t3.5 4.5l162 211q61 79 136 152q24 22 47 40q14 10 26 14q8 2 13 2q14 0 23.5 -10t8.5 -26q0 -13 -7 -29q-12 -34 -34 -75l-57 -107q-66 -121 -97 -215
q-12 -39 -29 -106l-6 -25q-5 -18 -5 -42q0 -13 9 -18q18 -10 13 -27t-27 -17q-34 2 -47 31zM359 632q0 21 5 48q9 43 9 72q0 9 4.5 15t11.5 7h2q7 0 12.5 -5t6.5 -13q2 -8 2 -12l-1 -8q0 -14 -2 -40l4 -3l36 43q5 5 10.5 11.5t13.5 13.5q7 7 16 7q7 0 13 -6q7 -7 7 -15
q0 -6 -6 -14q-17 -21 -32 -41q-42 -54 -67 -79q-10 -10 -21 -10q-5 0 -8 1q-16 7 -16 28z" />
    <glyph glyph-name="ncaron" unicode="&#x148;" horiz-adv-x="382" 
d="M26 -8q-24 0 -33 25q-3 7 -3 22q0 19 9 46q27 78 78 144l16 17q10 8 15 10q10 4 14 4q8 0 16 -6q8 -7 8 -18q0 -3 -2 -11q-6 -17 -18 -41q-28 -50 -39 -77q-5 -7 -4 -12q4 1 11 8l126 119l52 47q1 1 17 14q23 20 51 29q12 4 18 4q14 0 23.5 -10t10.5 -27v-8q0 -6 -2 -20
q-8 -40 -34 -97l-37 -78q-8 -20 -21.5 -39.5t-17.5 -25.5q-9 -12 -21 -12q-3 0 -9 2q-9 2 -14.5 9t-6.5 16v3q0 7 4 19q13 45 46 109q14 28 20 42l25 53q0 1 1.5 3.5t0.5 7.5q-4 -3 -10.5 -7.5t-10.5 -8.5q-47 -36 -97 -88l-45 -47l-70 -72q-10 -11 -32 -31q-9 -9 -18 -13
q-8 -4 -17 -4zM234 399q0 21 5 48q9 43 9 72q0 9 4.5 15t11.5 7h2q7 0 12.5 -5t6.5 -13q2 -8 2 -12l-1 -8q0 -14 -2 -40l4 -3l36 43q5 5 10.5 11.5t13.5 13.5q7 7 16 7q7 0 13 -6q7 -7 7 -15q0 -6 -6 -14q-17 -21 -32 -41q-42 -54 -67 -79q-10 -10 -21 -10q-5 0 -8 1
q-16 7 -16 28z" />
    <glyph glyph-name="Eng" unicode="&#x14a;" horiz-adv-x="394" 
d="M189 -256q-26 0 -52.5 16t-47.5 41q-26 33 -41 82q-1 3 -3 10.5t-2 13.5q0 3 2 11q2 9 10.5 15t17.5 5q15 -2 26 -26q4 -9 16.5 -33.5t26 -42.5t30.5 -29q4 -4 9 -4q3 1 8 6q11 15 21.5 45t16.5 56t11.5 55.5t8.5 44.5q11 67 23 112q31 119 89 230q35 66 80 141l8 14
q-6 -1 -8.5 -4t-3.5 -4q-46 -48 -92 -106q-104 -129 -250 -342q-11 -19 -26 -38q-8 -10 -13 -14q-11 -8 -22 -8t-19.5 7.5t-11.5 19.5q-1 4 -1 11q0 11 3 20q42 162 101 268q36 64 57 93q10 14 16 20q10 8 19 8q5 0 13 -4q11 -6 11 -20q0 -4 -2 -10l-11 -25
q-47 -97 -82 -184l-6 -17q5 3 7.5 6.5t3.5 4.5l162 211q61 79 136 152q24 22 47 40q14 10 26 14q8 2 13 2q14 0 23.5 -10t8.5 -26q0 -13 -7 -29q-12 -34 -34 -75l-57 -107q-38 -71 -65.5 -133t-44.5 -124q-11 -40 -27 -122q-18 -98 -33 -145q-7 -21 -13 -34.5t-15 -25.5
q-25 -33 -61 -33z" />
    <glyph glyph-name="eng" unicode="&#x14b;" horiz-adv-x="382" 
d="M62.5 -238.5q-26.5 24.5 -41.5 59.5q-17 37 -19 89l-1 11q0 15 6 22q5 8 14.5 11.5t17.5 0.5q14 -7 18 -31q2 -7 7 -33t13.5 -46t20.5 -36q4 -6 8 -7h3q4 0 10 4q19 14 33 33t30 48q40 74 73 161q18 49 64 152l25 53q0 1 1.5 3.5t0.5 7.5q-4 -3 -10.5 -7.5t-10.5 -8.5
q-47 -36 -97 -88l-45 -47l-70 -72q-10 -11 -32 -31q-9 -9 -18 -13q-8 -4 -17 -4q-24 0 -33 25q-3 7 -3 22q0 19 9 46q27 78 78 144l16 17q10 8 15 10q10 4 14 4q8 0 16 -6q8 -7 8 -18q0 -3 -2 -11q-6 -17 -18 -41q-28 -50 -39 -77q-5 -7 -4 -12q4 1 11 8l126 119l52 47
q1 1 17 14q23 20 51 29q12 4 18 4q14 0 23.5 -10t10.5 -27v-8q0 -6 -2 -20q-7 -36 -22 -71t-40 -85l-24 -50q-36 -73 -106 -219q-17 -37 -39.5 -60.5t-55.5 -26.5q-34 -3 -60.5 21.5z" />
    <glyph glyph-name="Omacron" unicode="&#x14c;" horiz-adv-x="378" 
d="M108 -71q-29 0 -53 14.5t-38 41.5q-15 31 -17 76v14q1 54 18 119q25 98 71 178q15 28 31 47q13 16 24 22q12 5 19 20q23 41 49 71q27 29 56 44q25 13 49 13q26 0 47.5 -14t34.5 -40q19 -38 19 -81q1 -65 -14 -133q-16 -80 -44 -146q-40 -104 -115 -177q-38 -40 -87 -59
q-16 -7 -34 -9q-5 -1 -16 -1zM160 -6q47 21 80 59q53 59 89 137q33 68 50 170q1 6 5 31.5t4 48.5q0 12 -1 18q-4 38 -16 63q-8 18 -22 27t-32 9q-14 0 -29 -6q-22 -9 -43 -30q-27 -26 -56 -73q-3 -7 -1 -12q4 -5 4 -12q0 -6 -4 -14l-36 -71q-31 -64 -49 -120
q-27 -83 -28 -153q0 -37 6 -55q5 -16 14.5 -23t26.5 -5q18 3 38 11zM275 652q-15 5 -16 19v2q0 12 13 19q5 3 15 5q44 11 88 12h33q15 0 25 -5q14 -6 14 -21q0 -14 -12 -22q-7 -4 -17 -6q-52 -7 -86 -6h-41q-8 0 -16 3z" />
    <glyph glyph-name="omacron" unicode="&#x14d;" horiz-adv-x="206" 
d="M56 -16q-23 0 -36 22q-13 23 -13 52q0 23 8 49q27 88 90 157q5 7 5 8q14 26 47 43q8 5 14 6q8 2 13 2q23 0 34 -24q5 -12 5 -29q0 -11 -1 -16q-3 -22 -11 -49q-31 -90 -77 -155q-20 -28 -32 -41q-13 -13 -21 -18q-13 -7 -25 -7zM96 74q51 68 81 158q4 13 6 29q1 3 0.5 8
t-0.5 8q-2 8 -8 4q-13 -6 -24 -14q-4 -4 -3 -8l1 -5q0 -5 -3 -11t-4 -9l-15 -29q-38 -77 -51 -127q-5 -16 -4 -30q14 12 24 26zM153 409q-15 5 -16 19v2q0 12 13 19q5 3 15 5q44 11 88 12h33q15 0 25 -5q14 -6 14 -21q0 -14 -12 -22q-7 -4 -17 -6q-52 -7 -86 -6h-41
q-8 0 -16 3z" />
    <glyph glyph-name="Ohungarumlaut" unicode="&#x150;" horiz-adv-x="378" 
d="M108 -71q-29 0 -53 14.5t-38 41.5q-15 31 -17 76v14q1 54 18 119q25 98 71 178q15 28 31 47q13 16 24 22q12 5 19 20q23 41 49 71q27 29 56 44q25 13 49 13q26 0 47.5 -14t34.5 -40q19 -38 19 -81q1 -65 -14 -133q-16 -80 -44 -146q-40 -104 -115 -177q-38 -40 -87 -59
q-16 -7 -34 -9q-5 -1 -16 -1zM160 -6q47 21 80 59q53 59 89 137q33 68 50 170q1 6 5 31.5t4 48.5q0 12 -1 18q-4 38 -16 63q-8 18 -22 27t-32 9q-14 0 -29 -6q-22 -9 -43 -30q-27 -26 -56 -73q-3 -7 -1 -12q4 -5 4 -12q0 -6 -4 -14l-36 -71q-31 -64 -49 -120
q-27 -83 -28 -153q0 -37 6 -55q5 -16 14.5 -23t26.5 -5q18 3 38 11zM243 644q2 12 4 18q10 31 26.5 63.5t19.5 37.5q7 10 11 12q7 5 14 5q5 0 10 -3q13 -6 13 -19q0 -7 -2 -12.5t-3 -7.5l-42 -89q-7 -13 -13 -21q-8 -8 -17 -8q-4 0 -9 3q-14 6 -12 21zM350 644l4 18
q7 23 20 49.5t27 51.5q4 9 10 12q8 5 15 5q4 0 10 -3q12 -6 12 -19q0 -7 -2 -12.5t-3 -7.5l-42 -89q-8 -16 -13 -21q-8 -8 -16 -8q-5 0 -10 3q-12 5 -12 21z" />
    <glyph glyph-name="ohungarumlaut" unicode="&#x151;" horiz-adv-x="206" 
d="M56 -16q-23 0 -36 22q-13 23 -13 52q0 23 8 49q27 88 90 157q5 7 5 8q14 26 47 43q8 5 14 6q8 2 13 2q23 0 34 -24q5 -12 5 -29q0 -11 -1 -16q-3 -22 -11 -49q-31 -90 -77 -155q-20 -28 -32 -41q-13 -13 -21 -18q-13 -7 -25 -7zM96 74q51 68 81 158q4 13 6 29q1 3 0.5 8
t-0.5 8q-2 8 -8 4q-13 -6 -24 -14q-4 -4 -3 -8l1 -5q0 -5 -3 -11t-4 -9l-15 -29q-38 -77 -51 -127q-5 -16 -4 -30q14 12 24 26zM129 406q2 12 4 18q10 31 26.5 63.5t19.5 37.5q7 10 11 12q7 5 14 5q5 0 10 -3q13 -6 13 -19q0 -7 -2 -12.5t-3 -7.5l-42 -89q-7 -13 -13 -21
q-8 -8 -17 -8q-4 0 -9 3q-14 6 -12 21zM236 406l4 18q7 23 20 49.5t27 51.5q4 9 10 12q8 5 15 5q4 0 10 -3q12 -6 12 -19q0 -7 -2 -12.5t-3 -7.5l-42 -89q-8 -16 -13 -21q-8 -8 -16 -8q-5 0 -10 3q-12 5 -12 21z" />
    <glyph glyph-name="OE" unicode="&#x152;" horiz-adv-x="647" 
d="M108 -51q-29 0 -53 14.5t-38 41.5q-15 31 -17 76v14q1 54 18 119q25 98 71 178q15 28 31 47q13 16 24 22q12 5 19 20q23 41 49 71q27 29 56 44q25 13 49 13q26 0 47.5 -14t34.5 -40q19 -38 19 -81q1 -49 -8 -102q26 50 67 111q1 1 2.5 3t1.5 4q0 1 -1 2t-2 1
q-15 5 -15 16q0 6 6 13l10 10q21 16 23 17q120 84 266 136l19 6q8 2 14 1q12 -2 15 -12q1 -2 1 -7q0 -8 -6 -13q-1 -1 -11 -6q-121 -50 -188 -84q-5 -3 -13 -11l-15 -23q-6 -7 -16 -23q-76 -121 -125 -228q-5 -10 -5 -14q4 0 10 4q47 29 124 66q16 7 20 8h5q13 0 17 -12
q1 -2 1 -5q0 -9 -12 -17q-91 -46 -184 -102q-7 -4 -12 -12q-20 -54 -33.5 -96t-21.5 -84q-2 -12 -1 -20l3 -1q5 0 9 4q22 12 48 29l31 20q42 29 79 51q36 22 58 31q10 4 15 4h2q7 0 12 -7q1 -2 1 -5q0 -7 -6 -12l-5 -4q-39 -20 -80 -49t-51 -36l-23 -16l-17 -12
q-33 -25 -47 -33q-15 -9 -26 -13q-9 -3 -18 -3q-25 0 -36 27q-5 16 -7 37q-1 28 6 69q-23 -33 -54 -64q-38 -40 -87 -59q-16 -7 -34 -9q-5 -1 -16 -1zM160 14q47 21 80 59q53 59 89 137q33 68 50 170q1 6 5 31.5t4 48.5q0 12 -1 18q-4 38 -16 63q-8 18 -22 27t-32 9
q-14 0 -29 -6q-22 -9 -43 -30q-27 -26 -56 -73q-3 -7 -1 -12q4 -5 4 -12q0 -6 -4 -14l-36 -71q-31 -64 -49 -120q-27 -83 -28 -153q0 -37 6 -55q5 -16 14.5 -23t26.5 -5q18 3 38 11z" />
    <glyph glyph-name="oe" unicode="&#x153;" horiz-adv-x="345" 
d="M56 -10q-18 0 -31.5 13.5t-16.5 36.5q-1 4 -1 13q0 11 4 33q13 53 39 103q7 11 9 13q6 4 9.5 11t5.5 15q18 46 59 75q16 11 31 11q14 0 26.5 -8.5t19.5 -24.5q4 -12 6 -26h2q3 0 7 6q18 23 38 40q20 15 36 17q16 3 28 -5.5t16 -24.5q2 -10 2 -14q0 -10 -3 -19
q-2 -8 -4 -14q-42 -85 -119 -115q-8 -2 -9 -8q-12 -35 -13 -64v-4q0 -5 2 -5.5t8 1.5q9 3 27 13l42 28l8 6q2 1 5 1q4 0 9 -3q6 -6 3 -14q-3 -7 -9 -12q-31 -27 -57 -47q-16 -11 -37 -18q-5 -2 -15 -2q-27 0 -39 28l-6 15q-4 -1 -6.5 -4.5t-3.5 -4.5q-22 -24 -40 -33
q-16 -9 -32 -9zM99 54q24 24 46 65l-1 4q-9 -3 -19 -3q-21 0 -42 18q-11 -41 -18 -71q-3 -12 -3 -24q0 -7 1.5 -8t8.5 1q15 6 27 18zM156 155.5q10 4.5 14 20.5q0 1 3 7q14 24 14 55q0 21 -5 31q-6 14 -18 14q-6 0 -13 -4q-4 -2 -6 -4q-37 -29 -46 -74q-2 -12 -2 -19t1 -11
q3 -11 10.5 -17.5t16.5 -5.5q21 3 31 7.5zM233 165q47 30 73 78q7 13 7 29q0 7 -4 9q-2 1 -8 -3q-14 -11 -23 -26q-23 -32 -48 -83q0 -1 -0.5 -2.5t0.5 -2.5q2 0 3 1z" />
    <glyph glyph-name="Racute" unicode="&#x154;" horiz-adv-x="413" 
d="M281 -121q-3 10 -3 23q-2 44 -8 65q-14 59 -66 80q-31 14 -53 18q-31 3 -40 29q-2 10 -2 13q0 18 18 36l7 7l85 72q107 89 141 115l66 51l38 29q50 40 73 63q12 10 24 28q6 10 7 15q1 2 1 6q0 5 -8 8q-11 4 -28 2q-22 -4 -45 -14q-55 -23 -123 -80q-150 -131 -260 -305
q-12 -18 -32 -56q-14 -27 -18 -56q-1 -11 -5 -28q-1 -5 -5 -13q-6 -11 -17 -11q-10 0 -16 9q-5 7 -9 27q-3 18 -3 36t4 50q9 60 26 125q23 82 78 179l30 46q11 18 26 27q10 7 21 7q13 0 20 -9q8 -8 8 -21q0 -12 -8 -22l-3 -6l-19 -33q-17 -29 -33.5 -60t-27.5 -58
q-19 -46 -30 -90q4 3 7 7t4 6q117 168 241 274q66 57 126 84q36 17 67 21q4 1 13 1q17 0 32 -7q14 -7 22.5 -19t8.5 -28q0 -6 -1 -9q-3 -20 -18 -45q-17 -24 -46 -55q-38 -41 -122 -113q-36 -29 -150 -127q-51 -45 -49 -43q-5 -3 -6 -6q2 -3 5.5 -4.5t4.5 -2.5
q26 -12 38 -20q69 -48 69 -131q1 -20 -2 -45l-1 -22q-2 -16 -6 -23q-8 -17 -25 -15q-16 1 -23 18zM378 587q-9 0 -13 6q-8 8 -8 15q0 3 2 9l8 16q17 26 41 52.5t30 33.5q10 8 14 9l8 2q9 0 15 -7q12 -10 8 -21q-1 -6 -4.5 -11t-5.5 -8l-64 -75q-14 -14 -18 -17q-8 -4 -13 -4
z" />
    <glyph glyph-name="racute" unicode="&#x155;" horiz-adv-x="229" 
d="M-13 24q1 17 6 34q8 25 33 86q20 47 44 94l17 36q4 5 8.5 13t8.5 13q8 8 17 8q3 0 9 -2q13 -6 13 -23q-1 -9 -3 -15.5t-3 -11.5q-4 -11 -5 -20q-2 -8 -4.5 -14.5t-4.5 -12.5q4 2 11 8l18 15l32 24q30 20 60 27q10 2 16 2l12 -1q13 -3 21 -16q2 -6 2 -8q0 -3 -3 -8
q-9 -9 -17 -3q-8 5 -15 5q-6 0 -22 -6q-14 -5 -22 -11q-80 -49 -122 -120q-6 -8 -11 -22q-18 -42 -26 -63q-9 -20 -15 -27q-11 -14 -26 -14q-3 0 -9 2q-20 8 -20 31zM254 404q-9 0 -13 6q-8 8 -8 15q0 3 2 9l8 16q17 26 41 52.5t30 33.5q10 8 14 9l8 2q9 0 15 -7
q12 -10 8 -21q-1 -6 -4.5 -11t-5.5 -8l-64 -75q-14 -14 -18 -17q-8 -4 -13 -4z" />
    <glyph glyph-name="Rcommaaccent" unicode="&#x156;" horiz-adv-x="413" 
d="M281 -121q-3 10 -3 23q-2 44 -8 65q-14 59 -66 80q-31 14 -53 18q-31 3 -40 29q-2 10 -2 13q0 18 18 36l7 7l85 72q107 89 141 115l66 51l38 29q50 40 73 63q12 10 24 28q6 10 7 15q1 2 1 6q0 5 -8 8q-11 4 -28 2q-22 -4 -45 -14q-55 -23 -123 -80q-150 -131 -260 -305
q-12 -18 -32 -56q-14 -27 -18 -56q-1 -11 -5 -28q-1 -5 -5 -13q-6 -11 -17 -11q-10 0 -16 9q-5 7 -9 27q-3 18 -3 36t4 50q9 60 26 125q23 82 78 179l30 46q11 18 26 27q10 7 21 7q13 0 20 -9q8 -8 8 -21q0 -12 -8 -22l-3 -6l-19 -33q-17 -29 -33.5 -60t-27.5 -58
q-19 -46 -30 -90q4 3 7 7t4 6q117 168 241 274q66 57 126 84q36 17 67 21q4 1 13 1q17 0 32 -7q14 -7 22.5 -19t8.5 -28q0 -6 -1 -9q-3 -20 -18 -45q-17 -24 -46 -55q-38 -41 -122 -113q-36 -29 -150 -127q-51 -45 -49 -43q-5 -3 -6 -6q2 -3 5.5 -4.5t4.5 -2.5
q26 -12 38 -20q69 -48 69 -131q1 -20 -2 -45l-1 -22q-2 -16 -6 -23q-8 -17 -25 -15q-16 1 -23 18zM59 -189l4 18q7 24 20 50.5t27 50.5q4 9 10 12q8 5 15 5q4 0 10 -3q12 -6 12 -19q0 -7 -2 -12.5t-3 -7.5l-42 -89q-5 -13 -13 -21t-16 -8q-5 0 -10 3q-12 5 -12 21z" />
    <glyph glyph-name="rcommaaccent" unicode="&#x157;" horiz-adv-x="229" 
d="M-13 24q1 17 6 34q8 25 33 86q20 47 44 94l17 36q4 5 8.5 13t8.5 13q8 8 17 8q3 0 9 -2q13 -6 13 -23q-1 -9 -3 -15.5t-3 -11.5q-4 -11 -5 -20q-2 -8 -4.5 -14.5t-4.5 -12.5q4 2 11 8l18 15l32 24q30 20 60 27q10 2 16 2l12 -1q13 -3 21 -16q2 -6 2 -8q0 -3 -3 -8
q-9 -9 -17 -3q-8 5 -15 5q-6 0 -22 -6q-14 -5 -22 -11q-80 -49 -122 -120q-6 -8 -11 -22q-18 -42 -26 -63q-9 -20 -15 -27q-11 -14 -26 -14q-3 0 -9 2q-20 8 -20 31zM0 -189l4 18q7 24 20 50.5t27 50.5q4 9 10 12q8 5 15 5q4 0 10 -3q12 -6 12 -19q0 -7 -2 -12.5t-3 -7.5
l-42 -89q-5 -13 -13 -21t-16 -8q-5 0 -10 3q-12 5 -12 21z" />
    <glyph glyph-name="Rcaron" unicode="&#x158;" horiz-adv-x="413" 
d="M281 -121q-3 10 -3 23q-2 44 -8 65q-14 59 -66 80q-31 14 -53 18q-31 3 -40 29q-2 10 -2 13q0 18 18 36l7 7l85 72q107 89 141 115l66 51l38 29q50 40 73 63q12 10 24 28q6 10 7 15q1 2 1 6q0 5 -8 8q-11 4 -28 2q-22 -4 -45 -14q-55 -23 -123 -80q-150 -131 -260 -305
q-12 -18 -32 -56q-14 -27 -18 -56q-1 -11 -5 -28q-1 -5 -5 -13q-6 -11 -17 -11q-10 0 -16 9q-5 7 -9 27q-3 18 -3 36t4 50q9 60 26 125q23 82 78 179l30 46q11 18 26 27q10 7 21 7q13 0 20 -9q8 -8 8 -21q0 -12 -8 -22l-3 -6l-19 -33q-17 -29 -33.5 -60t-27.5 -58
q-19 -46 -30 -90q4 3 7 7t4 6q117 168 241 274q66 57 126 84q36 17 67 21q4 1 13 1q17 0 32 -7q14 -7 22.5 -19t8.5 -28q0 -6 -1 -9q-3 -20 -18 -45q-17 -24 -46 -55q-38 -41 -122 -113q-36 -29 -150 -127q-51 -45 -49 -43q-5 -3 -6 -6q2 -3 5.5 -4.5t4.5 -2.5
q26 -12 38 -20q69 -48 69 -131q1 -20 -2 -45l-1 -22q-2 -16 -6 -23q-8 -17 -25 -15q-16 1 -23 18zM307 592q0 21 5 48q9 43 9 72q0 9 4.5 15t11.5 7h2q7 0 12.5 -5t6.5 -13q2 -8 2 -12l-1 -8q0 -14 -2 -40l4 -3l36 43q5 5 10.5 11.5t13.5 13.5q7 7 16 7q7 0 13 -6
q7 -7 7 -15q0 -6 -6 -14q-17 -21 -32 -41q-42 -54 -67 -79q-10 -10 -21 -10q-5 0 -8 1q-16 7 -16 28z" />
    <glyph glyph-name="rcaron" unicode="&#x159;" horiz-adv-x="229" 
d="M-13 24q1 17 6 34q8 25 33 86q20 47 44 94l17 36q4 5 8.5 13t8.5 13q8 8 17 8q3 0 9 -2q13 -6 13 -23q-1 -9 -3 -15.5t-3 -11.5q-4 -11 -5 -20q-2 -8 -4.5 -14.5t-4.5 -12.5q4 2 11 8l18 15l32 24q30 20 60 27q10 2 16 2l12 -1q13 -3 21 -16q2 -6 2 -8q0 -3 -3 -8
q-9 -9 -17 -3q-8 5 -15 5q-6 0 -22 -6q-14 -5 -22 -11q-80 -49 -122 -120q-6 -8 -11 -22q-18 -42 -26 -63q-9 -20 -15 -27q-11 -14 -26 -14q-3 0 -9 2q-20 8 -20 31zM170 399q0 21 5 48q9 43 9 72q0 9 4.5 15t11.5 7h2q7 0 12.5 -5t6.5 -13q2 -8 2 -12l-1 -8q0 -14 -2 -40
l4 -3l36 43q5 5 10.5 11.5t13.5 13.5q7 7 16 7q7 0 13 -6q7 -7 7 -15q0 -6 -6 -14q-17 -21 -32 -41q-42 -54 -67 -79q-10 -10 -21 -10q-5 0 -8 1q-16 7 -16 28z" />
    <glyph glyph-name="Sacute" unicode="&#x15a;" horiz-adv-x="320" 
d="M36 -78q-17 9 -26.5 24.5t-9.5 33.5q0 12 2 18q2 7 11 27q48 91 118 150q48 41 64 53q8 7 8 17l-1 23q-2 32 -2 45q0 14 2 40q6 62 19 96q28 73 97 102q16 6 25 7q10 2 15 2q27 0 44.5 -20t17.5 -46q0 -7 -1 -11q-4 -18 -8 -28q-28 -66 -76 -112q-11 -11 -30 -23l-10 -5
h-2q-7 0 -10 5q-4 7 1 12l9 9q56 48 83 110q6 16 8 25q4 9 2 22q-2 11 -8 17t-16 6q-6 0 -9 -1q-31 -9 -51 -36t-23 -63q-6 -68 -5 -121l4 -76q3 -73 -18 -143t-75 -121q-46 -43 -99 -47q-26 -1 -50 9zM72 -24q6 1 25 11q50 30 77 81q26 52 29 128q-2 1 -3.5 0.5l-1.5 -0.5
q-79 -65 -122 -126q-21 -32 -30 -54q-7 -13 -8 -25v-2q0 -18 19 -16zM323 584q-9 0 -13 6q-8 8 -8 15q0 3 2 9l8 16q17 26 41 52.5t30 33.5q10 8 14 9l8 2q9 0 15 -7q12 -10 8 -21q-1 -6 -4.5 -11t-5.5 -8l-64 -75q-14 -14 -18 -17q-8 -4 -13 -4z" />
    <glyph glyph-name="sacute" unicode="&#x15b;" horiz-adv-x="219" 
d="M-14.5 -73.5q-15.5 16.5 -15.5 40.5q0 7 1 11q3 19 14 40q16 30 52 64q21 20 57 45q2 1 5.5 3.5t3.5 4.5l-4 10q-9 20 -15 39q-4 12 -4 28q0 33 19 60.5t50 39.5q16 4 25 3q17 -3 24 -17q1 -3 1 -8q0 -14 -15 -19q-19 -4 -31 -20t-12 -35q0 -4 2 -14q4 -14 11 -28t9 -19
q9 -22 15 -45.5t6 -41.5q0 -37 -19 -72t-50.5 -59t-68.5 -29q-6 -1 -20 -1q-25 3 -40.5 19.5zM103 6q18 29 18 58q0 19 -6 38q-2 1 -3.5 0t-2.5 -1q-50 -36 -82 -77q-17 -22 -19 -41q-1 -3 -1 -8q0 -10 5 -15.5t13 -5.5q6 0 13 3q40 15 65 49zM254 404q-9 0 -13 6
q-8 8 -8 15q0 3 2 9l8 16q17 26 41 52.5t30 33.5q10 8 14 9l8 2q9 0 15 -7q12 -10 8 -21q-1 -6 -4.5 -11t-5.5 -8l-64 -75q-14 -14 -18 -17q-8 -4 -13 -4z" />
    <glyph glyph-name="Scedilla" unicode="&#x15e;" horiz-adv-x="320" 
d="M36 -78q-17 9 -26.5 24.5t-9.5 33.5q0 12 2 18q2 7 11 27q48 91 118 150q48 41 64 53q8 7 8 17l-1 23q-2 32 -2 45q0 14 2 40q6 62 19 96q28 73 97 102q16 6 25 7q10 2 15 2q27 0 44.5 -20t17.5 -46q0 -7 -1 -11q-4 -18 -8 -28q-28 -66 -76 -112q-11 -11 -30 -23l-10 -5
h-2q-7 0 -10 5q-4 7 1 12l9 9q56 48 83 110q6 16 8 25q4 9 2 22q-2 11 -8 17t-16 6q-6 0 -9 -1q-31 -9 -51 -36t-23 -63q-6 -68 -5 -121l4 -76q3 -73 -18 -143t-75 -121q-46 -43 -99 -47q-26 -1 -50 9zM72 -24q6 1 25 11q50 30 77 81q26 52 29 128q-2 1 -3.5 0.5l-1.5 -0.5
q-79 -65 -122 -126q-21 -32 -30 -54q-7 -13 -8 -25v-2q0 -18 19 -16zM42 -272q-17 0 -27 10q-15 12 -15 34q0 9 3 17q7 19 18 29q8 6 15 6t11 -4q7 -7 7 -13q0 -4 -4 -12l-9 -16q-2 -7 1 -9q4 -3 10 1q2 1 6.5 4t7.5 7q20 20 34 50q4 9 4 20q0 7 -1 11q-3 12 -12 4l-9 -11
l-2.5 -5t-4.5 -6q-10 -10 -19 -10q-2 0 -8 2q-8 3 -12 10t-3 16q6 27 26 68q6 13 22 11t19 -18q2 -10 9 -12q33 -9 35 -51q0 -29 -11 -53q-20 -38 -53 -65q-10 -7 -14 -9q-10 -6 -24 -6z" />
    <glyph glyph-name="scedilla" unicode="&#x15f;" horiz-adv-x="219" 
d="M-14.5 -73.5q-15.5 16.5 -15.5 40.5q0 7 1 11q3 19 14 40q16 30 52 64q21 20 57 45q2 1 5.5 3.5t3.5 4.5l-4 10q-9 20 -15 39q-4 12 -4 28q0 33 19 60.5t50 39.5q16 4 25 3q17 -3 24 -17q1 -3 1 -8q0 -14 -15 -19q-19 -4 -31 -20t-12 -35q0 -4 2 -14q4 -14 11 -28t9 -19
q9 -22 15 -45.5t6 -41.5q0 -37 -19 -72t-50.5 -59t-68.5 -29q-6 -1 -20 -1q-25 3 -40.5 19.5zM103 6q18 29 18 58q0 19 -6 38q-2 1 -3.5 0t-2.5 -1q-50 -36 -82 -77q-17 -22 -19 -41q-1 -3 -1 -8q0 -10 5 -15.5t13 -5.5q6 0 13 3q40 15 65 49zM-5 -268q-17 0 -27 10
q-15 12 -15 34q0 9 3 17q7 19 18 29q7 6 15 6q7 0 11 -4q7 -7 7 -13q0 -4 -4 -12l-9 -16q-2 -7 1 -9q4 -3 10 1q2 1 6.5 4t7.5 7q20 20 34 50q4 9 4 20q0 7 -1 11q-3 12 -12 4l-9 -11l-2.5 -5t-4.5 -6q-10 -10 -19 -10q-2 0 -8 2q-8 3 -12 10t-3 16q6 27 26 68q6 13 22 11
t19 -18q2 -10 9 -12q33 -9 35 -51q0 -29 -11 -53q-20 -38 -53 -65q-10 -7 -14 -9q-11 -6 -24 -6z" />
    <glyph glyph-name="Scaron" unicode="&#x160;" horiz-adv-x="320" 
d="M36 -78q-17 9 -26.5 24.5t-9.5 33.5q0 12 2 18q2 7 11 27q48 91 118 150q48 41 64 53q8 7 8 17l-1 23q-2 32 -2 45q0 14 2 40q6 62 19 96q28 73 97 102q16 6 25 7q10 2 15 2q27 0 44.5 -20t17.5 -46q0 -7 -1 -11q-4 -18 -8 -28q-28 -66 -76 -112q-11 -11 -30 -23l-10 -5
h-2q-7 0 -10 5q-4 7 1 12l9 9q56 48 83 110q6 16 8 25q4 9 2 22q-2 11 -8 17t-16 6q-6 0 -9 -1q-31 -9 -51 -36t-23 -63q-6 -68 -5 -121l4 -76q3 -73 -18 -143t-75 -121q-46 -43 -99 -47q-26 -1 -50 9zM72 -24q6 1 25 11q50 30 77 81q26 52 29 128q-2 1 -3.5 0.5l-1.5 -0.5
q-79 -65 -122 -126q-21 -32 -30 -54q-7 -13 -8 -25v-2q0 -18 19 -16zM317 609q0 21 5 48q9 43 9 72q0 9 4.5 15t11.5 7h2q7 0 12.5 -5t6.5 -13q2 -8 2 -12l-1 -8q0 -14 -2 -40l4 -3l36 43q5 5 10.5 11.5t13.5 13.5q7 7 16 7q7 0 13 -6q7 -7 7 -15q0 -6 -6 -14
q-17 -21 -32 -41q-42 -54 -67 -79q-10 -10 -21 -10q-5 0 -8 1q-16 7 -16 28z" />
    <glyph glyph-name="scaron" unicode="&#x161;" horiz-adv-x="219" 
d="M-14.5 -73.5q-15.5 16.5 -15.5 40.5q0 7 1 11q3 19 14 40q16 30 52 64q21 20 57 45q2 1 5.5 3.5t3.5 4.5l-4 10q-9 20 -15 39q-4 12 -4 28q0 33 19 60.5t50 39.5q16 4 25 3q17 -3 24 -17q1 -3 1 -8q0 -14 -15 -19q-19 -4 -31 -20t-12 -35q0 -4 2 -14q4 -14 11 -28t9 -19
q9 -22 15 -45.5t6 -41.5q0 -37 -19 -72t-50.5 -59t-68.5 -29q-6 -1 -20 -1q-25 3 -40.5 19.5zM103 6q18 29 18 58q0 19 -6 38q-2 1 -3.5 0t-2.5 -1q-50 -36 -82 -77q-17 -22 -19 -41q-1 -3 -1 -8q0 -10 5 -15.5t13 -5.5q6 0 13 3q40 15 65 49zM170 399q0 21 5 48q9 43 9 72
q0 9 4.5 15t11.5 7h2q7 0 12.5 -5t6.5 -13q2 -8 2 -12l-1 -8q0 -14 -2 -40l4 -3l36 43q5 5 10.5 11.5t13.5 13.5q7 7 16 7q7 0 13 -6q7 -7 7 -15q0 -6 -6 -14q-17 -21 -32 -41q-42 -54 -67 -79q-10 -10 -21 -10q-5 0 -8 1q-16 7 -16 28z" />
    <glyph glyph-name="uni0162" unicode="&#x162;" horiz-adv-x="188" 
d="M7 -78.5q-6 7.5 -7 19.5v7q5 32 14 68q28 111 83 217q52 100 79 149q19 30 22 34q11 11 16 14q4 3 10 3q7 0 12 -4q11 -8 6 -21l-12 -35q-12 -29 -29 -65q-54 -116 -114 -275q-20 -50 -32 -74q-6 -12 -7 -19q-1 -13 -7.5 -20t-17.5 -6q-10 0 -16 7.5zM17 388q-7 0 -14 7
q-3 5 -3 10q0 6 3 10q3 7 11 12q18 14 39 21q99 39 189 50q88 10 130 11q20 2 29 2q10 0 26 -2q10 -1 19 -6q7 -4 10.5 -11.5t1.5 -14.5q-5 -17 -22 -18q-7 -1 -16.5 -2t-14.5 -1l-34 -3q-89 -8 -137 -14q-85 -12 -184 -42q-10 -2 -28 -8zM-13 -268q-17 0 -27 10
q-15 12 -15 34q0 9 3 17q7 19 18 29q8 6 15 6t11 -4q7 -7 7 -13q0 -4 -4 -12l-9 -16q-2 -7 1 -9q4 -3 10 1q2 1 6.5 4t7.5 7q20 20 34 50q4 9 4 20q0 7 -1 11q-3 12 -12 4l-9 -11l-2.5 -5t-4.5 -6q-10 -10 -19 -10q-2 0 -8 2q-8 3 -12 10t-3 16q6 27 26 68q6 13 22 11
t19 -18q2 -10 9 -12q33 -9 35 -51q0 -29 -11 -53q-20 -38 -53 -65q-10 -7 -14 -9q-11 -6 -24 -6z" />
    <glyph glyph-name="uni0163" unicode="&#x163;" horiz-adv-x="177" 
d="M-25 -60q2 33 10 61q6 21 20 53q49 118 130 264l6 11q1 1 0 2t-1 3l-26 -4q-3 0 -11 -2q-6 0 -11 3.5t-6 8.5l-1 4q0 10 10 15q7 4 24 6q11 3 35 5q14 3 19 12q13 27 29 45q10 12 13 14q9 6 17 6q7 0 11 -3q14 -7 14 -25q-2 -12 -4 -18q-4 -9 -7 -20q3 -2 6.5 -2h4.5
q28 2 44 4q9 0 13 -2q12 -1 12 -14v-2q0 -8 -11 -13q-4 -2 -14 -2q-31 -4 -62 -6q-11 -2 -15 -9q-34 -68 -52 -102q-8 -16 -33 -65.5t-44 -92.5q-10 -22 -28 -68l-17 -35q-18 -37 -27.5 -51t-21.5 -14q-4 0 -10 3q-18 10 -16 30zM-41 -239q-17 0 -27 10q-15 12 -15 34
q0 9 3 17q7 19 18 29q8 6 15 6t11 -4q7 -7 7 -13q0 -4 -4 -12l-9 -16q-2 -7 1 -9q4 -3 10 1q2 1 6.5 4t7.5 7q20 20 34 50q4 9 4 20q0 7 -1 11q-3 12 -12 4l-9 -11l-2.5 -5t-4.5 -6q-10 -10 -19 -10q-2 0 -8 2q-8 3 -12 10t-3 16q6 27 26 68q6 13 22 11t19 -18q2 -10 9 -12
q33 -9 35 -51q0 -29 -11 -53q-20 -38 -53 -65q-10 -7 -14 -9q-11 -6 -24 -6z" />
    <glyph glyph-name="Tcaron" unicode="&#x164;" horiz-adv-x="188" 
d="M7 -78.5q-6 7.5 -7 19.5v7q5 32 14 68q28 111 83 217q52 100 79 149q19 30 22 34q11 11 16 14q4 3 10 3q7 0 12 -4q11 -8 6 -21l-12 -35q-12 -29 -29 -65q-54 -116 -114 -275q-20 -50 -32 -74q-6 -12 -7 -19q-1 -13 -7.5 -20t-17.5 -6q-10 0 -16 7.5zM17 388q-7 0 -14 7
q-3 5 -3 10q0 6 3 10q3 7 11 12q18 14 39 21q99 39 189 50q88 10 130 11q20 2 29 2q10 0 26 -2q10 -1 19 -6q7 -4 10.5 -11.5t1.5 -14.5q-5 -17 -22 -18q-7 -1 -16.5 -2t-14.5 -1l-34 -3q-89 -8 -137 -14q-85 -12 -184 -42q-10 -2 -28 -8zM241 593q0 21 5 48q9 43 9 72
q0 9 4.5 15t11.5 7h2q7 0 12.5 -5t6.5 -13q2 -8 2 -12l-1 -8q0 -14 -2 -40l4 -3l36 43q5 5 10.5 11.5t13.5 13.5q7 7 16 7q7 0 13 -6q7 -7 7 -15q0 -6 -6 -14q-17 -21 -32 -41q-42 -54 -67 -79q-10 -10 -21 -10q-5 0 -8 1q-16 7 -16 28z" />
    <glyph glyph-name="tcaron" unicode="&#x165;" horiz-adv-x="177" 
d="M-25 -60q2 33 10 61q6 21 20 53q49 118 130 264l6 11q1 1 0 2t-1 3l-26 -4q-3 0 -11 -2q-6 0 -11 3.5t-6 8.5l-1 4q0 10 10 15q7 4 24 6q11 3 35 5q14 3 19 12q13 27 29 45q10 12 13 14q9 6 17 6q7 0 11 -3q14 -7 14 -25q-2 -12 -4 -18q-4 -9 -7 -20q3 -2 6.5 -2h4.5
q28 2 44 4q9 0 13 -2q12 -1 12 -14v-2q0 -8 -11 -13q-4 -2 -14 -2q-31 -4 -62 -6q-11 -2 -15 -9q-34 -68 -52 -102q-8 -16 -33 -65.5t-44 -92.5q-10 -22 -28 -68l-17 -35q-18 -37 -27.5 -51t-21.5 -14q-4 0 -10 3q-18 10 -16 30zM245 542q0 21 5 48q9 43 9 72q0 9 4.5 15
t11.5 7h2q7 0 12.5 -5t6.5 -13q2 -8 2 -12l-1 -8q0 -14 -2 -40l4 -3l36 43q5 5 10.5 11.5t13.5 13.5q7 7 16 7q7 0 13 -6q7 -7 7 -15q0 -6 -6 -14q-17 -21 -32 -41q-42 -54 -67 -79q-10 -10 -21 -10q-5 0 -8 1q-16 7 -16 28z" />
    <glyph glyph-name="Tbar" unicode="&#x166;" horiz-adv-x="188" 
d="M7 -78.5q-6 7.5 -7 19.5v7q5 32 14 68q28 111 83 217q52 100 79 149q19 30 22 34q11 11 16 14q4 3 10 3q7 0 12 -4q11 -8 6 -21l-12 -35q-12 -29 -29 -65q-54 -116 -114 -275q-20 -50 -32 -74q-6 -12 -7 -19q-1 -13 -7.5 -20t-17.5 -6q-10 0 -16 7.5zM17 388q-7 0 -14 7
q-3 5 -3 10q0 6 3 10q3 7 11 12q18 14 39 21q99 39 189 50q88 10 130 11q20 2 29 2q10 0 26 -2q10 -1 19 -6q7 -4 10.5 -11.5t1.5 -14.5q-5 -17 -22 -18q-7 -1 -16.5 -2t-14.5 -1l-34 -3q-89 -8 -137 -14q-85 -12 -184 -42q-10 -2 -28 -8zM33 209q-8 0 -18 5q-15 8 -15 23
q0 16 17 21q12 5 38 9q34 7 71 9q9 0 29 2q14 1 41.5 2t47.5 1q24 0 43 -13q17 -12 14 -29q-3 -15 -21 -22q-24 -7 -42 -7l-24 -1q-30 -2 -41 -2q-15 0 -22 1h-85z" />
    <glyph glyph-name="tbar" unicode="&#x167;" horiz-adv-x="177" 
d="M-25 -60q2 33 10 61q6 21 20 53q49 118 130 264l6 11q1 1 0 2t-1 3l-26 -4q-3 0 -11 -2q-6 0 -11 3.5t-6 8.5l-1 4q0 10 10 15q7 4 24 6q11 3 35 5q14 3 19 12q13 27 29 45q10 12 13 14q9 6 17 6q7 0 11 -3q14 -7 14 -25q-2 -12 -4 -18q-4 -9 -7 -20q3 -2 6.5 -2h4.5
q28 2 44 4q9 0 13 -2q12 -1 12 -14v-2q0 -8 -11 -13q-4 -2 -14 -2q-31 -4 -62 -6q-11 -2 -15 -9q-34 -68 -52 -102q-8 -16 -33 -65.5t-44 -92.5q-10 -22 -28 -68l-17 -35q-18 -37 -27.5 -51t-21.5 -14q-4 0 -10 3q-18 10 -16 30zM33 209q-8 0 -18 5q-15 8 -15 23q0 16 17 21
q12 5 38 9q34 7 71 9q9 0 29 2q14 1 41.5 2t47.5 1q24 0 43 -13q17 -12 14 -29q-3 -15 -21 -22q-24 -7 -42 -7l-24 -1q-30 -2 -41 -2q-15 0 -22 1h-85z" />
    <glyph glyph-name="Umacron" unicode="&#x16a;" horiz-adv-x="400" 
d="M215 -68q-2 8 -2 12l1 12q9 65 33 125q3 6 11 29q-5 -3 -7.5 -7t-3.5 -5q-41 -61 -69 -95q-31 -37 -63 -61q-21 -16 -39 -21q-11 -3 -19 -3q-17 0 -29.5 9.5t-19.5 26.5q-8 19 -8 44q0 9 2 27q3 41 26 105q58 166 170 315q16 23 31 37q10 8 19 11q14 3 23 -5.5t5 -22.5
q-2 -5 -11 -21q-57 -94 -104 -188q-55 -114 -83 -210q-10 -35 -13 -62v-6q0 -10 5 -10t14 4q13 6 35 22q30 25 65 67q30 37 82 117l18 27q33 52 49 94q15 38 53 108l18 33q8 15 24 14q7 -1 13 -6.5t8 -13.5q1 -4 1 -11q0 -8 -1 -14t-2 -10q-4 -17 -16 -49
q-42 -103 -120 -311q-13 -37 -33 -72q-12 -21 -15 -35q-6 -18 -24 -18t-24 18zM307 596q-15 5 -16 19v2q0 12 13 19q5 3 15 5q44 11 88 12h33q15 0 25 -5q14 -6 14 -21q0 -14 -12 -22q-7 -4 -17 -6q-52 -7 -86 -6h-41q-8 0 -16 3z" />
    <glyph glyph-name="umacron" unicode="&#x16b;" horiz-adv-x="294" 
d="M144 -19v4q0 10 4 28q16 59 48 128l6 15q-5 -2 -10 -10q-30 -35 -63 -80q-17 -23 -32 -36q-13 -13 -24 -19q-12 -6 -22 -6q-15 0 -26 10t-14 27q-2 12 -2 19q0 13 3 25q16 89 72 165q14 19 31 30q11 8 23 8q14 -2 20 -13q3 -4 3 -10t-5 -13q-30 -38 -49.5 -82.5
t-35.5 -101.5q-3 -8 -1 -11q6 2 14 12q40 41 94 106q26 32 40 47l67 83q11 15 25 9q15 -5 13 -24q-1 -7 -7 -26q-29 -86 -58 -160q-22 -55 -38 -106l-9 -24q-4 -9 -12 -15q-10 -9 -22 -9q-8 0 -12 2q-18 8 -21 28zM177 409q-15 5 -16 19v2q0 12 13 19q5 3 15 5q44 11 88 12
h33q15 0 25 -5q14 -6 14 -21q0 -14 -12 -22q-7 -4 -17 -6q-52 -7 -86 -6h-41q-8 0 -16 3z" />
    <glyph glyph-name="Uring" unicode="&#x16e;" horiz-adv-x="400" 
d="M215 -68q-2 8 -2 12l1 12q9 65 33 125q3 6 11 29q-5 -3 -7.5 -7t-3.5 -5q-41 -61 -69 -95q-31 -37 -63 -61q-21 -16 -39 -21q-11 -3 -19 -3q-17 0 -29.5 9.5t-19.5 26.5q-8 19 -8 44q0 9 2 27q3 41 26 105q58 166 170 315q16 23 31 37q10 8 19 11q14 3 23 -5.5t5 -22.5
q-2 -5 -11 -21q-57 -94 -104 -188q-55 -114 -83 -210q-10 -35 -13 -62v-6q0 -10 5 -10t14 4q13 6 35 22q30 25 65 67q30 37 82 117l18 27q33 52 49 94q15 38 53 108l18 33q8 15 24 14q7 -1 13 -6.5t8 -13.5q1 -4 1 -11q0 -8 -1 -14t-2 -10q-4 -17 -16 -49
q-42 -103 -120 -311q-13 -37 -33 -72q-12 -21 -15 -35q-6 -18 -24 -18t-24 18zM335 606q9 55 39 86q16 17 34 17q11 0 24 -6q14 -6 22 -20.5t7 -30.5q-7 -57 -45 -90q-21 -15 -35 -15q-9 0 -17 4q-29 14 -29 55zM389 590q3 0 9 4q24 18 27 51v4q0 12 -6 14h-3q-7 0 -13 -10
q-16 -23 -20 -50q-2 -9 2 -11z" />
    <glyph glyph-name="uring" unicode="&#x16f;" horiz-adv-x="294" 
d="M144 -19v4q0 10 4 28q16 59 48 128l6 15q-5 -2 -10 -10q-30 -35 -63 -80q-17 -23 -32 -36q-13 -13 -24 -19q-12 -6 -22 -6q-15 0 -26 10t-14 27q-2 12 -2 19q0 13 3 25q16 89 72 165q14 19 31 30q11 8 23 8q14 -2 20 -13q3 -4 3 -10t-5 -13q-30 -38 -49.5 -82.5
t-35.5 -101.5q-3 -8 -1 -11q6 2 14 12q40 41 94 106q26 32 40 47l67 83q11 15 25 9q15 -5 13 -24q-1 -7 -7 -26q-29 -86 -58 -160q-22 -55 -38 -106l-9 -24q-4 -9 -12 -15q-10 -9 -22 -9q-8 0 -12 2q-18 8 -21 28zM212 454q9 55 39 86q16 17 34 17q11 0 24 -6
q14 -6 22 -20.5t7 -30.5q-7 -57 -45 -90q-21 -15 -35 -15q-9 0 -17 4q-29 14 -29 55zM266 438q3 0 9 4q24 18 27 51v4q0 12 -6 14h-3q-7 0 -13 -10q-16 -23 -20 -50q-2 -9 2 -11z" />
    <glyph glyph-name="Uhungarumlaut" unicode="&#x170;" horiz-adv-x="400" 
d="M215 -68q-2 8 -2 12l1 12q9 65 33 125q3 6 11 29q-5 -3 -7.5 -7t-3.5 -5q-41 -61 -69 -95q-31 -37 -63 -61q-21 -16 -39 -21q-11 -3 -19 -3q-17 0 -29.5 9.5t-19.5 26.5q-8 19 -8 44q0 9 2 27q3 41 26 105q58 166 170 315q16 23 31 37q10 8 19 11q14 3 23 -5.5t5 -22.5
q-2 -5 -11 -21q-57 -94 -104 -188q-55 -114 -83 -210q-10 -35 -13 -62v-6q0 -10 5 -10t14 4q13 6 35 22q30 25 65 67q30 37 82 117l18 27q33 52 49 94q15 38 53 108l18 33q8 15 24 14q7 -1 13 -6.5t8 -13.5q1 -4 1 -11q0 -8 -1 -14t-2 -10q-4 -17 -16 -49
q-42 -103 -120 -311q-13 -37 -33 -72q-12 -21 -15 -35q-6 -18 -24 -18t-24 18zM280 579q2 12 4 18q10 31 26.5 63.5t19.5 37.5q7 10 11 12q7 5 14 5q5 0 10 -3q13 -6 13 -19q0 -7 -2 -12.5t-3 -7.5l-42 -89q-7 -13 -13 -21q-8 -8 -17 -8q-4 0 -9 3q-14 6 -12 21zM387 579
l4 18q7 23 20 49.5t27 51.5q4 9 10 12q8 5 15 5q4 0 10 -3q12 -6 12 -19q0 -7 -2 -12.5t-3 -7.5l-42 -89q-8 -16 -13 -21q-8 -8 -16 -8q-5 0 -10 3q-12 5 -12 21z" />
    <glyph glyph-name="uhungarumlaut" unicode="&#x171;" horiz-adv-x="294" 
d="M144 -19v4q0 10 4 28q16 59 48 128l6 15q-5 -2 -10 -10q-30 -35 -63 -80q-17 -23 -32 -36q-13 -13 -24 -19q-12 -6 -22 -6q-15 0 -26 10t-14 27q-2 12 -2 19q0 13 3 25q16 89 72 165q14 19 31 30q11 8 23 8q14 -2 20 -13q3 -4 3 -10t-5 -13q-30 -38 -49.5 -82.5
t-35.5 -101.5q-3 -8 -1 -11q6 2 14 12q40 41 94 106q26 32 40 47l67 83q11 15 25 9q15 -5 13 -24q-1 -7 -7 -26q-29 -86 -58 -160q-22 -55 -38 -106l-9 -24q-4 -9 -12 -15q-10 -9 -22 -9q-8 0 -12 2q-18 8 -21 28zM150 406q2 12 4 18q10 31 26.5 63.5t19.5 37.5q7 10 11 12
q7 5 14 5q5 0 10 -3q13 -6 13 -19q0 -7 -2 -12.5t-3 -7.5l-42 -89q-7 -13 -13 -21q-8 -8 -17 -8q-4 0 -9 3q-14 6 -12 21zM257 406l4 18q7 23 20 49.5t27 51.5q4 9 10 12q8 5 15 5q4 0 10 -3q12 -6 12 -19q0 -7 -2 -12.5t-3 -7.5l-42 -89q-8 -16 -13 -21q-8 -8 -16 -8
q-5 0 -10 3q-12 5 -12 21z" />
    <glyph glyph-name="Uogonek" unicode="&#x172;" horiz-adv-x="400" 
d="M267 -249q-32 0 -53.5 16t-24.5 49q-1 15 2 31t4 19l6 30q18 83 29 128t28 92q-5 -3 -7.5 -7t-3.5 -5q-41 -61 -69 -95q-31 -37 -63 -61q-21 -16 -39 -21q-11 -3 -19 -3q-17 0 -29.5 9.5t-19.5 26.5q-8 19 -8 44q0 9 2 27q3 41 26 105q58 166 170 315q16 23 31 37
q10 8 19 11q14 3 23 -5.5t5 -22.5q-2 -5 -11 -21q-57 -94 -104 -188q-55 -114 -83 -210q-10 -35 -13 -62v-6q0 -10 5 -10t14 4q13 6 35 22q30 25 65 67q30 37 82 117l18 27q33 52 49 94q15 38 53 108l18 33q8 15 24 14q7 -1 13 -6.5t8 -13.5q1 -4 1 -11q0 -8 -1 -14t-2 -10
q-4 -17 -16 -49l-37 -89q-59 -146 -90.5 -231t-53.5 -176q-3 -15 -3 -30q0 -13 3 -26l2 -3l3 -1q23 -1 47 11t55 32q19 12 30 8q7 -4 10.5 -12t1.5 -15q-2 -10 -17 -23q-35 -30 -66 -41q-23 -9 -49 -9z" />
    <glyph glyph-name="uogonek" unicode="&#x173;" horiz-adv-x="294" 
d="M144 -19v4q0 10 4 28q16 59 48 128l6 15q-5 -2 -10 -10q-30 -35 -63 -80q-17 -23 -32 -36q-13 -13 -24 -19q-12 -6 -22 -6q-15 0 -26 10t-14 27q-2 12 -2 19q0 13 3 25q16 89 72 165q14 19 31 30q11 8 23 8q14 -2 20 -13q3 -4 3 -10t-5 -13q-30 -38 -49.5 -82.5
t-35.5 -101.5q-3 -8 -1 -11q6 2 14 12q40 41 94 106q26 32 40 47l67 83q11 15 25 9q15 -5 13 -24q-1 -7 -7 -26q-29 -86 -58 -160q-22 -55 -38 -106l-9 -24q-4 -9 -12 -15q-10 -9 -22 -9q-8 0 -12 2q-18 8 -21 28zM161 -164q-6 28 -6 67q0 38 5 85q0 10 4 17q5 8 15 6
q9 -1 18 -7l3 -3q3 -3 1 -7q-1 -14 -1 -41q0 -39 3 -76q3 -28 15 -47l2 -2h3q20 5 37 22t37 42q6 7 11 11t12 3t12 -6.5t5 -12.5v-2q0 -10 -8 -22q-20 -33 -44 -52q-14 -12 -31.5 -19.5t-33.5 -7.5t-31 9q-22 15 -28 43z" />
    <glyph glyph-name="Wcircumflex" unicode="&#x174;" horiz-adv-x="492" 
d="M281 -71q-17 0 -30.5 10t-20.5 28q-10 26 -10 56l1 17q2 41 21 111l22 78q8 26 22 78q4 9 3 14q-3 -1 -5 -4t-4 -4l-30 -40q-73 -95 -118 -160q-27 -41 -60 -78q-10 -12 -17 -17q-9 -8 -23 -8q-10 0 -19 6t-13 17q-5 13 -5 27q0 9 1 13q3 46 19 98q18 59 39 115t59 148
q24 62 42 95q8 14 13 20q13 13 27 8q14 -6 14 -24q0 -11 -5 -24q-23 -82 -69 -206q-43 -124 -65 -202q0 -1 -1.5 -2.5t0.5 -3.5q3 0 5 2.5t3 3.5q16 19 46 59q30 41 94 121l53 67q16 22 31 34q11 9 21 9q16 0 25 -19q7 -15 5 -32q1 -21 -2.5 -40.5t-10.5 -52.5l-15 -65
q-3 -12 -12.5 -52t-15.5 -75q-5 -25 -7 -58q0 -13 5 -13t11 5q17 11 34 29q40 48 77 120q41 79 78 174.5t49 142.5q3 10 7 16q8 14 20 9t7 -20q-18 -75 -68 -205.5t-111 -227.5q-21 -34 -49 -61q-18 -18 -37 -29q-18 -8 -31 -8zM382 554q-6 0 -11.5 5t-6.5 13q-2 7 -2 20
q2 28 2 40l-3 3q-35 -41 -37 -43l-23 -25q-7 -7 -16 -7q-8 0 -13 6q-7 7 -7 15q0 9 5 14l36 45q37 48 64 75q10 10 21 10q5 0 8 -1q14 -6 16 -28q0 -16 -6 -48q-8 -48 -8 -72q0 -10 -4.5 -15.5t-12.5 -6.5h-2z" />
    <glyph glyph-name="wcircumflex" unicode="&#x175;" horiz-adv-x="411" 
d="M236 -40q-14 0 -26 6.5t-19 19.5q-12 19 -14 54q0 35 12 81q1 3 2.5 8.5t0.5 10.5q-4 -2 -11 -12l-32 -38q-32 -40 -64 -76l-22 -23q-10 -8 -16 -11q-10 -5 -19 -5q-21 0 -32 21q-6 12 -6 33q0 24 10 51q7 22 21 51q26 57 67 129l13 19q7 8 14 12q6 3 12 3q9 0 15.5 -6.5
t6.5 -17.5q0 -5 -5 -25q-11 -36 -36 -93l-29 -67q0 -2 -2 -6t-1 -8q3 1 12 10q69 71 115 123q30 34 44 52q8 12 19 12l8 -2q7 -2 11 -9t3 -16q0 -8 -2 -16.5t-3 -11.5q-23 -82 -34 -152q-4 -24 -3 -37q0 -10 4 -10q2 0 8 3q12 7 20 15q91 79 90 189q0 41 -2 62q-2 5 0 10
q3 14 18 14q7 0 10.5 -3.5t4.5 -11.5q0 -2 0.5 -7.5t-0.5 -9.5l1 -29q1 -10 1 -30q0 -15 -1 -23q-13 -123 -112 -210q-14 -14 -32 -20q-10 -3 -20 -3zM300 383q-6 0 -11.5 5t-6.5 13q-2 7 -2 20q2 28 2 40l-3 3q-35 -41 -37 -43l-23 -25q-7 -7 -16 -7q-8 0 -13 6q-7 7 -7 15
q0 9 5 14l36 45q37 48 64 75q10 10 21 10q5 0 8 -1q14 -6 16 -28q0 -16 -6 -48q-8 -48 -8 -72q0 -10 -4.5 -15.5t-12.5 -6.5h-2z" />
    <glyph glyph-name="Ycircumflex" unicode="&#x176;" horiz-adv-x="373" 
d="M71 -163q-22 0 -39.5 12.5t-27.5 35.5q-4 9 -4 20q0 6 2 16q21 66 77 108q12 8 20 9h4q8 0 14 -3.5t8 -9.5t2 -8q0 -5 -4 -8q-5 -8 -14 -4q-4 2 -6 2q-4 0 -8 -4q-44 -37 -57 -81q-2 -8 -2 -11q0 -11 14 -20q9 -5 14 1l17 15q97 94 165 227q53 101 98 205q4 8 3 12
q-7 -7 -11 -14l-25 -33l-84 -108q-37 -45 -64 -67q-13 -13 -31 -22q-9 -6 -20 -9q-10 -2 -14 -2q-14 0 -26 8.5t-16 23.5q-3 12 -3 24q0 8 2 24q4 27 16 60q42 122 102 234q3 5 23 38q5 8 12 14q8 7 18 7t17.5 -6.5t9.5 -17.5v-6q0 -7 -2 -17q-5 -19 -17 -43
q-54 -121 -74 -174q-11 -28 -22 -62l-11 -31q0 -2 -2 -6t0 -8q6 1 16 9q22 15 46 43q16 19 105 125l34 42l55 70q15 18 26 40q3 6 11 16q8 8 19 8q15 0 22 -15q4 -9 4 -23t-8 -44q-23 -76 -59 -156q-58 -126 -91 -188q-42 -80 -94 -146q-30 -38 -61 -64q-25 -21 -47 -31
q-19 -7 -32 -7zM406 572q-6 0 -11.5 5t-6.5 13q-2 7 -2 20q2 28 2 40l-3 3q-35 -41 -37 -43l-23 -25q-7 -7 -16 -7q-8 0 -13 6q-7 7 -7 15q0 9 5 14l36 45q37 48 64 75q10 10 21 10q5 0 8 -1q14 -6 16 -28q0 -16 -6 -48q-8 -48 -8 -72q0 -10 -4.5 -15.5t-12.5 -6.5h-2z" />
    <glyph glyph-name="ycircumflex" unicode="&#x177;" horiz-adv-x="363" 
d="M-46 -294.5q-15 15.5 -16 42.5q-1 37 17 69q52 87 122 137q49 35 105 39q10 0 14 9q29 63 61 149q1 1 1 5l-12 -11q-26 -29 -25 -28q-60 -64 -90 -93q-14 -13 -42 -37q-13 -10 -25 -15q-9 -3 -17 -3q-20 0 -33 19q-11 16 -13 42q-2 24 9 62q28 80 81 154q6 7 8 9q3 5 7 6
q10 6 16 6q7 0 12 -4q13 -7 13 -24q0 -8 -4 -20q-9 -26 -23 -53q-34 -74 -47 -112q-6 -18 -7 -29q5 0 8.5 3t4.5 4q30 22 55 47q45 41 127 129l28 29q14 13 22 24l3 5q15 18 30 12q9 -3 13.5 -11.5t3.5 -19.5q0 -10 -7 -38q-9 -27 -38 -108q-22 -60 -42 -106q-3 -6 -3 -8
q0 -3 9 -6q20 -7 32 -15q23 -14 29 -44q2 -5 0 -11q0 -9 -10 -11h-2q-6 0 -11 7l-3 9q-4 22 -27 32l-3 1q-18 8 -21 8q-5 0 -9 -6t-8 -16q-28 -60 -52 -104q-29 -48 -64 -82q-35 -33 -70 -48q-34 -14 -65 -13q-27 2 -42 17.5zM55 -232q23 21 45 54q36 51 73 130q0 1 1.5 3.5
t0.5 4.5l-4 1q-3 0 -9 -2q-37 -9 -65 -30q-66 -48 -109 -122q-12 -19 -14 -47q0 -14 3 -19t11 -5t14 2q28 7 53 30zM300 383q-6 0 -11.5 5t-6.5 13q-2 7 -2 20q2 28 2 40l-3 3q-35 -41 -37 -43l-23 -25q-7 -7 -16 -7q-8 0 -13 6q-7 7 -7 15q0 9 5 14l36 45q37 48 64 75
q10 10 21 10q5 0 8 -1q14 -6 16 -28q0 -16 -6 -48q-8 -48 -8 -72q0 -10 -4.5 -15.5t-12.5 -6.5h-2z" />
    <glyph glyph-name="Ydieresis" unicode="&#x178;" horiz-adv-x="373" 
d="M71 -163q-22 0 -39.5 12.5t-27.5 35.5q-4 9 -4 20q0 6 2 16q21 66 77 108q12 8 20 9h4q8 0 14 -3.5t8 -9.5t2 -8q0 -5 -4 -8q-5 -8 -14 -4q-4 2 -6 2q-4 0 -8 -4q-44 -37 -57 -81q-2 -8 -2 -11q0 -11 14 -20q9 -5 14 1l17 15q97 94 165 227q53 101 98 205q4 8 3 12
q-7 -7 -11 -14l-25 -33l-84 -108q-37 -45 -64 -67q-13 -13 -31 -22q-9 -6 -20 -9q-10 -2 -14 -2q-14 0 -26 8.5t-16 23.5q-3 12 -3 24q0 8 2 24q4 27 16 60q42 122 102 234q3 5 23 38q5 8 12 14q8 7 18 7t17.5 -6.5t9.5 -17.5v-6q0 -7 -2 -17q-5 -19 -17 -43
q-54 -121 -74 -174q-11 -28 -22 -62l-11 -31q0 -2 -2 -6t0 -8q6 1 16 9q22 15 46 43q16 19 105 125l34 42l55 70q15 18 26 40q3 6 11 16q8 8 19 8q15 0 22 -15q4 -9 4 -23t-8 -44q-23 -76 -59 -156q-58 -126 -91 -188q-42 -80 -94 -146q-30 -38 -61 -64q-25 -21 -47 -31
q-19 -7 -32 -7zM418 605.5q-13 12.5 -13 30.5q-1 20 11 34t30 15t31 -12.5t14 -33.5q0 -18 -12.5 -31.5t-29.5 -14.5q-18 0 -31 12.5zM291 625q-10 11 -10 28q0 16 11 27.5t27 11.5q15 0 26 -11t10 -26q0 -17 -11.5 -29t-27.5 -12q-15 0 -25 11z" />
    <glyph glyph-name="Zacute" unicode="&#x179;" horiz-adv-x="404" 
d="M0 -86q0 10 5 23q5 10 10 17.5t8 12.5q145 234 362 492l6 8q1 1 1 3h-5q-11 0 -21 -3q-130 -18 -196 -24q-22 -2 -34 -2q-17 0 -35 3q-16 4 -25 11q-9 8 -9 18q0 3 2 9q2 7 8.5 10.5t14.5 2.5q8 -2 23 -2q21 0 46 5q42 6 145 19q39 4 117 14l30 4q14 2 22 1
q13 -1 21 -9.5t8 -20.5q0 -10 -5 -18l-7 -9q-37 -47 -34 -43q-160 -198 -253 -330q-39 -55 -64 -95q-6 -7 -16 -23q-6 -8 -7 -14q45 11 56 13q27 5 49 5q41 0 93 -15q13 -4 27 -13q14 -11 18 -22l2 -8q0 -8 -6 -12q-4 -2 -8 -2q-7 0 -11 5q-8 9 -18 13.5t-27 8.5
q-30 6 -58 6q-85 0 -166 -57l-17 -13q-10 -5 -19 -5q-8 0 -16 4q-17 10 -17 32zM313 592q-9 0 -13 6q-8 8 -8 15q0 3 2 9l8 16q17 26 41 52.5t30 33.5q10 8 14 9l8 2q9 0 15 -7q12 -10 8 -21q-1 -6 -4.5 -11t-5.5 -8l-64 -75q-14 -14 -18 -17q-8 -4 -13 -4z" />
    <glyph glyph-name="zacute" unicode="&#x17a;" horiz-adv-x="261" 
d="M3.5 -6q-8.5 9 -4.5 22q4 10 8 14l24 30q101 112 165 172q1 1 4.5 3.5t4.5 6.5q-2 2 -6 2h-5l-99 -4q-16 0 -24 1q-14 2 -16 15v2q0 11 12 17q10 4 31 6q66 10 143 13q15 0 22 -1q12 -2 19 -9.5t7 -17.5q0 -9 -6 -18q-4 -6 -15 -17q-56 -55 -164 -171l-3.5 -3.5
t-2.5 -5.5q2 -3 8 -3q47 -4 96 -17q4 -1 17 -4q14 -3 14 -15q0 -13 -14 -16q-3 -1 -8 -1q-8 0 -12 1q-33 8 -77 13q-7 1 -21 1q-36 0 -64 -18q-4 -3 -12 -5q-13 -2 -21.5 7zM162 404q-9 0 -13 6q-8 8 -8 15q0 3 2 9l8 16q17 26 41 52.5t30 33.5q10 8 14 9l8 2q9 0 15 -7
q12 -10 8 -21q-1 -6 -4.5 -11t-5.5 -8l-64 -75q-14 -14 -18 -17q-8 -4 -13 -4z" />
    <glyph glyph-name="Zdotaccent" unicode="&#x17b;" horiz-adv-x="404" 
d="M0 -86q0 10 5 23q5 10 10 17.5t8 12.5q145 234 362 492l6 8q1 1 1 3h-5q-11 0 -21 -3q-130 -18 -196 -24q-22 -2 -34 -2q-17 0 -35 3q-16 4 -25 11q-9 8 -9 18q0 3 2 9q2 7 8.5 10.5t14.5 2.5q8 -2 23 -2q21 0 46 5q42 6 145 19q39 4 117 14l30 4q14 2 22 1
q13 -1 21 -9.5t8 -20.5q0 -10 -5 -18l-7 -9q-37 -47 -34 -43q-160 -198 -253 -330q-39 -55 -64 -95q-6 -7 -16 -23q-6 -8 -7 -14q45 11 56 13q27 5 49 5q41 0 93 -15q13 -4 27 -13q14 -11 18 -22l2 -8q0 -8 -6 -12q-4 -2 -8 -2q-7 0 -11 5q-8 9 -18 13.5t-27 8.5
q-30 6 -58 6q-85 0 -166 -57l-17 -13q-10 -5 -19 -5q-8 0 -16 4q-17 10 -17 32zM318.5 618.5q-12.5 12.5 -13.5 31.5q0 20 12 34t30 15q17 1 30 -12.5t14 -33.5q1 -18 -11.5 -31.5t-30.5 -14.5t-30.5 11.5z" />
    <glyph glyph-name="zdotaccent" unicode="&#x17c;" horiz-adv-x="261" 
d="M3.5 -6q-8.5 9 -4.5 22q4 10 8 14l24 30q101 112 165 172q1 1 4.5 3.5t4.5 6.5q-2 2 -6 2h-5l-99 -4q-16 0 -24 1q-14 2 -16 15v2q0 11 12 17q10 4 31 6q66 10 143 13q15 0 22 -1q12 -2 19 -9.5t7 -17.5q0 -9 -6 -18q-4 -6 -15 -17q-56 -55 -164 -171l-3.5 -3.5
t-2.5 -5.5q2 -3 8 -3q47 -4 96 -17q4 -1 17 -4q14 -3 14 -15q0 -13 -14 -16q-3 -1 -8 -1q-8 0 -12 1q-33 8 -77 13q-7 1 -21 1q-36 0 -64 -18q-4 -3 -12 -5q-13 -2 -21.5 7zM176.5 422.5q-12.5 12.5 -13.5 31.5q0 20 12 34t30 15q17 1 30 -12.5t14 -33.5q1 -18 -11.5 -31.5
t-30.5 -14.5t-30.5 11.5z" />
    </font>
</defs>
</svg>
